<svg width="66" height="42" viewBox="0 0 66 42" fill="none" xmlns="http://www.w3.org/2000/svg">
<path d="M46.4618 30.2092C46.4867 30.9227 46.2725 31.6242 45.853 32.2036C45.3353 32.8381 44.6732 33.3412 43.9214 33.6714C41.2908 34.9562 36.4731 35.0533 34.6617 35.0533H31.6817C29.8515 35.0533 25.0601 34.9562 22.4183 33.6714C21.6632 33.336 20.9949 32.834 20.4641 32.2036C20.0562 31.6193 19.848 30.9201 19.8704 30.2092V28.3157C19.8488 27.6014 20.0567 26.8989 20.4641 26.3101C20.9985 25.6853 21.666 25.1865 22.4183 24.8498C25.0489 23.5687 29.8515 23.4754 31.6817 23.4754H46.4618V30.2092ZM63.9025 8.17376C62.6503 6.56964 61.0377 5.27907 59.1938 4.40532C52.8052 1.27927 41.1743 0.916995 36.77 0.939404H27.7283H7.84487C7.73433 0.937922 7.62457 0.958094 7.52187 0.998775C7.41916 1.03945 7.32553 1.09985 7.24631 1.17649C7.1671 1.25314 7.10385 1.34455 7.06018 1.44549C7.01651 1.54643 6.99329 1.65493 6.99182 1.7648V7.57246C6.99479 7.79468 7.08621 8.00668 7.24608 8.16207C7.40596 8.31746 7.62126 8.40359 7.84487 8.40159H34.6392C36.4505 8.40159 41.2419 8.49495 43.8876 9.77973C44.6429 10.1093 45.3098 10.6108 45.8342 11.2438C46.2548 11.8241 46.469 12.5272 46.443 13.2419V16.0206H29.5321C25.1353 16.0206 13.5081 16.241 7.11583 19.3596C5.02264 20.3792 3.44805 21.5407 2.41085 22.9077C0.0621212 26.0337 0.0546053 31.987 2.41085 35.1131C3.44429 36.4875 5.04142 37.6378 7.11206 38.6612C13.5006 41.7835 25.1203 42.0001 29.5284 42.0001H36.7812C41.1856 42.0001 52.8052 41.6752 59.205 38.5416C61.0464 37.6604 62.6579 36.3681 63.9138 34.7657C64.857 33.4959 65.3493 31.6658 65.3493 29.6938V13.2606C65.3493 11.2886 64.857 9.45481 63.9138 8.1887" fill="#E2001A"/>
</svg>
