<svg width="66" height="42" viewBox="0 0 66 42" fill="none" xmlns="http://www.w3.org/2000/svg">
<path d="M46.133 14.0636C46.1573 14.7758 45.9461 15.4764 45.5317 16.058C45.0109 16.6906 44.3463 17.1911 43.5926 17.5183C40.962 18.8068 36.1631 18.9039 34.3367 18.9039H19.5604V12.4427C19.5306 11.7303 19.738 11.028 20.1504 10.4446C20.6762 9.81831 21.3413 9.3222 22.0933 8.99544C24.7239 7.69572 29.5303 7.60981 31.3491 7.60981H34.3367C36.1631 7.60981 40.9508 7.69572 43.5926 8.99544C44.3447 9.32016 45.0091 9.81665 45.5317 10.4446C45.9429 11.0291 46.1537 11.7297 46.133 12.4427V14.0636ZM64.4982 41.7013C64.7192 41.7003 64.9308 41.6127 65.087 41.4574C65.2433 41.3021 65.3315 41.0918 65.3325 40.8722V35.1019C65.3315 34.8816 65.2435 34.6705 65.0875 34.514C64.9315 34.3575 64.7199 34.2682 64.4982 34.2653H31.3717C29.5528 34.2653 24.7502 34.1644 22.1083 32.8759C21.3563 32.5494 20.692 32.0517 20.1692 31.4231C19.7574 30.8363 19.549 30.1323 19.5754 29.4175V26.3586H36.4863C40.8831 26.3586 52.5028 26.1383 58.9063 23.0197C61.0071 21.9964 62.5779 20.8535 63.6113 19.4791C65.8097 16.5547 66.0051 10.7023 63.6339 7.54632C62.5892 6.18685 61.0033 5.01411 58.9289 4.00197C52.5216 0.879654 40.8906 0.640625 36.5051 0.640625H29.2334C24.8291 0.640625 13.2207 0.987962 6.81337 4.09907C4.96434 4.97679 3.35266 6.28021 2.11215 7.90112C1.15386 9.15229 0.672844 10.9861 0.672844 12.9618V29.4175C0.672844 31.3745 1.15386 33.2046 2.11215 34.4744C3.35397 36.0888 4.96402 37.3868 6.80961 38.2615C13.2169 41.3726 24.8253 41.7349 29.2297 41.7088L64.4982 41.7013Z" fill="#E2001A"/>
</svg>
