<svg width="40" height="56" viewBox="0 0 40 56" fill="none" xmlns="http://www.w3.org/2000/svg">
<path d="M0.273065 54.8833C0.272567 54.9918 0.29372 55.0994 0.335281 55.1998C0.376842 55.3001 0.437989 55.3913 0.515209 55.4681C0.592428 55.5448 0.684188 55.6056 0.785175 55.6469C0.886162 55.6882 0.994381 55.7092 1.10358 55.7087H18.0145C18.1245 55.7097 18.2337 55.6891 18.3357 55.6482C18.4378 55.6072 18.5307 55.5467 18.6092 55.4701C18.6878 55.3934 18.7503 55.3021 18.7933 55.2015C18.8364 55.1008 18.859 54.9927 18.86 54.8833V22.3903H29.217C29.4399 22.3893 29.6534 22.3009 29.8111 22.1442C29.9687 21.9875 30.0578 21.7753 30.0587 21.5537V15.7834C30.0578 15.5618 29.9687 15.3496 29.8111 15.1929C29.6534 15.0362 29.4399 14.9478 29.217 14.9468H18.875V12.381C18.842 11.6665 19.0511 10.9616 19.4688 10.3791C19.9885 9.74698 20.6518 9.24649 21.4041 8.91879C24.0535 7.63028 29.1606 7.5369 30.9907 7.5369H38.4165C38.5271 7.5374 38.6368 7.5161 38.7392 7.47423C38.8415 7.43236 38.9345 7.37076 39.0128 7.29297C39.0911 7.21519 39.1531 7.12276 39.1952 7.02104C39.2373 6.91932 39.2588 6.81031 39.2583 6.70031V0.922527C39.2587 0.81235 39.2373 0.703157 39.1953 0.601224C39.1532 0.499291 39.0913 0.406625 39.013 0.328543C38.9348 0.250462 38.8418 0.188506 38.7395 0.14623C38.6371 0.103953 38.5273 0.0821903 38.4165 0.0821914H28.8487C24.4443 0.0560476 12.8247 0.455671 6.43238 3.92533C4.55009 4.92905 2.93684 6.36589 1.72741 8.1158C0.772884 9.52757 0.273065 11.5518 0.273065 14.2484V54.8833Z" fill="#E2001A"/>
</svg>
