<svg width="40" height="56" viewBox="0 0 40 56" fill="none" xmlns="http://www.w3.org/2000/svg">
<path d="M39.1582 55.9628C39.2681 55.9633 39.377 55.9422 39.4787 55.9007C39.5803 55.8593 39.6727 55.7983 39.7506 55.7212C39.8284 55.6442 39.8902 55.5526 39.9324 55.4518C39.9746 55.3509 39.9963 55.2428 39.9963 55.1336V49.3222C39.9943 49.1023 39.9052 48.892 39.7484 48.7368C39.5916 48.5816 39.3795 48.4941 39.1582 48.4931H31.398C29.5905 48.4931 24.784 48.4072 22.1572 47.1187C21.4071 46.782 20.744 46.2801 20.2181 45.6509C19.7977 45.0692 19.5848 44.3647 19.613 43.649V0.922612C19.613 0.701668 19.5255 0.489607 19.3694 0.332331C19.2132 0.175056 19.0011 0.0852213 18.7788 0.0822754H1.81905C1.709 0.0832519 1.60022 0.105759 1.49892 0.148519C1.39762 0.19128 1.30578 0.253455 1.22865 0.331488C1.15153 0.409521 1.09065 0.501889 1.04945 0.603314C1.00825 0.704739 0.987537 0.813237 0.988529 0.922612V42.3157C0.988529 44.4819 1.47708 46.5174 2.43912 47.9179C3.64714 49.668 5.25242 51.1112 7.1253 52.1308C13.5402 55.5818 24.8554 55.9889 29.2598 55.9628H39.1582Z" fill="#E2001A"/>
</svg>
