<svg width="62" height="56" viewBox="0 0 62 56" fill="none" xmlns="http://www.w3.org/2000/svg">
<path d="M39.1543 55.7087C39.3752 55.7087 39.5873 55.622 39.7442 55.4674C39.9012 55.3128 39.9903 55.1029 39.9923 54.8833V7.65264H60.5447C60.7663 7.65168 60.9787 7.56426 61.1362 7.40918C61.2936 7.25411 61.3835 7.04379 61.3864 6.82351V1.03453C61.3835 0.814252 61.2936 0.603935 61.1362 0.448861C60.9787 0.293787 60.7663 0.206358 60.5447 0.205398H0.845543C0.735216 0.203909 0.625698 0.224281 0.523383 0.265328C0.421069 0.306375 0.32801 0.367271 0.249641 0.444461C0.171272 0.521652 0.109163 0.61359 0.0669463 0.714902C0.0247291 0.816215 0.00324878 0.924875 0.00375822 1.03453V6.82351C0.00424871 6.9332 0.0265351 7.04172 0.0693403 7.14282C0.112146 7.24393 0.174627 7.33563 0.253193 7.41268C0.331759 7.48972 0.424865 7.55057 0.527162 7.59175C0.62946 7.63293 0.738935 7.65362 0.849301 7.65264H21.3641V54.8833C21.3636 54.9921 21.3848 55.1 21.4266 55.2006C21.4684 55.3012 21.5299 55.3926 21.6075 55.4693C21.6851 55.5461 21.7773 55.6068 21.8788 55.6479C21.9802 55.689 22.0888 55.7097 22.1983 55.7087H39.1543Z" fill="#E2001A"/>
</svg>
