<svg width="141" height="95" viewBox="0 0 141 95" fill="none" xmlns="http://www.w3.org/2000/svg">
<path d="M16.08 49H21.6V41.224H25.92V35.704H21.6V27.4H16.08V35.704H7.872L20.016 15.4H13.68L0.72 37.144V41.224H16.08V49ZM51.6206 27.688C51.6206 20.2 47.2046 14.872 39.7166 14.872C34.3406 14.872 28.5806 19 28.5806 26.056C28.5806 32.008 33.0446 36.472 38.7086 36.472C41.5406 36.472 43.7006 35.368 45.0926 33.448C43.7486 39.688 39.4766 43.768 32.5646 45.16L34.3886 49.528C43.9886 48.376 51.6206 40.6 51.6206 27.688ZM45.7646 27.64C44.9006 29.464 43.0766 31.288 40.0526 31.288C36.5006 31.288 34.4366 28.6 34.4366 25.672C34.4366 22.984 36.5966 20.392 39.7166 20.392C43.7486 20.392 45.7646 23.8 45.7646 27.64ZM78.2456 27.688C78.2456 20.2 73.8296 14.872 66.3416 14.872C60.9656 14.872 55.2056 19 55.2056 26.056C55.2056 32.008 59.6696 36.472 65.3336 36.472C68.1656 36.472 70.3256 35.368 71.7176 33.448C70.3736 39.688 66.1016 43.768 59.1896 45.16L61.0136 49.528C70.6136 48.376 78.2456 40.6 78.2456 27.688ZM72.3896 27.64C71.5256 29.464 69.7016 31.288 66.6776 31.288C63.1256 31.288 61.0616 28.6 61.0616 25.672C61.0616 22.984 63.2216 20.392 66.3416 20.392C70.3736 20.392 72.3896 23.8 72.3896 27.64Z" fill="#383838"/>
<path d="M91.2 21.62C91.2 18.5 89.36 16.28 86.24 16.28C84 16.28 81.6 18 81.6 20.94C81.6 23.42 83.46 25.28 85.82 25.28C87 25.28 87.9 24.82 88.48 24.02C87.92 26.62 86.14 28.32 83.26 28.9L84.02 30.72C88.02 30.24 91.2 27 91.2 21.62ZM88.76 21.6C88.4 22.36 87.64 23.12 86.38 23.12C84.9 23.12 84.04 22 84.04 20.78C84.04 19.66 84.94 18.58 86.24 18.58C87.92 18.58 88.76 20 88.76 21.6ZM102.294 21.62C102.294 18.5 100.454 16.28 97.3338 16.28C95.0938 16.28 92.6938 18 92.6938 20.94C92.6938 23.42 94.5538 25.28 96.9138 25.28C98.0938 25.28 98.9938 24.82 99.5738 24.02C99.0138 26.62 97.2337 28.32 94.3538 28.9L95.1138 30.72C99.1138 30.24 102.294 27 102.294 21.62ZM99.8538 21.6C99.4938 22.36 98.7338 23.12 97.4738 23.12C95.9938 23.12 95.1338 22 95.1338 20.78C95.1338 19.66 96.0338 18.58 97.3338 18.58C99.0138 18.58 99.8538 20 99.8538 21.6Z" fill="#383838"/>
<path d="M81.26 45.54H83.22V47.2H81.26V49.04H83.22V51.5H85.66V49.04H88.94V47.2H85.66V45.54H87.5C90.82 45.54 92.6 43.96 92.6 41.56C92.6 39.26 91.32 37.46 87.18 37.46C86.2 37.46 84 37.5 83.22 37.5V43.7H81.26V45.54ZM87.44 39.76C89.1 39.76 90 40.32 90 41.78C90 43.2 88.86 43.7 87.42 43.7H85.66V39.8C86.32 39.78 86.94 39.76 87.44 39.76Z" fill="#383838"/>
<path d="M15.808 69.632C15.808 65.056 13.44 61.312 8.448 61.312C5.056 61.312 1.536 64.16 1.536 68.352C1.536 72.128 4.192 75.2 8.192 75.2C11.04 75.2 13.024 73.76 13.888 71.776C13.312 78.016 9.536 82.016 4.256 82.976L4.864 84.288C11.072 83.424 15.808 78.016 15.808 69.632ZM14.048 69.632C13.568 71.52 11.712 73.632 8.608 73.632C5.12 73.632 3.296 71.008 3.296 68.224C3.296 65.344 5.76 62.976 8.512 62.976C12.384 62.976 14.048 66.24 14.048 69.632ZM33.3393 69.632C33.3393 65.056 30.9713 61.312 25.9792 61.312C22.5873 61.312 19.0673 64.16 19.0673 68.352C19.0673 72.128 21.7233 75.2 25.7233 75.2C28.5713 75.2 30.5553 73.76 31.4193 71.776C30.8433 78.016 27.0673 82.016 21.7873 82.976L22.3953 84.288C28.6033 83.424 33.3393 78.016 33.3393 69.632ZM31.5793 69.632C31.0993 71.52 29.2433 73.632 26.1393 73.632C22.6513 73.632 20.8273 71.008 20.8273 68.224C20.8273 65.344 23.2913 62.976 26.0433 62.976C29.9153 62.976 31.5793 66.24 31.5793 69.632ZM50.8705 69.632C50.8705 65.056 48.5025 61.312 43.5105 61.312C40.1185 61.312 36.5985 64.16 36.5985 68.352C36.5985 72.128 39.2545 75.2 43.2545 75.2C46.1025 75.2 48.0865 73.76 48.9505 71.776C48.3745 78.016 44.5985 82.016 39.3185 82.976L39.9265 84.288C46.1345 83.424 50.8705 78.016 50.8705 69.632ZM49.1105 69.632C48.6305 71.52 46.7745 73.632 43.6705 73.632C40.1825 73.632 38.3585 71.008 38.3585 68.224C38.3585 65.344 40.8225 62.976 43.5745 62.976C47.4465 62.976 49.1105 66.24 49.1105 69.632Z" fill="black"/>
<path d="M54.336 83.062H55.904V84.784H54.336V85.386H55.904V87.5H56.674V85.386H59.208V84.784H56.674V83.062H58.298C60.748 83.062 61.784 81.9 61.784 80.374C61.784 78.918 61.028 77.672 58.298 77.672C57.738 77.672 56.45 77.7 55.904 77.7V82.46H54.336V83.062ZM58.368 78.4C60.216 78.4 60.972 79.142 60.972 80.43C60.972 81.732 60.048 82.46 58.27 82.46H56.674V78.428C57.136 78.414 57.934 78.4 58.368 78.4Z" fill="black"/>
<path d="M54.91 67.6C54.91 70.512 55.848 72.612 58.032 72.612C60.216 72.612 61.098 70.512 61.098 67.6C61.098 64.702 60.188 62.588 58.004 62.588C55.82 62.588 54.91 64.702 54.91 67.6ZM55.68 67.6C55.68 64.982 56.324 63.274 58.004 63.274C59.698 63.274 60.328 64.968 60.328 67.6C60.328 70.232 59.726 71.926 58.032 71.926C56.366 71.926 55.68 70.218 55.68 67.6ZM62.9217 67.6C62.9217 70.512 63.8597 72.612 66.0437 72.612C68.2277 72.612 69.1097 70.512 69.1097 67.6C69.1097 64.702 68.1997 62.588 66.0157 62.588C63.8317 62.588 62.9217 64.702 62.9217 67.6ZM63.6917 67.6C63.6917 64.982 64.3357 63.274 66.0157 63.274C67.7097 63.274 68.3397 64.968 68.3397 67.6C68.3397 70.232 67.7377 71.926 66.0437 71.926C64.3777 71.926 63.6917 70.218 63.6917 67.6Z" fill="black"/>
<line y1="73.5" x2="70.7575" y2="73.5" stroke="black"/>
</svg>
