<svg width="141" height="95" viewBox="0 0 141 95" fill="none" xmlns="http://www.w3.org/2000/svg">
<path d="M24.48 27.688C24.48 20.2 20.064 14.872 12.576 14.872C7.2 14.872 1.44 19 1.44 26.056C1.44 32.008 5.904 36.472 11.568 36.472C14.4 36.472 16.56 35.368 17.952 33.448C16.608 39.688 12.336 43.768 5.424 45.16L7.248 49.528C16.848 48.376 24.48 40.6 24.48 27.688ZM18.624 27.64C17.76 29.464 15.936 31.288 12.912 31.288C9.36 31.288 7.296 28.6 7.296 25.672C7.296 22.984 9.456 20.392 12.576 20.392C16.608 20.392 18.624 23.8 18.624 27.64ZM61.2769 27.688C61.2769 20.2 56.8609 14.872 49.3729 14.872C43.9969 14.872 38.2369 19 38.2369 26.056C38.2369 32.008 42.7009 36.472 48.3649 36.472C51.1969 36.472 53.3569 35.368 54.7489 33.448C53.4049 39.688 49.1329 43.768 42.2209 45.16L44.0449 49.528C53.6449 48.376 61.2769 40.6 61.2769 27.688ZM55.4209 27.64C54.5569 29.464 52.7329 31.288 49.7089 31.288C46.1569 31.288 44.0929 28.6 44.0929 25.672C44.0929 22.984 46.2529 20.392 49.3729 20.392C53.4049 20.392 55.4209 23.8 55.4209 27.64ZM87.9019 27.688C87.9019 20.2 83.4859 14.872 75.9979 14.872C70.6219 14.872 64.8619 19 64.8619 26.056C64.8619 32.008 69.3259 36.472 74.9899 36.472C77.8219 36.472 79.9819 35.368 81.3739 33.448C80.0299 39.688 75.7579 43.768 68.8459 45.16L70.6699 49.528C80.2699 48.376 87.9019 40.6 87.9019 27.688ZM82.0459 27.64C81.1819 29.464 79.3579 31.288 76.3339 31.288C72.7819 31.288 70.7179 28.6 70.7179 25.672C70.7179 22.984 72.8779 20.392 75.9979 20.392C80.0299 20.392 82.0459 23.8 82.0459 27.64ZM114.527 27.688C114.527 20.2 110.111 14.872 102.623 14.872C97.2469 14.872 91.4869 19 91.4869 26.056C91.4869 32.008 95.9509 36.472 101.615 36.472C104.447 36.472 106.607 35.368 107.999 33.448C106.655 39.688 102.383 43.768 95.4709 45.16L97.2949 49.528C106.895 48.376 114.527 40.6 114.527 27.688ZM108.671 27.64C107.807 29.464 105.983 31.288 102.959 31.288C99.4069 31.288 97.3429 28.6 97.3429 25.672C97.3429 22.984 99.5029 20.392 102.623 20.392C106.655 20.392 108.671 23.8 108.671 27.64Z" fill="#383838"/>
<path d="M127.2 21.62C127.2 18.5 125.36 16.28 122.24 16.28C120 16.28 117.6 18 117.6 20.94C117.6 23.42 119.46 25.28 121.82 25.28C123 25.28 123.9 24.82 124.48 24.02C123.92 26.62 122.14 28.32 119.26 28.9L120.02 30.72C124.02 30.24 127.2 27 127.2 21.62ZM124.76 21.6C124.4 22.36 123.64 23.12 122.38 23.12C120.9 23.12 120.04 22 120.04 20.78C120.04 19.66 120.94 18.58 122.24 18.58C123.92 18.58 124.76 20 124.76 21.6ZM138.294 21.62C138.294 18.5 136.454 16.28 133.334 16.28C131.094 16.28 128.694 18 128.694 20.94C128.694 23.42 130.554 25.28 132.914 25.28C134.094 25.28 134.994 24.82 135.574 24.02C135.014 26.62 133.234 28.32 130.354 28.9L131.114 30.72C135.114 30.24 138.294 27 138.294 21.62ZM135.854 21.6C135.494 22.36 134.734 23.12 133.474 23.12C131.994 23.12 131.134 22 131.134 20.78C131.134 19.66 132.034 18.58 133.334 18.58C135.014 18.58 135.854 20 135.854 21.6Z" fill="#383838"/>
<path d="M117.26 45.54H119.22V47.2H117.26V49.04H119.22V51.5H121.66V49.04H124.94V47.2H121.66V45.54H123.5C126.82 45.54 128.6 43.96 128.6 41.56C128.6 39.26 127.32 37.46 123.18 37.46C122.2 37.46 120 37.5 119.22 37.5V43.7H117.26V45.54ZM123.44 39.76C125.1 39.76 126 40.32 126 41.78C126 43.2 124.86 43.7 123.42 43.7H121.66V39.8C122.32 39.78 122.94 39.76 123.44 39.76Z" fill="#383838"/>
<path d="M1.632 84H14.976V82.432H3.808C5.664 80.736 13.984 73.088 13.984 66.848C13.984 64.224 12.16 61.344 8.032 61.344C5.216 61.344 2.368 63.136 1.888 66.528L3.328 67.072C3.776 64.224 5.984 63.008 7.936 63.008C10.816 63.008 12.224 65.024 12.224 67.168C12.224 72.288 5.28 79.04 1.632 82.624V84ZM28.1055 84H29.7695V78.08H33.0655V76.416H29.7695V69.6H28.1055V76.416H19.9455L29.4175 61.6H27.4975L17.7055 76.96V78.08H28.1055V84ZM43.7675 72.8C43.7675 79.456 45.9115 84.256 50.9035 84.256C55.8955 84.256 57.9115 79.456 57.9115 72.8C57.9115 66.176 55.8315 61.344 50.8395 61.344C45.8475 61.344 43.7675 66.176 43.7675 72.8ZM45.5275 72.8C45.5275 66.816 46.9995 62.912 50.8395 62.912C54.7115 62.912 56.1515 66.784 56.1515 72.8C56.1515 78.816 54.7755 82.688 50.9035 82.688C47.0955 82.688 45.5275 78.784 45.5275 72.8ZM75.808 69.632C75.808 65.056 73.44 61.312 68.448 61.312C65.056 61.312 61.536 64.16 61.536 68.352C61.536 72.128 64.192 75.2 68.192 75.2C71.04 75.2 73.024 73.76 73.888 71.776C73.312 78.016 69.536 82.016 64.256 82.976L64.864 84.288C71.072 83.424 75.808 78.016 75.808 69.632ZM74.048 69.632C73.568 71.52 71.712 73.632 68.608 73.632C65.12 73.632 63.296 71.008 63.296 68.224C63.296 65.344 65.76 62.976 68.512 62.976C72.384 62.976 74.048 66.24 74.048 69.632ZM93.3393 69.632C93.3393 65.056 90.9713 61.312 85.9792 61.312C82.5873 61.312 79.0673 64.16 79.0673 68.352C79.0673 72.128 81.7233 75.2 85.7233 75.2C88.5713 75.2 90.5553 73.76 91.4193 71.776C90.8433 78.016 87.0673 82.016 81.7873 82.976L82.3953 84.288C88.6033 83.424 93.3393 78.016 93.3393 69.632ZM91.5793 69.632C91.0993 71.52 89.2433 73.632 86.1393 73.632C82.6513 73.632 80.8273 71.008 80.8273 68.224C80.8273 65.344 83.2913 62.976 86.0433 62.976C89.9153 62.976 91.5793 66.24 91.5793 69.632Z" fill="black"/>
<path d="M97.336 83.062H98.904V84.784H97.336V85.386H98.904V87.5H99.674V85.386H102.208V84.784H99.674V83.062H101.298C103.748 83.062 104.784 81.9 104.784 80.374C104.784 78.918 104.028 77.672 101.298 77.672C100.738 77.672 99.45 77.7 98.904 77.7V82.46H97.336V83.062ZM101.368 78.4C103.216 78.4 103.972 79.142 103.972 80.43C103.972 81.732 103.048 82.46 101.27 82.46H99.674V78.428C100.136 78.414 100.934 78.4 101.368 78.4Z" fill="black"/>
<path d="M97.91 67.6C97.91 70.512 98.848 72.612 101.032 72.612C103.216 72.612 104.098 70.512 104.098 67.6C104.098 64.702 103.188 62.588 101.004 62.588C98.82 62.588 97.91 64.702 97.91 67.6ZM98.68 67.6C98.68 64.982 99.324 63.274 101.004 63.274C102.698 63.274 103.328 64.968 103.328 67.6C103.328 70.232 102.726 71.926 101.032 71.926C99.366 71.926 98.68 70.218 98.68 67.6ZM105.922 67.6C105.922 70.512 106.86 72.612 109.044 72.612C111.228 72.612 112.11 70.512 112.11 67.6C112.11 64.702 111.2 62.588 109.016 62.588C106.832 62.588 105.922 64.702 105.922 67.6ZM106.692 67.6C106.692 64.982 107.336 63.274 109.016 63.274C110.71 63.274 111.34 64.968 111.34 67.6C111.34 70.232 110.738 71.926 109.044 71.926C107.378 71.926 106.692 70.218 106.692 67.6Z" fill="black"/>
<line y1="73.5" x2="115.344" y2="73.5" stroke="black"/>
</svg>
