<svg width="141" height="95" viewBox="0 0 141 95" fill="none" xmlns="http://www.w3.org/2000/svg">
<path d="M1.2 20.92H15.696L4.368 49H10.416L22.32 19.096V15.4H1.2V20.92ZM58.5113 27.688C58.5113 20.2 54.0953 14.872 46.6073 14.872C41.2313 14.872 35.4713 19 35.4713 26.056C35.4713 32.008 39.9353 36.472 45.5993 36.472C48.4313 36.472 50.5913 35.368 51.9833 33.448C50.6393 39.688 46.3672 43.768 39.4553 45.16L41.2793 49.528C50.8793 48.376 58.5113 40.6 58.5113 27.688ZM52.6553 27.64C51.7913 29.464 49.9673 31.288 46.9433 31.288C43.3913 31.288 41.3273 28.6 41.3273 25.672C41.3273 22.984 43.4873 20.392 46.6073 20.392C50.6393 20.392 52.6553 23.8 52.6553 27.64ZM85.1363 27.688C85.1363 20.2 80.7203 14.872 73.2323 14.872C67.8563 14.872 62.0963 19 62.0963 26.056C62.0963 32.008 66.5603 36.472 72.2243 36.472C75.0563 36.472 77.2163 35.368 78.6083 33.448C77.2643 39.688 72.9922 43.768 66.0803 45.16L67.9043 49.528C77.5043 48.376 85.1363 40.6 85.1363 27.688ZM79.2803 27.64C78.4163 29.464 76.5923 31.288 73.5683 31.288C70.0163 31.288 67.9523 28.6 67.9523 25.672C67.9523 22.984 70.1123 20.392 73.2323 20.392C77.2643 20.392 79.2803 23.8 79.2803 27.64ZM111.761 27.688C111.761 20.2 107.345 14.872 99.8573 14.872C94.4813 14.872 88.7213 19 88.7213 26.056C88.7213 32.008 93.1853 36.472 98.8493 36.472C101.681 36.472 103.841 35.368 105.233 33.448C103.889 39.688 99.6172 43.768 92.7053 45.16L94.5293 49.528C104.129 48.376 111.761 40.6 111.761 27.688ZM105.905 27.64C105.041 29.464 103.217 31.288 100.193 31.288C96.6413 31.288 94.5773 28.6 94.5773 25.672C94.5773 22.984 96.7373 20.392 99.8573 20.392C103.889 20.392 105.905 23.8 105.905 27.64Z" fill="#383838"/>
<path d="M124.2 21.62C124.2 18.5 122.36 16.28 119.24 16.28C117 16.28 114.6 18 114.6 20.94C114.6 23.42 116.46 25.28 118.82 25.28C120 25.28 120.9 24.82 121.48 24.02C120.92 26.62 119.14 28.32 116.26 28.9L117.02 30.72C121.02 30.24 124.2 27 124.2 21.62ZM121.76 21.6C121.4 22.36 120.64 23.12 119.38 23.12C117.9 23.12 117.04 22 117.04 20.78C117.04 19.66 117.94 18.58 119.24 18.58C120.92 18.58 121.76 20 121.76 21.6ZM135.294 21.62C135.294 18.5 133.454 16.28 130.334 16.28C128.094 16.28 125.694 18 125.694 20.94C125.694 23.42 127.554 25.28 129.914 25.28C131.094 25.28 131.994 24.82 132.574 24.02C132.014 26.62 130.234 28.32 127.354 28.9L128.114 30.72C132.114 30.24 135.294 27 135.294 21.62ZM132.854 21.6C132.494 22.36 131.734 23.12 130.474 23.12C128.994 23.12 128.134 22 128.134 20.78C128.134 19.66 129.034 18.58 130.334 18.58C132.014 18.58 132.854 20 132.854 21.6Z" fill="#383838"/>
<path d="M114.26 45.54H116.22V47.2H114.26V49.04H116.22V51.5H118.66V49.04H121.94V47.2H118.66V45.54H120.5C123.82 45.54 125.6 43.96 125.6 41.56C125.6 39.26 124.32 37.46 120.18 37.46C119.2 37.46 117 37.5 116.22 37.5V43.7H114.26V45.54ZM120.44 39.76C122.1 39.76 123 40.32 123 41.78C123 43.2 121.86 43.7 120.42 43.7H118.66V39.8C119.32 39.78 119.94 39.76 120.44 39.76Z" fill="#383838"/>
<path d="M1.44 65.472L2.336 66.816L6.016 63.84V84H7.68V61.408H6.528L1.44 65.472ZM13.6343 76.064C13.6343 80.448 16.2263 84.288 21.2183 84.288C24.6423 84.288 27.8743 81.376 27.8743 77.184C27.8743 73.12 25.2503 70.272 21.3783 70.272C18.4023 70.272 16.4503 71.936 15.5543 73.92C16.4503 67.424 20.8663 63.584 25.1223 62.56L24.4183 61.312C19.4583 62.4 13.6343 67.84 13.6343 76.064ZM15.3943 76.064C15.9062 74.176 17.7303 71.84 20.8663 71.84C24.3223 71.84 26.1143 74.304 26.1143 77.312C26.1143 80.192 23.9383 82.624 21.1863 82.624C17.2823 82.624 15.3943 79.456 15.3943 76.064ZM40.6473 72.352C41.4793 72.032 42.7913 71.776 44.0393 71.776C47.6553 71.776 50.0233 74.08 50.0233 77.12C50.0233 80.32 47.7833 82.624 44.8713 82.624C42.9193 82.624 40.6473 81.632 39.4633 79.552L38.4713 80.736C39.8473 83.232 42.4393 84.288 44.8393 84.288C48.5513 84.288 51.7833 81.568 51.7833 77.056C51.7833 72.928 48.8073 70.272 44.7113 70.272C43.8793 70.272 43.0473 70.4 42.5033 70.56L43.4633 63.264H51.7513V61.6H42.0233L40.6473 72.352ZM69.4018 69.632C69.4018 65.056 67.0338 61.312 62.0417 61.312C58.6498 61.312 55.1298 64.16 55.1298 68.352C55.1298 72.128 57.7858 75.2 61.7858 75.2C64.6338 75.2 66.6178 73.76 67.4818 71.776C66.9058 78.016 63.1298 82.016 57.8498 82.976L58.4578 84.288C64.6658 83.424 69.4018 78.016 69.4018 69.632ZM67.6418 69.632C67.1618 71.52 65.3058 73.632 62.2018 73.632C58.7138 73.632 56.8898 71.008 56.8898 68.224C56.8898 65.344 59.3538 62.976 62.1058 62.976C65.9778 62.976 67.6418 66.24 67.6418 69.632ZM86.933 69.632C86.933 65.056 84.565 61.312 79.573 61.312C76.181 61.312 72.661 64.16 72.661 68.352C72.661 72.128 75.317 75.2 79.317 75.2C82.165 75.2 84.149 73.76 85.013 71.776C84.437 78.016 80.661 82.016 75.381 82.976L75.989 84.288C82.197 83.424 86.933 78.016 86.933 69.632ZM85.173 69.632C84.693 71.52 82.837 73.632 79.733 73.632C76.245 73.632 74.421 71.008 74.421 68.224C74.421 65.344 76.885 62.976 79.637 62.976C83.509 62.976 85.173 66.24 85.173 69.632Z" fill="black"/>
<path d="M90.336 83.062H91.904V84.784H90.336V85.386H91.904V87.5H92.674V85.386H95.208V84.784H92.674V83.062H94.298C96.748 83.062 97.784 81.9 97.784 80.374C97.784 78.918 97.028 77.672 94.298 77.672C93.738 77.672 92.45 77.7 91.904 77.7V82.46H90.336V83.062ZM94.368 78.4C96.216 78.4 96.972 79.142 96.972 80.43C96.972 81.732 96.048 82.46 94.27 82.46H92.674V78.428C93.136 78.414 93.934 78.4 94.368 78.4Z" fill="black"/>
<path d="M90.91 67.6C90.91 70.512 91.848 72.612 94.032 72.612C96.216 72.612 97.098 70.512 97.098 67.6C97.098 64.702 96.188 62.588 94.004 62.588C91.82 62.588 90.91 64.702 90.91 67.6ZM91.68 67.6C91.68 64.982 92.324 63.274 94.004 63.274C95.698 63.274 96.328 64.968 96.328 67.6C96.328 70.232 95.726 71.926 94.032 71.926C92.366 71.926 91.68 70.218 91.68 67.6ZM98.9217 67.6C98.9217 70.512 99.8597 72.612 102.044 72.612C104.228 72.612 105.11 70.512 105.11 67.6C105.11 64.702 104.2 62.588 102.016 62.588C99.8317 62.588 98.9217 64.702 98.9217 67.6ZM99.6917 67.6C99.6917 64.982 100.336 63.274 102.016 63.274C103.71 63.274 104.34 64.968 104.34 67.6C104.34 70.232 103.738 71.926 102.044 71.926C100.378 71.926 99.6917 70.218 99.6917 67.6Z" fill="black"/>
<line y1="73.5" x2="92.0816" y2="73.5" stroke="black"/>
</svg>
