<svg width="141" height="95" viewBox="0 0 141 95" fill="none" xmlns="http://www.w3.org/2000/svg">
<path d="M1.2 20.92H15.696L4.368 49H10.416L22.32 19.096V15.4H1.2V20.92ZM48.3394 27.688C48.3394 20.2 43.9234 14.872 36.4354 14.872C31.0594 14.872 25.2994 19 25.2994 26.056C25.2994 32.008 29.7634 36.472 35.4274 36.472C38.2594 36.472 40.4194 35.368 41.8114 33.448C40.4674 39.688 36.1954 43.768 29.2834 45.16L31.1074 49.528C40.7074 48.376 48.3394 40.6 48.3394 27.688ZM42.4834 27.64C41.6194 29.464 39.7954 31.288 36.7714 31.288C33.2194 31.288 31.1554 28.6 31.1554 25.672C31.1554 22.984 33.3154 20.392 36.4354 20.392C40.4674 20.392 42.4834 23.8 42.4834 27.64ZM74.9644 27.688C74.9644 20.2 70.5484 14.872 63.0604 14.872C57.6844 14.872 51.9244 19 51.9244 26.056C51.9244 32.008 56.3884 36.472 62.0524 36.472C64.8844 36.472 67.0444 35.368 68.4364 33.448C67.0924 39.688 62.8204 43.768 55.9084 45.16L57.7324 49.528C67.3324 48.376 74.9644 40.6 74.9644 27.688ZM69.1084 27.64C68.2444 29.464 66.4204 31.288 63.3964 31.288C59.8444 31.288 57.7804 28.6 57.7804 25.672C57.7804 22.984 59.9404 20.392 63.0604 20.392C67.0924 20.392 69.1084 23.8 69.1084 27.64Z" fill="#383838"/>
<path d="M88.2 21.62C88.2 18.5 86.36 16.28 83.24 16.28C81 16.28 78.6 18 78.6 20.94C78.6 23.42 80.46 25.28 82.82 25.28C84 25.28 84.9 24.82 85.48 24.02C84.92 26.62 83.14 28.32 80.26 28.9L81.02 30.72C85.02 30.24 88.2 27 88.2 21.62ZM85.76 21.6C85.4 22.36 84.64 23.12 83.38 23.12C81.9 23.12 81.04 22 81.04 20.78C81.04 19.66 81.94 18.58 83.24 18.58C84.92 18.58 85.76 20 85.76 21.6ZM99.2938 21.62C99.2938 18.5 97.4538 16.28 94.3338 16.28C92.0938 16.28 89.6938 18 89.6938 20.94C89.6938 23.42 91.5538 25.28 93.9138 25.28C95.0938 25.28 95.9938 24.82 96.5738 24.02C96.0138 26.62 94.2337 28.32 91.3538 28.9L92.1138 30.72C96.1138 30.24 99.2938 27 99.2938 21.62ZM96.8538 21.6C96.4938 22.36 95.7338 23.12 94.4738 23.12C92.9938 23.12 92.1338 22 92.1338 20.78C92.1338 19.66 93.0338 18.58 94.3338 18.58C96.0138 18.58 96.8538 20 96.8538 21.6Z" fill="#383838"/>
<path d="M78.26 45.54H80.22V47.2H78.26V49.04H80.22V51.5H82.66V49.04H85.94V47.2H82.66V45.54H84.5C87.82 45.54 89.6 43.96 89.6 41.56C89.6 39.26 88.32 37.46 84.18 37.46C83.2 37.46 81 37.5 80.22 37.5V43.7H78.26V45.54ZM84.44 39.76C86.1 39.76 87 40.32 87 41.78C87 43.2 85.86 43.7 84.42 43.7H82.66V39.8C83.32 39.78 83.94 39.76 84.44 39.76Z" fill="#383838"/>
<path d="M1.44 65.472L2.336 66.816L6.016 63.84V84H7.68V61.408H6.528L1.44 65.472ZM35.2455 69.632C35.2455 65.056 32.8775 61.312 27.8855 61.312C24.4935 61.312 20.9735 64.16 20.9735 68.352C20.9735 72.128 23.6295 75.2 27.6295 75.2C30.4775 75.2 32.4615 73.76 33.3255 71.776C32.7495 78.016 28.9735 82.016 23.6935 82.976L24.3015 84.288C30.5095 83.424 35.2455 78.016 35.2455 69.632ZM33.4855 69.632C33.0055 71.52 31.1495 73.632 28.0455 73.632C24.5575 73.632 22.7335 71.008 22.7335 68.224C22.7335 65.344 25.1975 62.976 27.9495 62.976C31.8215 62.976 33.4855 66.24 33.4855 69.632ZM52.7768 69.632C52.7768 65.056 50.4088 61.312 45.4167 61.312C42.0248 61.312 38.5048 64.16 38.5048 68.352C38.5048 72.128 41.1608 75.2 45.1608 75.2C48.0088 75.2 49.9928 73.76 50.8568 71.776C50.2808 78.016 46.5048 82.016 41.2248 82.976L41.8328 84.288C48.0408 83.424 52.7768 78.016 52.7768 69.632ZM51.0168 69.632C50.5368 71.52 48.6808 73.632 45.5768 73.632C42.0888 73.632 40.2648 71.008 40.2648 68.224C40.2648 65.344 42.7288 62.976 45.4808 62.976C49.3528 62.976 51.0168 66.24 51.0168 69.632ZM70.308 69.632C70.308 65.056 67.94 61.312 62.948 61.312C59.556 61.312 56.036 64.16 56.036 68.352C56.036 72.128 58.692 75.2 62.692 75.2C65.54 75.2 67.524 73.76 68.388 71.776C67.812 78.016 64.036 82.016 58.756 82.976L59.364 84.288C65.572 83.424 70.308 78.016 70.308 69.632ZM68.548 69.632C68.068 71.52 66.212 73.632 63.108 73.632C59.62 73.632 57.796 71.008 57.796 68.224C57.796 65.344 60.26 62.976 63.012 62.976C66.884 62.976 68.548 66.24 68.548 69.632Z" fill="black"/>
<path d="M74.336 83.062H75.904V84.784H74.336V85.386H75.904V87.5H76.674V85.386H79.208V84.784H76.674V83.062H78.298C80.748 83.062 81.784 81.9 81.784 80.374C81.784 78.918 81.028 77.672 78.298 77.672C77.738 77.672 76.45 77.7 75.904 77.7V82.46H74.336V83.062ZM78.368 78.4C80.216 78.4 80.972 79.142 80.972 80.43C80.972 81.732 80.048 82.46 78.27 82.46H76.674V78.428C77.136 78.414 77.934 78.4 78.368 78.4Z" fill="black"/>
<path d="M74.91 67.6C74.91 70.512 75.848 72.612 78.032 72.612C80.216 72.612 81.098 70.512 81.098 67.6C81.098 64.702 80.188 62.588 78.004 62.588C75.82 62.588 74.91 64.702 74.91 67.6ZM75.68 67.6C75.68 64.982 76.324 63.274 78.004 63.274C79.698 63.274 80.328 64.968 80.328 67.6C80.328 70.232 79.726 71.926 78.032 71.926C76.366 71.926 75.68 70.218 75.68 67.6ZM82.9217 67.6C82.9217 70.512 83.8597 72.612 86.0437 72.612C88.2277 72.612 89.1097 70.512 89.1097 67.6C89.1097 64.702 88.1997 62.588 86.0157 62.588C83.8317 62.588 82.9217 64.702 82.9217 67.6ZM83.6917 67.6C83.6917 64.982 84.3357 63.274 86.0157 63.274C87.7097 63.274 88.3397 64.968 88.3397 67.6C88.3397 70.232 87.7377 71.926 86.0437 71.926C84.3777 71.926 83.6917 70.218 83.6917 67.6Z" fill="black"/>
<line y1="73.5" x2="92.0816" y2="73.5" stroke="black"/>
</svg>
