<svg width="141" height="95" viewBox="0 0 141 95" fill="none" xmlns="http://www.w3.org/2000/svg">
<path d="M1.776 49H22.896V43.864H8.928C11.568 41.704 21.6 33.208 21.6 23.8C21.6 19.336 18.48 15.016 12.096 15.016C6.768 15.016 2.928 18.088 2.016 22.984L6.624 25.048C7.344 22.216 9.072 20.536 11.472 20.536C14.256 20.536 15.744 22.216 15.744 24.904C15.744 31.432 7.248 39.208 1.776 44.584V49ZM59.8238 27.688C59.8238 20.2 55.4078 14.872 47.9198 14.872C42.5438 14.872 36.7838 19 36.7838 26.056C36.7838 32.008 41.2478 36.472 46.9118 36.472C49.7438 36.472 51.9038 35.368 53.2958 33.448C51.9518 39.688 47.6797 43.768 40.7678 45.16L42.5918 49.528C52.1918 48.376 59.8238 40.6 59.8238 27.688ZM53.9678 27.64C53.1038 29.464 51.2798 31.288 48.2558 31.288C44.7038 31.288 42.6398 28.6 42.6398 25.672C42.6398 22.984 44.7998 20.392 47.9198 20.392C51.9518 20.392 53.9678 23.8 53.9678 27.64ZM86.4488 27.688C86.4488 20.2 82.0328 14.872 74.5448 14.872C69.1688 14.872 63.4088 19 63.4088 26.056C63.4088 32.008 67.8728 36.472 73.5368 36.472C76.3688 36.472 78.5288 35.368 79.9208 33.448C78.5768 39.688 74.3047 43.768 67.3928 45.16L69.2168 49.528C78.8168 48.376 86.4488 40.6 86.4488 27.688ZM80.5928 27.64C79.7288 29.464 77.9048 31.288 74.8808 31.288C71.3288 31.288 69.2648 28.6 69.2648 25.672C69.2648 22.984 71.4248 20.392 74.5448 20.392C78.5768 20.392 80.5928 23.8 80.5928 27.64ZM113.074 27.688C113.074 20.2 108.658 14.872 101.17 14.872C95.7938 14.872 90.0338 19 90.0338 26.056C90.0338 32.008 94.4978 36.472 100.162 36.472C102.994 36.472 105.154 35.368 106.546 33.448C105.202 39.688 100.93 43.768 94.0178 45.16L95.8418 49.528C105.442 48.376 113.074 40.6 113.074 27.688ZM107.218 27.64C106.354 29.464 104.53 31.288 101.506 31.288C97.9538 31.288 95.8898 28.6 95.8898 25.672C95.8898 22.984 98.0498 20.392 101.17 20.392C105.202 20.392 107.218 23.8 107.218 27.64Z" fill="#383838"/>
<path d="M126.2 21.62C126.2 18.5 124.36 16.28 121.24 16.28C119 16.28 116.6 18 116.6 20.94C116.6 23.42 118.46 25.28 120.82 25.28C122 25.28 122.9 24.82 123.48 24.02C122.92 26.62 121.14 28.32 118.26 28.9L119.02 30.72C123.02 30.24 126.2 27 126.2 21.62ZM123.76 21.6C123.4 22.36 122.64 23.12 121.38 23.12C119.9 23.12 119.04 22 119.04 20.78C119.04 19.66 119.94 18.58 121.24 18.58C122.92 18.58 123.76 20 123.76 21.6ZM137.294 21.62C137.294 18.5 135.454 16.28 132.334 16.28C130.094 16.28 127.694 18 127.694 20.94C127.694 23.42 129.554 25.28 131.914 25.28C133.094 25.28 133.994 24.82 134.574 24.02C134.014 26.62 132.234 28.32 129.354 28.9L130.114 30.72C134.114 30.24 137.294 27 137.294 21.62ZM134.854 21.6C134.494 22.36 133.734 23.12 132.474 23.12C130.994 23.12 130.134 22 130.134 20.78C130.134 19.66 131.034 18.58 132.334 18.58C134.014 18.58 134.854 20 134.854 21.6Z" fill="#383838"/>
<path d="M116.26 45.54H118.22V47.2H116.26V49.04H118.22V51.5H120.66V49.04H123.94V47.2H120.66V45.54H122.5C125.82 45.54 127.6 43.96 127.6 41.56C127.6 39.26 126.32 37.46 122.18 37.46C121.2 37.46 119 37.5 118.22 37.5V43.7H116.26V45.54ZM122.44 39.76C124.1 39.76 125 40.32 125 41.78C125 43.2 123.86 43.7 122.42 43.7H120.66V39.8C121.32 39.78 121.94 39.76 122.44 39.76Z" fill="#383838"/>
<path d="M3.616 72.352C4.448 72.032 5.76 71.776 7.008 71.776C10.624 71.776 12.992 74.08 12.992 77.12C12.992 80.32 10.752 82.624 7.84 82.624C5.888 82.624 3.616 81.632 2.432 79.552L1.44 80.736C2.816 83.232 5.408 84.288 7.808 84.288C11.52 84.288 14.752 81.568 14.752 77.056C14.752 72.928 11.776 70.272 7.68 70.272C6.848 70.272 6.016 70.4 5.472 70.56L6.432 63.264H14.72V61.6H4.992L3.616 72.352ZM39.9018 69.632C39.9018 65.056 37.5338 61.312 32.5417 61.312C29.1498 61.312 25.6298 64.16 25.6298 68.352C25.6298 72.128 28.2858 75.2 32.2858 75.2C35.1338 75.2 37.1178 73.76 37.9818 71.776C37.4058 78.016 33.6298 82.016 28.3498 82.976L28.9578 84.288C35.1658 83.424 39.9018 78.016 39.9018 69.632ZM38.1418 69.632C37.6618 71.52 35.8058 73.632 32.7018 73.632C29.2138 73.632 27.3898 71.008 27.3898 68.224C27.3898 65.344 29.8538 62.976 32.6058 62.976C36.4778 62.976 38.1418 66.24 38.1418 69.632ZM57.433 69.632C57.433 65.056 55.065 61.312 50.073 61.312C46.681 61.312 43.161 64.16 43.161 68.352C43.161 72.128 45.817 75.2 49.817 75.2C52.665 75.2 54.649 73.76 55.513 71.776C54.937 78.016 51.161 82.016 45.881 82.976L46.489 84.288C52.697 83.424 57.433 78.016 57.433 69.632ZM55.673 69.632C55.193 71.52 53.337 73.632 50.233 73.632C46.745 73.632 44.921 71.008 44.921 68.224C44.921 65.344 47.385 62.976 50.137 62.976C54.009 62.976 55.673 66.24 55.673 69.632ZM74.9643 69.632C74.9643 65.056 72.5963 61.312 67.6042 61.312C64.2123 61.312 60.6923 64.16 60.6923 68.352C60.6923 72.128 63.3483 75.2 67.3483 75.2C70.1963 75.2 72.1803 73.76 73.0443 71.776C72.4683 78.016 68.6923 82.016 63.4123 82.976L64.0203 84.288C70.2283 83.424 74.9643 78.016 74.9643 69.632ZM73.2043 69.632C72.7243 71.52 70.8683 73.632 67.7643 73.632C64.2763 73.632 62.4523 71.008 62.4523 68.224C62.4523 65.344 64.9163 62.976 67.6683 62.976C71.5403 62.976 73.2043 66.24 73.2043 69.632Z" fill="black"/>
<path d="M78.336 83.062H79.904V84.784H78.336V85.386H79.904V87.5H80.674V85.386H83.208V84.784H80.674V83.062H82.298C84.748 83.062 85.784 81.9 85.784 80.374C85.784 78.918 85.028 77.672 82.298 77.672C81.738 77.672 80.45 77.7 79.904 77.7V82.46H78.336V83.062ZM82.368 78.4C84.216 78.4 84.972 79.142 84.972 80.43C84.972 81.732 84.048 82.46 82.27 82.46H80.674V78.428C81.136 78.414 81.934 78.4 82.368 78.4Z" fill="black"/>
<path d="M78.91 67.6C78.91 70.512 79.848 72.612 82.032 72.612C84.216 72.612 85.098 70.512 85.098 67.6C85.098 64.702 84.188 62.588 82.004 62.588C79.82 62.588 78.91 64.702 78.91 67.6ZM79.68 67.6C79.68 64.982 80.324 63.274 82.004 63.274C83.698 63.274 84.328 64.968 84.328 67.6C84.328 70.232 83.726 71.926 82.032 71.926C80.366 71.926 79.68 70.218 79.68 67.6ZM86.9217 67.6C86.9217 70.512 87.8597 72.612 90.0437 72.612C92.2277 72.612 93.1097 70.512 93.1097 67.6C93.1097 64.702 92.1997 62.588 90.0157 62.588C87.8317 62.588 86.9217 64.702 86.9217 67.6ZM87.6917 67.6C87.6917 64.982 88.3357 63.274 90.0157 63.274C91.7097 63.274 92.3397 64.968 92.3397 67.6C92.3397 70.232 91.7377 71.926 90.0437 71.926C88.3777 71.926 87.6917 70.218 87.6917 67.6Z" fill="black"/>
<line y1="73.5" x2="92.0816" y2="73.5" stroke="black"/>
</svg>
