<svg width="141" height="95" viewBox="0 0 141 95" fill="none" xmlns="http://www.w3.org/2000/svg">
<path d="M1.056 21.736L3.984 26.296L8.112 23.176V49H13.632V15.304H9.648L1.056 21.736ZM32.7161 33.256C33.7241 32.824 36.0761 32.392 38.2361 32.392C42.7481 32.392 45.3881 34.984 45.3881 38.344C45.3881 41.656 43.0841 44.008 39.8681 44.008C37.3241 44.008 34.4921 42.664 33.0521 40.552L29.8841 44.728C31.9481 47.896 36.1241 49.528 39.7241 49.528C46.1081 49.528 51.2921 45.352 51.2921 38.104C51.2921 31.48 46.6841 27.4 40.7321 27.4C40.0601 27.4 39.3401 27.496 38.8121 27.592L39.7721 20.92H50.8121V15.4H34.9241L32.7161 33.256ZM77.9644 27.688C77.9644 20.2 73.5484 14.872 66.0604 14.872C60.6844 14.872 54.9244 19 54.9244 26.056C54.9244 32.008 59.3884 36.472 65.0524 36.472C67.8844 36.472 70.0444 35.368 71.4364 33.448C70.0924 39.688 65.8204 43.768 58.9084 45.16L60.7324 49.528C70.3324 48.376 77.9644 40.6 77.9644 27.688ZM72.1084 27.64C71.2444 29.464 69.4204 31.288 66.3964 31.288C62.8444 31.288 60.7804 28.6 60.7804 25.672C60.7804 22.984 62.9404 20.392 66.0604 20.392C70.0924 20.392 72.1084 23.8 72.1084 27.64ZM104.589 27.688C104.589 20.2 100.173 14.872 92.6854 14.872C87.3094 14.872 81.5494 19 81.5494 26.056C81.5494 32.008 86.0134 36.472 91.6774 36.472C94.5094 36.472 96.6694 35.368 98.0614 33.448C96.7174 39.688 92.4454 43.768 85.5334 45.16L87.3574 49.528C96.9574 48.376 104.589 40.6 104.589 27.688ZM98.7334 27.64C97.8694 29.464 96.0454 31.288 93.0214 31.288C89.4694 31.288 87.4054 28.6 87.4054 25.672C87.4054 22.984 89.5654 20.392 92.6854 20.392C96.7174 20.392 98.7334 23.8 98.7334 27.64Z" fill="#383838"/>
<path d="M117.2 21.62C117.2 18.5 115.36 16.28 112.24 16.28C110 16.28 107.6 18 107.6 20.94C107.6 23.42 109.46 25.28 111.82 25.28C113 25.28 113.9 24.82 114.48 24.02C113.92 26.62 112.14 28.32 109.26 28.9L110.02 30.72C114.02 30.24 117.2 27 117.2 21.62ZM114.76 21.6C114.4 22.36 113.64 23.12 112.38 23.12C110.9 23.12 110.04 22 110.04 20.78C110.04 19.66 110.94 18.58 112.24 18.58C113.92 18.58 114.76 20 114.76 21.6ZM128.294 21.62C128.294 18.5 126.454 16.28 123.334 16.28C121.094 16.28 118.694 18 118.694 20.94C118.694 23.42 120.554 25.28 122.914 25.28C124.094 25.28 124.994 24.82 125.574 24.02C125.014 26.62 123.234 28.32 120.354 28.9L121.114 30.72C125.114 30.24 128.294 27 128.294 21.62ZM125.854 21.6C125.494 22.36 124.734 23.12 123.474 23.12C121.994 23.12 121.134 22 121.134 20.78C121.134 19.66 122.034 18.58 123.334 18.58C125.014 18.58 125.854 20 125.854 21.6Z" fill="#383838"/>
<path d="M107.26 45.54H109.22V47.2H107.26V49.04H109.22V51.5H111.66V49.04H114.94V47.2H111.66V45.54H113.5C116.82 45.54 118.6 43.96 118.6 41.56C118.6 39.26 117.32 37.46 113.18 37.46C112.2 37.46 110 37.5 109.22 37.5V43.7H107.26V45.54ZM113.44 39.76C115.1 39.76 116 40.32 116 41.78C116 43.2 114.86 43.7 113.42 43.7H111.66V39.8C112.32 39.78 112.94 39.76 113.44 39.76Z" fill="#383838"/>
<path d="M7.968 84.288C11.872 84.288 14.784 81.824 14.784 77.888C14.784 75.296 13.184 72.864 10.368 72.448V72.352C12.672 71.424 13.92 69.28 13.92 66.944C13.92 63.424 11.648 61.312 8 61.312C5.152 61.312 2.912 62.656 2.016 64.992L3.008 66.048C3.872 64.224 5.344 62.976 7.872 62.976C10.464 62.976 12.16 64.448 12.16 67.168C12.16 69.792 10.08 71.712 7.968 71.712H6.24V73.376H8.16C10.944 73.376 13.024 75.168 13.024 77.824C13.024 80.544 11.104 82.624 7.968 82.624C5.824 82.624 3.584 81.664 2.432 79.264L1.44 80.416C2.592 83.104 5.12 84.288 7.968 84.288ZM40.4018 69.632C40.4018 65.056 38.0338 61.312 33.0417 61.312C29.6498 61.312 26.1298 64.16 26.1298 68.352C26.1298 72.128 28.7858 75.2 32.7858 75.2C35.6338 75.2 37.6178 73.76 38.4818 71.776C37.9058 78.016 34.1298 82.016 28.8498 82.976L29.4578 84.288C35.6658 83.424 40.4018 78.016 40.4018 69.632ZM38.6418 69.632C38.1618 71.52 36.3058 73.632 33.2018 73.632C29.7138 73.632 27.8898 71.008 27.8898 68.224C27.8898 65.344 30.3538 62.976 33.1058 62.976C36.9778 62.976 38.6418 66.24 38.6418 69.632ZM57.933 69.632C57.933 65.056 55.565 61.312 50.573 61.312C47.181 61.312 43.661 64.16 43.661 68.352C43.661 72.128 46.317 75.2 50.317 75.2C53.165 75.2 55.149 73.76 56.013 71.776C55.437 78.016 51.661 82.016 46.381 82.976L46.989 84.288C53.197 83.424 57.933 78.016 57.933 69.632ZM56.173 69.632C55.693 71.52 53.837 73.632 50.733 73.632C47.245 73.632 45.421 71.008 45.421 68.224C45.421 65.344 47.885 62.976 50.637 62.976C54.509 62.976 56.173 66.24 56.173 69.632ZM75.4643 69.632C75.4643 65.056 73.0963 61.312 68.1042 61.312C64.7123 61.312 61.1923 64.16 61.1923 68.352C61.1923 72.128 63.8483 75.2 67.8483 75.2C70.6963 75.2 72.6803 73.76 73.5443 71.776C72.9683 78.016 69.1923 82.016 63.9123 82.976L64.5203 84.288C70.7283 83.424 75.4643 78.016 75.4643 69.632ZM73.7043 69.632C73.2243 71.52 71.3683 73.632 68.2643 73.632C64.7763 73.632 62.9523 71.008 62.9523 68.224C62.9523 65.344 65.4163 62.976 68.1683 62.976C72.0403 62.976 73.7043 66.24 73.7043 69.632Z" fill="black"/>
<path d="M79.336 83.062H80.904V84.784H79.336V85.386H80.904V87.5H81.674V85.386H84.208V84.784H81.674V83.062H83.298C85.748 83.062 86.784 81.9 86.784 80.374C86.784 78.918 86.028 77.672 83.298 77.672C82.738 77.672 81.45 77.7 80.904 77.7V82.46H79.336V83.062ZM83.368 78.4C85.216 78.4 85.972 79.142 85.972 80.43C85.972 81.732 85.048 82.46 83.27 82.46H81.674V78.428C82.136 78.414 82.934 78.4 83.368 78.4Z" fill="black"/>
<path d="M79.91 67.6C79.91 70.512 80.848 72.612 83.032 72.612C85.216 72.612 86.098 70.512 86.098 67.6C86.098 64.702 85.188 62.588 83.004 62.588C80.82 62.588 79.91 64.702 79.91 67.6ZM80.68 67.6C80.68 64.982 81.324 63.274 83.004 63.274C84.698 63.274 85.328 64.968 85.328 67.6C85.328 70.232 84.726 71.926 83.032 71.926C81.366 71.926 80.68 70.218 80.68 67.6ZM87.9217 67.6C87.9217 70.512 88.8597 72.612 91.0437 72.612C93.2277 72.612 94.1097 70.512 94.1097 67.6C94.1097 64.702 93.1997 62.588 91.0157 62.588C88.8317 62.588 87.9217 64.702 87.9217 67.6ZM88.6917 67.6C88.6917 64.982 89.3357 63.274 91.0157 63.274C92.7097 63.274 93.3397 64.968 93.3397 67.6C93.3397 70.232 92.7377 71.926 91.0437 71.926C89.3777 71.926 88.6917 70.218 88.6917 67.6Z" fill="black"/>
<line y1="73.5" x2="92.0816" y2="73.5" stroke="black"/>
</svg>
