<svg width="141" height="95" viewBox="0 0 141 95" fill="none" xmlns="http://www.w3.org/2000/svg">
<path d="M2.16 37.096C2.16 43.864 6.672 49.528 14.16 49.528C19.536 49.528 25.008 45.544 25.008 38.488C25.008 32.344 20.736 28.216 15.6 28.216C12.24 28.216 10.08 29.416 8.688 31.336C10.416 24.856 15.456 20.68 20.928 19.048L18.672 14.872C11.328 16.696 2.16 24.76 2.16 37.096ZM8.016 37.144C8.88 35.32 10.704 33.352 13.728 33.352C17.28 33.352 19.152 35.8 19.152 38.872C19.152 41.56 17.28 44.008 14.208 44.008C10.176 44.008 8.016 40.984 8.016 37.144ZM61.4644 27.688C61.4644 20.2 57.0484 14.872 49.5604 14.872C44.1844 14.872 38.4244 19 38.4244 26.056C38.4244 32.008 42.8884 36.472 48.5524 36.472C51.3844 36.472 53.5444 35.368 54.9364 33.448C53.5924 39.688 49.3204 43.768 42.4084 45.16L44.2324 49.528C53.8324 48.376 61.4644 40.6 61.4644 27.688ZM55.6084 27.64C54.7444 29.464 52.9204 31.288 49.8964 31.288C46.3444 31.288 44.2804 28.6 44.2804 25.672C44.2804 22.984 46.4404 20.392 49.5604 20.392C53.5924 20.392 55.6084 23.8 55.6084 27.64ZM88.0894 27.688C88.0894 20.2 83.6734 14.872 76.1854 14.872C70.8094 14.872 65.0494 19 65.0494 26.056C65.0494 32.008 69.5134 36.472 75.1774 36.472C78.0094 36.472 80.1694 35.368 81.5614 33.448C80.2174 39.688 75.9454 43.768 69.0334 45.16L70.8574 49.528C80.4574 48.376 88.0894 40.6 88.0894 27.688ZM82.2334 27.64C81.3694 29.464 79.5454 31.288 76.5214 31.288C72.9694 31.288 70.9054 28.6 70.9054 25.672C70.9054 22.984 73.0654 20.392 76.1854 20.392C80.2174 20.392 82.2334 23.8 82.2334 27.64ZM114.714 27.688C114.714 20.2 110.298 14.872 102.81 14.872C97.4344 14.872 91.6744 19 91.6744 26.056C91.6744 32.008 96.1384 36.472 101.802 36.472C104.634 36.472 106.794 35.368 108.186 33.448C106.842 39.688 102.57 43.768 95.6584 45.16L97.4824 49.528C107.082 48.376 114.714 40.6 114.714 27.688ZM108.858 27.64C107.994 29.464 106.17 31.288 103.146 31.288C99.5944 31.288 97.5304 28.6 97.5304 25.672C97.5304 22.984 99.6904 20.392 102.81 20.392C106.842 20.392 108.858 23.8 108.858 27.64Z" fill="#383838"/>
<path d="M127.2 21.62C127.2 18.5 125.36 16.28 122.24 16.28C120 16.28 117.6 18 117.6 20.94C117.6 23.42 119.46 25.28 121.82 25.28C123 25.28 123.9 24.82 124.48 24.02C123.92 26.62 122.14 28.32 119.26 28.9L120.02 30.72C124.02 30.24 127.2 27 127.2 21.62ZM124.76 21.6C124.4 22.36 123.64 23.12 122.38 23.12C120.9 23.12 120.04 22 120.04 20.78C120.04 19.66 120.94 18.58 122.24 18.58C123.92 18.58 124.76 20 124.76 21.6ZM138.294 21.62C138.294 18.5 136.454 16.28 133.334 16.28C131.094 16.28 128.694 18 128.694 20.94C128.694 23.42 130.554 25.28 132.914 25.28C134.094 25.28 134.994 24.82 135.574 24.02C135.014 26.62 133.234 28.32 130.354 28.9L131.114 30.72C135.114 30.24 138.294 27 138.294 21.62ZM135.854 21.6C135.494 22.36 134.734 23.12 133.474 23.12C131.994 23.12 131.134 22 131.134 20.78C131.134 19.66 132.034 18.58 133.334 18.58C135.014 18.58 135.854 20 135.854 21.6Z" fill="#383838"/>
<path d="M117.26 45.54H119.22V47.2H117.26V49.04H119.22V51.5H121.66V49.04H124.94V47.2H121.66V45.54H123.5C126.82 45.54 128.6 43.96 128.6 41.56C128.6 39.26 127.32 37.46 123.18 37.46C122.2 37.46 120 37.5 119.22 37.5V43.7H117.26V45.54ZM123.44 39.76C125.1 39.76 126 40.32 126 41.78C126 43.2 124.86 43.7 123.42 43.7H121.66V39.8C122.32 39.78 122.94 39.76 123.44 39.76Z" fill="#383838"/>
<path d="M1.44 65.472L2.336 66.816L6.016 63.84V84H7.68V61.408H6.528L1.44 65.472ZM19.8743 84.288C23.7783 84.288 26.6903 81.824 26.6903 77.888C26.6903 75.296 25.0903 72.864 22.2743 72.448V72.352C24.5783 71.424 25.8263 69.28 25.8263 66.944C25.8263 63.424 23.5543 61.312 19.9062 61.312C17.0583 61.312 14.8183 62.656 13.9223 64.992L14.9143 66.048C15.7783 64.224 17.2503 62.976 19.7783 62.976C22.3703 62.976 24.0663 64.448 24.0663 67.168C24.0663 69.792 21.9863 71.712 19.8743 71.712H18.1463V73.376H20.0663C22.8503 73.376 24.9303 75.168 24.9303 77.824C24.9303 80.544 23.0103 82.624 19.8743 82.624C17.7303 82.624 15.4903 81.664 14.3383 79.264L13.3463 80.416C14.4983 83.104 17.0263 84.288 19.8743 84.288ZM40.116 72.352C40.948 72.032 42.26 71.776 43.508 71.776C47.124 71.776 49.492 74.08 49.492 77.12C49.492 80.32 47.252 82.624 44.34 82.624C42.388 82.624 40.116 81.632 38.932 79.552L37.94 80.736C39.316 83.232 41.908 84.288 44.308 84.288C48.02 84.288 51.252 81.568 51.252 77.056C51.252 72.928 48.276 70.272 44.18 70.272C43.348 70.272 42.516 70.4 41.972 70.56L42.932 63.264H51.22V61.6H41.492L40.116 72.352ZM68.8705 69.632C68.8705 65.056 66.5025 61.312 61.5105 61.312C58.1185 61.312 54.5985 64.16 54.5985 68.352C54.5985 72.128 57.2545 75.2 61.2545 75.2C64.1025 75.2 66.0865 73.76 66.9505 71.776C66.3745 78.016 62.5985 82.016 57.3185 82.976L57.9265 84.288C64.1345 83.424 68.8705 78.016 68.8705 69.632ZM67.1105 69.632C66.6305 71.52 64.7745 73.632 61.6705 73.632C58.1825 73.632 56.3585 71.008 56.3585 68.224C56.3585 65.344 58.8225 62.976 61.5745 62.976C65.4465 62.976 67.1105 66.24 67.1105 69.632ZM86.4018 69.632C86.4018 65.056 84.0338 61.312 79.0417 61.312C75.6498 61.312 72.1298 64.16 72.1298 68.352C72.1298 72.128 74.7858 75.2 78.7858 75.2C81.6338 75.2 83.6178 73.76 84.4818 71.776C83.9058 78.016 80.1298 82.016 74.8498 82.976L75.4578 84.288C81.6658 83.424 86.4018 78.016 86.4018 69.632ZM84.6418 69.632C84.1618 71.52 82.3058 73.632 79.2018 73.632C75.7138 73.632 73.8898 71.008 73.8898 68.224C73.8898 65.344 76.3538 62.976 79.1058 62.976C82.9778 62.976 84.6418 66.24 84.6418 69.632Z" fill="black"/>
<path d="M90.336 83.062H91.904V84.784H90.336V85.386H91.904V87.5H92.674V85.386H95.208V84.784H92.674V83.062H94.298C96.748 83.062 97.784 81.9 97.784 80.374C97.784 78.918 97.028 77.672 94.298 77.672C93.738 77.672 92.45 77.7 91.904 77.7V82.46H90.336V83.062ZM94.368 78.4C96.216 78.4 96.972 79.142 96.972 80.43C96.972 81.732 96.048 82.46 94.27 82.46H92.674V78.428C93.136 78.414 93.934 78.4 94.368 78.4Z" fill="black"/>
<path d="M90.91 67.6C90.91 70.512 91.848 72.612 94.032 72.612C96.216 72.612 97.098 70.512 97.098 67.6C97.098 64.702 96.188 62.588 94.004 62.588C91.82 62.588 90.91 64.702 90.91 67.6ZM91.68 67.6C91.68 64.982 92.324 63.274 94.004 63.274C95.698 63.274 96.328 64.968 96.328 67.6C96.328 70.232 95.726 71.926 94.032 71.926C92.366 71.926 91.68 70.218 91.68 67.6ZM98.9217 67.6C98.9217 70.512 99.8597 72.612 102.044 72.612C104.228 72.612 105.11 70.512 105.11 67.6C105.11 64.702 104.2 62.588 102.016 62.588C99.8317 62.588 98.9217 64.702 98.9217 67.6ZM99.6917 67.6C99.6917 64.982 100.336 63.274 102.016 63.274C103.71 63.274 104.34 64.968 104.34 67.6C104.34 70.232 103.738 71.926 102.044 71.926C100.378 71.926 99.6917 70.218 99.6917 67.6Z" fill="black"/>
<line y1="73.5" x2="117.283" y2="73.5" stroke="black"/>
</svg>
