<svg width="141" height="95" viewBox="0 0 141 95" fill="none" xmlns="http://www.w3.org/2000/svg">
<path d="M24.48 27.688C24.48 20.2 20.064 14.872 12.576 14.872C7.2 14.872 1.44 19 1.44 26.056C1.44 32.008 5.904 36.472 11.568 36.472C14.4 36.472 16.56 35.368 17.952 33.448C16.608 39.688 12.336 43.768 5.424 45.16L7.248 49.528C16.848 48.376 24.48 40.6 24.48 27.688ZM18.624 27.64C17.76 29.464 15.936 31.288 12.912 31.288C9.36 31.288 7.296 28.6 7.296 25.672C7.296 22.984 9.456 20.392 12.576 20.392C16.608 20.392 18.624 23.8 18.624 27.64ZM51.105 27.688C51.105 20.2 46.689 14.872 39.201 14.872C33.825 14.872 28.065 19 28.065 26.056C28.065 32.008 32.529 36.472 38.193 36.472C41.025 36.472 43.185 35.368 44.577 33.448C43.233 39.688 38.961 43.768 32.049 45.16L33.873 49.528C43.473 48.376 51.105 40.6 51.105 27.688ZM45.249 27.64C44.385 29.464 42.561 31.288 39.537 31.288C35.985 31.288 33.921 28.6 33.921 25.672C33.921 22.984 36.081 20.392 39.201 20.392C43.233 20.392 45.249 23.8 45.249 27.64ZM77.73 27.688C77.73 20.2 73.314 14.872 65.826 14.872C60.45 14.872 54.69 19 54.69 26.056C54.69 32.008 59.154 36.472 64.818 36.472C67.65 36.472 69.81 35.368 71.202 33.448C69.858 39.688 65.586 43.768 58.674 45.16L60.498 49.528C70.098 48.376 77.73 40.6 77.73 27.688ZM71.874 27.64C71.01 29.464 69.186 31.288 66.162 31.288C62.61 31.288 60.546 28.6 60.546 25.672C60.546 22.984 62.706 20.392 65.826 20.392C69.858 20.392 71.874 23.8 71.874 27.64Z" fill="#383838"/>
<path d="M90.2 21.62C90.2 18.5 88.36 16.28 85.24 16.28C83 16.28 80.6 18 80.6 20.94C80.6 23.42 82.46 25.28 84.82 25.28C86 25.28 86.9 24.82 87.48 24.02C86.92 26.62 85.14 28.32 82.26 28.9L83.02 30.72C87.02 30.24 90.2 27 90.2 21.62ZM87.76 21.6C87.4 22.36 86.64 23.12 85.38 23.12C83.9 23.12 83.04 22 83.04 20.78C83.04 19.66 83.94 18.58 85.24 18.58C86.92 18.58 87.76 20 87.76 21.6ZM101.294 21.62C101.294 18.5 99.4538 16.28 96.3338 16.28C94.0938 16.28 91.6938 18 91.6938 20.94C91.6938 23.42 93.5538 25.28 95.9138 25.28C97.0938 25.28 97.9938 24.82 98.5738 24.02C98.0138 26.62 96.2337 28.32 93.3538 28.9L94.1138 30.72C98.1138 30.24 101.294 27 101.294 21.62ZM98.8538 21.6C98.4938 22.36 97.7338 23.12 96.4738 23.12C94.9938 23.12 94.1338 22 94.1338 20.78C94.1338 19.66 95.0338 18.58 96.3338 18.58C98.0138 18.58 98.8538 20 98.8538 21.6Z" fill="#383838"/>
<path d="M80.26 45.54H82.22V47.2H80.26V49.04H82.22V51.5H84.66V49.04H87.94V47.2H84.66V45.54H86.5C89.82 45.54 91.6 43.96 91.6 41.56C91.6 39.26 90.32 37.46 86.18 37.46C85.2 37.46 83 37.5 82.22 37.5V43.7H80.26V45.54ZM86.44 39.76C88.1 39.76 89 40.32 89 41.78C89 43.2 87.86 43.7 86.42 43.7H84.66V39.8C85.32 39.78 85.94 39.76 86.44 39.76Z" fill="#383838"/>
<path d="M1.632 84H14.976V82.432H3.808C5.664 80.736 13.984 73.088 13.984 66.848C13.984 64.224 12.16 61.344 8.032 61.344C5.216 61.344 2.368 63.136 1.888 66.528L3.328 67.072C3.776 64.224 5.984 63.008 7.936 63.008C10.816 63.008 12.224 65.024 12.224 67.168C12.224 72.288 5.28 79.04 1.632 82.624V84ZM35.6368 84H37.3008V78.08H40.5968V76.416H37.3008V69.6H35.6368V76.416H27.4768L36.9488 61.6H35.0288L25.2368 76.96V78.08H35.6368V84ZM57.4955 69.632C57.4955 65.056 55.1275 61.312 50.1355 61.312C46.7435 61.312 43.2235 64.16 43.2235 68.352C43.2235 72.128 45.8795 75.2 49.8795 75.2C52.7275 75.2 54.7115 73.76 55.5755 71.776C54.9995 78.016 51.2235 82.016 45.9435 82.976L46.5515 84.288C52.7595 83.424 57.4955 78.016 57.4955 69.632ZM55.7355 69.632C55.2555 71.52 53.3995 73.632 50.2955 73.632C46.8075 73.632 44.9835 71.008 44.9835 68.224C44.9835 65.344 47.4475 62.976 50.1995 62.976C54.0715 62.976 55.7355 66.24 55.7355 69.632ZM75.0268 69.632C75.0268 65.056 72.6588 61.312 67.6667 61.312C64.2748 61.312 60.7548 64.16 60.7548 68.352C60.7548 72.128 63.4108 75.2 67.4108 75.2C70.2588 75.2 72.2428 73.76 73.1068 71.776C72.5308 78.016 68.7548 82.016 63.4748 82.976L64.0828 84.288C70.2908 83.424 75.0268 78.016 75.0268 69.632ZM73.2668 69.632C72.7868 71.52 70.9308 73.632 67.8268 73.632C64.3388 73.632 62.5148 71.008 62.5148 68.224C62.5148 65.344 64.9788 62.976 67.7308 62.976C71.6028 62.976 73.2668 66.24 73.2668 69.632Z" fill="black"/>
<path d="M78.336 83.062H79.904V84.784H78.336V85.386H79.904V87.5H80.674V85.386H83.208V84.784H80.674V83.062H82.298C84.748 83.062 85.784 81.9 85.784 80.374C85.784 78.918 85.028 77.672 82.298 77.672C81.738 77.672 80.45 77.7 79.904 77.7V82.46H78.336V83.062ZM82.368 78.4C84.216 78.4 84.972 79.142 84.972 80.43C84.972 81.732 84.048 82.46 82.27 82.46H80.674V78.428C81.136 78.414 81.934 78.4 82.368 78.4Z" fill="black"/>
<path d="M78.91 67.6C78.91 70.512 79.848 72.612 82.032 72.612C84.216 72.612 85.098 70.512 85.098 67.6C85.098 64.702 84.188 62.588 82.004 62.588C79.82 62.588 78.91 64.702 78.91 67.6ZM79.68 67.6C79.68 64.982 80.324 63.274 82.004 63.274C83.698 63.274 84.328 64.968 84.328 67.6C84.328 70.232 83.726 71.926 82.032 71.926C80.366 71.926 79.68 70.218 79.68 67.6ZM86.9217 67.6C86.9217 70.512 87.8597 72.612 90.0437 72.612C92.2277 72.612 93.1097 70.512 93.1097 67.6C93.1097 64.702 92.1997 62.588 90.0157 62.588C87.8317 62.588 86.9217 64.702 86.9217 67.6ZM87.6917 67.6C87.6917 64.982 88.3357 63.274 90.0157 63.274C91.7097 63.274 92.3397 64.968 92.3397 67.6C92.3397 70.232 91.7377 71.926 90.0437 71.926C88.3777 71.926 87.6917 70.218 87.6917 67.6Z" fill="black"/>
<line y1="73.5" x2="92.0816" y2="73.5" stroke="black"/>
</svg>
