<svg width="141" height="95" viewBox="0 0 141 95" fill="none" xmlns="http://www.w3.org/2000/svg">
<path d="M3.888 33.256C4.896 32.824 7.248 32.392 9.408 32.392C13.92 32.392 16.56 34.984 16.56 38.344C16.56 41.656 14.256 44.008 11.04 44.008C8.496 44.008 5.664 42.664 4.224 40.552L1.056 44.728C3.12 47.896 7.296 49.528 10.896 49.528C17.28 49.528 22.464 45.352 22.464 38.104C22.464 31.48 17.856 27.4 11.904 27.4C11.232 27.4 10.512 27.496 9.984 27.592L10.944 20.92H21.984V15.4H6.096L3.888 33.256ZM59.3081 27.688C59.3081 20.2 54.8921 14.872 47.4041 14.872C42.0281 14.872 36.2681 19 36.2681 26.056C36.2681 32.008 40.7321 36.472 46.3961 36.472C49.2281 36.472 51.3881 35.368 52.7801 33.448C51.4361 39.688 47.1641 43.768 40.2521 45.16L42.0761 49.528C51.6761 48.376 59.3081 40.6 59.3081 27.688ZM53.4521 27.64C52.5881 29.464 50.7641 31.288 47.7401 31.288C44.1881 31.288 42.1241 28.6 42.1241 25.672C42.1241 22.984 44.2841 20.392 47.4041 20.392C51.4361 20.392 53.4521 23.8 53.4521 27.64ZM85.9331 27.688C85.9331 20.2 81.5171 14.872 74.0291 14.872C68.6531 14.872 62.8931 19 62.8931 26.056C62.8931 32.008 67.3571 36.472 73.0211 36.472C75.8531 36.472 78.0131 35.368 79.4051 33.448C78.0611 39.688 73.7891 43.768 66.8771 45.16L68.7011 49.528C78.3011 48.376 85.9331 40.6 85.9331 27.688ZM80.0771 27.64C79.2131 29.464 77.3891 31.288 74.3651 31.288C70.8131 31.288 68.7491 28.6 68.7491 25.672C68.7491 22.984 70.9091 20.392 74.0291 20.392C78.0611 20.392 80.0771 23.8 80.0771 27.64ZM112.558 27.688C112.558 20.2 108.142 14.872 100.654 14.872C95.2781 14.872 89.5181 19 89.5181 26.056C89.5181 32.008 93.9821 36.472 99.6461 36.472C102.478 36.472 104.638 35.368 106.03 33.448C104.686 39.688 100.414 43.768 93.5021 45.16L95.3261 49.528C104.926 48.376 112.558 40.6 112.558 27.688ZM106.702 27.64C105.838 29.464 104.014 31.288 100.99 31.288C97.4381 31.288 95.3741 28.6 95.3741 25.672C95.3741 22.984 97.5341 20.392 100.654 20.392C104.686 20.392 106.702 23.8 106.702 27.64Z" fill="#383838"/>
<path d="M125.2 21.62C125.2 18.5 123.36 16.28 120.24 16.28C118 16.28 115.6 18 115.6 20.94C115.6 23.42 117.46 25.28 119.82 25.28C121 25.28 121.9 24.82 122.48 24.02C121.92 26.62 120.14 28.32 117.26 28.9L118.02 30.72C122.02 30.24 125.2 27 125.2 21.62ZM122.76 21.6C122.4 22.36 121.64 23.12 120.38 23.12C118.9 23.12 118.04 22 118.04 20.78C118.04 19.66 118.94 18.58 120.24 18.58C121.92 18.58 122.76 20 122.76 21.6ZM136.294 21.62C136.294 18.5 134.454 16.28 131.334 16.28C129.094 16.28 126.694 18 126.694 20.94C126.694 23.42 128.554 25.28 130.914 25.28C132.094 25.28 132.994 24.82 133.574 24.02C133.014 26.62 131.234 28.32 128.354 28.9L129.114 30.72C133.114 30.24 136.294 27 136.294 21.62ZM133.854 21.6C133.494 22.36 132.734 23.12 131.474 23.12C129.994 23.12 129.134 22 129.134 20.78C129.134 19.66 130.034 18.58 131.334 18.58C133.014 18.58 133.854 20 133.854 21.6Z" fill="#383838"/>
<path d="M115.26 45.54H117.22V47.2H115.26V49.04H117.22V51.5H119.66V49.04H122.94V47.2H119.66V45.54H121.5C124.82 45.54 126.6 43.96 126.6 41.56C126.6 39.26 125.32 37.46 121.18 37.46C120.2 37.46 118 37.5 117.22 37.5V43.7H115.26V45.54ZM121.44 39.76C123.1 39.76 124 40.32 124 41.78C124 43.2 122.86 43.7 121.42 43.7H119.66V39.8C120.32 39.78 120.94 39.76 121.44 39.76Z" fill="#383838"/>
<path d="M1.44 65.472L2.336 66.816L6.016 63.84V84H7.68V61.408H6.528L1.44 65.472ZM13.3463 65.472L14.2423 66.816L17.9223 63.84V84H19.5863V61.408H18.4343L13.3463 65.472ZM47.1518 69.632C47.1518 65.056 44.7838 61.312 39.7917 61.312C36.3998 61.312 32.8798 64.16 32.8798 68.352C32.8798 72.128 35.5358 75.2 39.5358 75.2C42.3838 75.2 44.3678 73.76 45.2318 71.776C44.6558 78.016 40.8798 82.016 35.5998 82.976L36.2078 84.288C42.4158 83.424 47.1518 78.016 47.1518 69.632ZM45.3918 69.632C44.9118 71.52 43.0558 73.632 39.9518 73.632C36.4638 73.632 34.6398 71.008 34.6398 68.224C34.6398 65.344 37.1038 62.976 39.8558 62.976C43.7278 62.976 45.3918 66.24 45.3918 69.632ZM64.683 69.632C64.683 65.056 62.315 61.312 57.323 61.312C53.931 61.312 50.411 64.16 50.411 68.352C50.411 72.128 53.067 75.2 57.067 75.2C59.915 75.2 61.899 73.76 62.763 71.776C62.187 78.016 58.411 82.016 53.131 82.976L53.739 84.288C59.947 83.424 64.683 78.016 64.683 69.632ZM62.923 69.632C62.443 71.52 60.587 73.632 57.483 73.632C53.995 73.632 52.171 71.008 52.171 68.224C52.171 65.344 54.635 62.976 57.387 62.976C61.259 62.976 62.923 66.24 62.923 69.632ZM82.2143 69.632C82.2143 65.056 79.8463 61.312 74.8542 61.312C71.4623 61.312 67.9423 64.16 67.9423 68.352C67.9423 72.128 70.5983 75.2 74.5983 75.2C77.4463 75.2 79.4303 73.76 80.2943 71.776C79.7183 78.016 75.9423 82.016 70.6623 82.976L71.2703 84.288C77.4783 83.424 82.2143 78.016 82.2143 69.632ZM80.4543 69.632C79.9743 71.52 78.1183 73.632 75.0143 73.632C71.5263 73.632 69.7023 71.008 69.7023 68.224C69.7023 65.344 72.1663 62.976 74.9183 62.976C78.7903 62.976 80.4543 66.24 80.4543 69.632Z" fill="black"/>
<path d="M85.336 83.062H86.904V84.784H85.336V85.386H86.904V87.5H87.674V85.386H90.208V84.784H87.674V83.062H89.298C91.748 83.062 92.784 81.9 92.784 80.374C92.784 78.918 92.028 77.672 89.298 77.672C88.738 77.672 87.45 77.7 86.904 77.7V82.46H85.336V83.062ZM89.368 78.4C91.216 78.4 91.972 79.142 91.972 80.43C91.972 81.732 91.048 82.46 89.27 82.46H87.674V78.428C88.136 78.414 88.934 78.4 89.368 78.4Z" fill="black"/>
<path d="M85.91 67.6C85.91 70.512 86.848 72.612 89.032 72.612C91.216 72.612 92.098 70.512 92.098 67.6C92.098 64.702 91.188 62.588 89.004 62.588C86.82 62.588 85.91 64.702 85.91 67.6ZM86.68 67.6C86.68 64.982 87.324 63.274 89.004 63.274C90.698 63.274 91.328 64.968 91.328 67.6C91.328 70.232 90.726 71.926 89.032 71.926C87.366 71.926 86.68 70.218 86.68 67.6ZM93.9217 67.6C93.9217 70.512 94.8597 72.612 97.0437 72.612C99.2277 72.612 100.11 70.512 100.11 67.6C100.11 64.702 99.1997 62.588 97.0157 62.588C94.8317 62.588 93.9217 64.702 93.9217 67.6ZM94.6917 67.6C94.6917 64.982 95.3357 63.274 97.0157 63.274C98.7097 63.274 99.3397 64.968 99.3397 67.6C99.3397 70.232 98.7377 71.926 97.0437 71.926C95.3777 71.926 94.6917 70.218 94.6917 67.6Z" fill="black"/>
<line y1="73.5" x2="98.8666" y2="73.5" stroke="black"/>
</svg>
