<svg width="141" height="95" viewBox="0 0 141 95" fill="none" xmlns="http://www.w3.org/2000/svg">
<path d="M2.16 37.096C2.16 43.864 6.672 49.528 14.16 49.528C19.536 49.528 25.008 45.544 25.008 38.488C25.008 32.344 20.736 28.216 15.6 28.216C12.24 28.216 10.08 29.416 8.688 31.336C10.416 24.856 15.456 20.68 20.928 19.048L18.672 14.872C11.328 16.696 2.16 24.76 2.16 37.096ZM8.016 37.144C8.88 35.32 10.704 33.352 13.728 33.352C17.28 33.352 19.152 35.8 19.152 38.872C19.152 41.56 17.28 44.008 14.208 44.008C10.176 44.008 8.016 40.984 8.016 37.144ZM51.2925 27.688C51.2925 20.2 46.8765 14.872 39.3885 14.872C34.0125 14.872 28.2525 19 28.2525 26.056C28.2525 32.008 32.7165 36.472 38.3805 36.472C41.2125 36.472 43.3725 35.368 44.7645 33.448C43.4205 39.688 39.1485 43.768 32.2365 45.16L34.0605 49.528C43.6605 48.376 51.2925 40.6 51.2925 27.688ZM45.4365 27.64C44.5725 29.464 42.7485 31.288 39.7245 31.288C36.1725 31.288 34.1085 28.6 34.1085 25.672C34.1085 22.984 36.2685 20.392 39.3885 20.392C43.4205 20.392 45.4365 23.8 45.4365 27.64ZM77.9175 27.688C77.9175 20.2 73.5015 14.872 66.0135 14.872C60.6375 14.872 54.8775 19 54.8775 26.056C54.8775 32.008 59.3415 36.472 65.0055 36.472C67.8375 36.472 69.9975 35.368 71.3895 33.448C70.0455 39.688 65.7735 43.768 58.8615 45.16L60.6855 49.528C70.2855 48.376 77.9175 40.6 77.9175 27.688ZM72.0615 27.64C71.1975 29.464 69.3735 31.288 66.3495 31.288C62.7975 31.288 60.7335 28.6 60.7335 25.672C60.7335 22.984 62.8935 20.392 66.0135 20.392C70.0455 20.392 72.0615 23.8 72.0615 27.64Z" fill="#383838"/>
<path d="M91.2 21.62C91.2 18.5 89.36 16.28 86.24 16.28C84 16.28 81.6 18 81.6 20.94C81.6 23.42 83.46 25.28 85.82 25.28C87 25.28 87.9 24.82 88.48 24.02C87.92 26.62 86.14 28.32 83.26 28.9L84.02 30.72C88.02 30.24 91.2 27 91.2 21.62ZM88.76 21.6C88.4 22.36 87.64 23.12 86.38 23.12C84.9 23.12 84.04 22 84.04 20.78C84.04 19.66 84.94 18.58 86.24 18.58C87.92 18.58 88.76 20 88.76 21.6ZM102.294 21.62C102.294 18.5 100.454 16.28 97.3338 16.28C95.0938 16.28 92.6938 18 92.6938 20.94C92.6938 23.42 94.5538 25.28 96.9138 25.28C98.0938 25.28 98.9938 24.82 99.5738 24.02C99.0138 26.62 97.2337 28.32 94.3538 28.9L95.1138 30.72C99.1138 30.24 102.294 27 102.294 21.62ZM99.8538 21.6C99.4938 22.36 98.7338 23.12 97.4738 23.12C95.9938 23.12 95.1338 22 95.1338 20.78C95.1338 19.66 96.0338 18.58 97.3338 18.58C99.0138 18.58 99.8538 20 99.8538 21.6Z" fill="#383838"/>
<path d="M81.26 45.54H83.22V47.2H81.26V49.04H83.22V51.5H85.66V49.04H88.94V47.2H85.66V45.54H87.5C90.82 45.54 92.6 43.96 92.6 41.56C92.6 39.26 91.32 37.46 87.18 37.46C86.2 37.46 84 37.5 83.22 37.5V43.7H81.26V45.54ZM87.44 39.76C89.1 39.76 90 40.32 90 41.78C90 43.2 88.86 43.7 87.42 43.7H85.66V39.8C86.32 39.78 86.94 39.76 87.44 39.76Z" fill="#383838"/>
<path d="M1.44 65.472L2.336 66.816L6.016 63.84V84H7.68V61.408H6.528L1.44 65.472ZM20.5255 63.264H31.4055L23.0855 84H24.9415L33.4535 62.624V61.6H20.5255V63.264ZM45.793 84H47.457V78.08H50.753V76.416H47.457V69.6H45.793V76.416H37.633L47.105 61.6H45.185L35.393 76.96V78.08H45.793V84ZM67.6518 69.632C67.6518 65.056 65.2838 61.312 60.2917 61.312C56.8998 61.312 53.3798 64.16 53.3798 68.352C53.3798 72.128 56.0358 75.2 60.0358 75.2C62.8838 75.2 64.8678 73.76 65.7318 71.776C65.1558 78.016 61.3798 82.016 56.0998 82.976L56.7078 84.288C62.9158 83.424 67.6518 78.016 67.6518 69.632ZM65.8918 69.632C65.4118 71.52 63.5558 73.632 60.4518 73.632C56.9638 73.632 55.1398 71.008 55.1398 68.224C55.1398 65.344 57.6038 62.976 60.3558 62.976C64.2278 62.976 65.8918 66.24 65.8918 69.632Z" fill="black"/>
<path d="M71.336 83.062H72.904V84.784H71.336V85.386H72.904V87.5H73.674V85.386H76.208V84.784H73.674V83.062H75.298C77.748 83.062 78.784 81.9 78.784 80.374C78.784 78.918 78.028 77.672 75.298 77.672C74.738 77.672 73.45 77.7 72.904 77.7V82.46H71.336V83.062ZM75.368 78.4C77.216 78.4 77.972 79.142 77.972 80.43C77.972 81.732 77.048 82.46 75.27 82.46H73.674V78.428C74.136 78.414 74.934 78.4 75.368 78.4Z" fill="black"/>
<path d="M71.91 67.6C71.91 70.512 72.848 72.612 75.032 72.612C77.216 72.612 78.098 70.512 78.098 67.6C78.098 64.702 77.188 62.588 75.004 62.588C72.82 62.588 71.91 64.702 71.91 67.6ZM72.68 67.6C72.68 64.982 73.324 63.274 75.004 63.274C76.698 63.274 77.328 64.968 77.328 67.6C77.328 70.232 76.726 71.926 75.032 71.926C73.366 71.926 72.68 70.218 72.68 67.6ZM79.9217 67.6C79.9217 70.512 80.8597 72.612 83.0437 72.612C85.2277 72.612 86.1097 70.512 86.1097 67.6C86.1097 64.702 85.1997 62.588 83.0157 62.588C80.8317 62.588 79.9217 64.702 79.9217 67.6ZM80.6917 67.6C80.6917 64.982 81.3357 63.274 83.0157 63.274C84.7097 63.274 85.3397 64.968 85.3397 67.6C85.3397 70.232 84.7377 71.926 83.0437 71.926C81.3777 71.926 80.6917 70.218 80.6917 67.6Z" fill="black"/>
<line y1="73.5" x2="89.1738" y2="73.5" stroke="black"/>
</svg>
