<svg width="141" height="95" viewBox="0 0 141 95" fill="none" xmlns="http://www.w3.org/2000/svg">
<path d="M16.08 49H21.6V41.224H25.92V35.704H21.6V27.4H16.08V35.704H7.872L20.016 15.4H13.68L0.72 37.144V41.224H16.08V49ZM61.7925 27.688C61.7925 20.2 57.3765 14.872 49.8885 14.872C44.5125 14.872 38.7525 19 38.7525 26.056C38.7525 32.008 43.2165 36.472 48.8805 36.472C51.7125 36.472 53.8725 35.368 55.2645 33.448C53.9205 39.688 49.6485 43.768 42.7365 45.16L44.5605 49.528C54.1605 48.376 61.7925 40.6 61.7925 27.688ZM55.9365 27.64C55.0725 29.464 53.2485 31.288 50.2245 31.288C46.6725 31.288 44.6085 28.6 44.6085 25.672C44.6085 22.984 46.7685 20.392 49.8885 20.392C53.9205 20.392 55.9365 23.8 55.9365 27.64ZM88.4175 27.688C88.4175 20.2 84.0015 14.872 76.5135 14.872C71.1375 14.872 65.3775 19 65.3775 26.056C65.3775 32.008 69.8415 36.472 75.5055 36.472C78.3375 36.472 80.4975 35.368 81.8895 33.448C80.5455 39.688 76.2735 43.768 69.3615 45.16L71.1855 49.528C80.7855 48.376 88.4175 40.6 88.4175 27.688ZM82.5615 27.64C81.6975 29.464 79.8735 31.288 76.8495 31.288C73.2975 31.288 71.2335 28.6 71.2335 25.672C71.2335 22.984 73.3935 20.392 76.5135 20.392C80.5455 20.392 82.5615 23.8 82.5615 27.64ZM115.043 27.688C115.043 20.2 110.627 14.872 103.139 14.872C97.7625 14.872 92.0025 19 92.0025 26.056C92.0025 32.008 96.4665 36.472 102.131 36.472C104.963 36.472 107.123 35.368 108.515 33.448C107.171 39.688 102.898 43.768 95.9865 45.16L97.8105 49.528C107.411 48.376 115.043 40.6 115.043 27.688ZM109.187 27.64C108.323 29.464 106.499 31.288 103.475 31.288C99.9225 31.288 97.8585 28.6 97.8585 25.672C97.8585 22.984 100.019 20.392 103.139 20.392C107.171 20.392 109.187 23.8 109.187 27.64Z" fill="#383838"/>
<path d="M128.2 21.62C128.2 18.5 126.36 16.28 123.24 16.28C121 16.28 118.6 18 118.6 20.94C118.6 23.42 120.46 25.28 122.82 25.28C124 25.28 124.9 24.82 125.48 24.02C124.92 26.62 123.14 28.32 120.26 28.9L121.02 30.72C125.02 30.24 128.2 27 128.2 21.62ZM125.76 21.6C125.4 22.36 124.64 23.12 123.38 23.12C121.9 23.12 121.04 22 121.04 20.78C121.04 19.66 121.94 18.58 123.24 18.58C124.92 18.58 125.76 20 125.76 21.6ZM139.294 21.62C139.294 18.5 137.454 16.28 134.334 16.28C132.094 16.28 129.694 18 129.694 20.94C129.694 23.42 131.554 25.28 133.914 25.28C135.094 25.28 135.994 24.82 136.574 24.02C136.014 26.62 134.234 28.32 131.354 28.9L132.114 30.72C136.114 30.24 139.294 27 139.294 21.62ZM136.854 21.6C136.494 22.36 135.734 23.12 134.474 23.12C132.994 23.12 132.134 22 132.134 20.78C132.134 19.66 133.034 18.58 134.334 18.58C136.014 18.58 136.854 20 136.854 21.6Z" fill="#383838"/>
<path d="M118.26 45.54H120.22V47.2H118.26V49.04H120.22V51.5H122.66V49.04H125.94V47.2H122.66V45.54H124.5C127.82 45.54 129.6 43.96 129.6 41.56C129.6 39.26 128.32 37.46 124.18 37.46C123.2 37.46 121 37.5 120.22 37.5V43.7H118.26V45.54ZM124.44 39.76C126.1 39.76 127 40.32 127 41.78C127 43.2 125.86 43.7 124.42 43.7H122.66V39.8C123.32 39.78 123.94 39.76 124.44 39.76Z" fill="#383838"/>
<path d="M15.808 69.632C15.808 65.056 13.44 61.312 8.448 61.312C5.056 61.312 1.536 64.16 1.536 68.352C1.536 72.128 4.192 75.2 8.192 75.2C11.04 75.2 13.024 73.76 13.888 71.776C13.312 78.016 9.536 82.016 4.256 82.976L4.864 84.288C11.072 83.424 15.808 78.016 15.808 69.632ZM14.048 69.632C13.568 71.52 11.712 73.632 8.608 73.632C5.12 73.632 3.296 71.008 3.296 68.224C3.296 65.344 5.76 62.976 8.512 62.976C12.384 62.976 14.048 66.24 14.048 69.632ZM40.8705 69.632C40.8705 65.056 38.5025 61.312 33.5105 61.312C30.1185 61.312 26.5985 64.16 26.5985 68.352C26.5985 72.128 29.2545 75.2 33.2545 75.2C36.1025 75.2 38.0865 73.76 38.9505 71.776C38.3745 78.016 34.5985 82.016 29.3185 82.976L29.9265 84.288C36.1345 83.424 40.8705 78.016 40.8705 69.632ZM39.1105 69.632C38.6305 71.52 36.7745 73.632 33.6705 73.632C30.1825 73.632 28.3585 71.008 28.3585 68.224C28.3585 65.344 30.8225 62.976 33.5745 62.976C37.4465 62.976 39.1105 66.24 39.1105 69.632ZM58.4018 69.632C58.4018 65.056 56.0338 61.312 51.0417 61.312C47.6498 61.312 44.1298 64.16 44.1298 68.352C44.1298 72.128 46.7858 75.2 50.7858 75.2C53.6338 75.2 55.6178 73.76 56.4818 71.776C55.9058 78.016 52.1298 82.016 46.8498 82.976L47.4578 84.288C53.6658 83.424 58.4018 78.016 58.4018 69.632ZM56.6418 69.632C56.1618 71.52 54.3058 73.632 51.2018 73.632C47.7138 73.632 45.8898 71.008 45.8898 68.224C45.8898 65.344 48.3538 62.976 51.1058 62.976C54.9778 62.976 56.6418 66.24 56.6418 69.632ZM75.933 69.632C75.933 65.056 73.565 61.312 68.573 61.312C65.181 61.312 61.661 64.16 61.661 68.352C61.661 72.128 64.317 75.2 68.317 75.2C71.165 75.2 73.149 73.76 74.013 71.776C73.437 78.016 69.661 82.016 64.381 82.976L64.989 84.288C71.197 83.424 75.933 78.016 75.933 69.632ZM74.173 69.632C73.693 71.52 71.837 73.632 68.733 73.632C65.245 73.632 63.421 71.008 63.421 68.224C63.421 65.344 65.885 62.976 68.637 62.976C72.509 62.976 74.173 66.24 74.173 69.632Z" fill="black"/>
<path d="M79.336 83.062H80.904V84.784H79.336V85.386H80.904V87.5H81.674V85.386H84.208V84.784H81.674V83.062H83.298C85.748 83.062 86.784 81.9 86.784 80.374C86.784 78.918 86.028 77.672 83.298 77.672C82.738 77.672 81.45 77.7 80.904 77.7V82.46H79.336V83.062ZM83.368 78.4C85.216 78.4 85.972 79.142 85.972 80.43C85.972 81.732 85.048 82.46 83.27 82.46H81.674V78.428C82.136 78.414 82.934 78.4 83.368 78.4Z" fill="black"/>
<path d="M79.91 67.6C79.91 70.512 80.848 72.612 83.032 72.612C85.216 72.612 86.098 70.512 86.098 67.6C86.098 64.702 85.188 62.588 83.004 62.588C80.82 62.588 79.91 64.702 79.91 67.6ZM80.68 67.6C80.68 64.982 81.324 63.274 83.004 63.274C84.698 63.274 85.328 64.968 85.328 67.6C85.328 70.232 84.726 71.926 83.032 71.926C81.366 71.926 80.68 70.218 80.68 67.6ZM87.9217 67.6C87.9217 70.512 88.8597 72.612 91.0437 72.612C93.2277 72.612 94.1097 70.512 94.1097 67.6C94.1097 64.702 93.1997 62.588 91.0157 62.588C88.8317 62.588 87.9217 64.702 87.9217 67.6ZM88.6917 67.6C88.6917 64.982 89.3357 63.274 91.0157 63.274C92.7097 63.274 93.3397 64.968 93.3397 67.6C93.3397 70.232 92.7377 71.926 91.0437 71.926C89.3777 71.926 88.6917 70.218 88.6917 67.6Z" fill="black"/>
<line y1="73.5" x2="92.0816" y2="73.5" stroke="black"/>
</svg>
