<svg width="141" height="95" viewBox="0 0 141 95" fill="none" xmlns="http://www.w3.org/2000/svg">
<path d="M16.08 49H21.6V41.224H25.92V35.704H21.6V27.4H16.08V35.704H7.872L20.016 15.4H13.68L0.72 37.144V41.224H16.08V49ZM43.2206 49H48.7406V41.224H53.0606V35.704H48.7406V27.4H43.2206V35.704H35.0126L47.1566 15.4H40.8206L27.8606 37.144V41.224H43.2206V49ZM78.7613 27.688C78.7613 20.2 74.3453 14.872 66.8573 14.872C61.4813 14.872 55.7213 19 55.7213 26.056C55.7213 32.008 60.1853 36.472 65.8493 36.472C68.6813 36.472 70.8413 35.368 72.2333 33.448C70.8893 39.688 66.6172 43.768 59.7053 45.16L61.5293 49.528C71.1293 48.376 78.7613 40.6 78.7613 27.688ZM72.9053 27.64C72.0413 29.464 70.2173 31.288 67.1933 31.288C63.6413 31.288 61.5773 28.6 61.5773 25.672C61.5773 22.984 63.7373 20.392 66.8573 20.392C70.8893 20.392 72.9053 23.8 72.9053 27.64Z" fill="#383838"/>
<path d="M91.2 21.62C91.2 18.5 89.36 16.28 86.24 16.28C84 16.28 81.6 18 81.6 20.94C81.6 23.42 83.46 25.28 85.82 25.28C87 25.28 87.9 24.82 88.48 24.02C87.92 26.62 86.14 28.32 83.26 28.9L84.02 30.72C88.02 30.24 91.2 27 91.2 21.62ZM88.76 21.6C88.4 22.36 87.64 23.12 86.38 23.12C84.9 23.12 84.04 22 84.04 20.78C84.04 19.66 84.94 18.58 86.24 18.58C87.92 18.58 88.76 20 88.76 21.6ZM102.294 21.62C102.294 18.5 100.454 16.28 97.3338 16.28C95.0938 16.28 92.6938 18 92.6938 20.94C92.6938 23.42 94.5538 25.28 96.9138 25.28C98.0938 25.28 98.9938 24.82 99.5738 24.02C99.0138 26.62 97.2337 28.32 94.3538 28.9L95.1138 30.72C99.1138 30.24 102.294 27 102.294 21.62ZM99.8538 21.6C99.4938 22.36 98.7338 23.12 97.4738 23.12C95.9938 23.12 95.1338 22 95.1338 20.78C95.1338 19.66 96.0338 18.58 97.3338 18.58C99.0138 18.58 99.8538 20 99.8538 21.6Z" fill="#383838"/>
<path d="M81.26 45.54H83.22V47.2H81.26V49.04H83.22V51.5H85.66V49.04H88.94V47.2H85.66V45.54H87.5C90.82 45.54 92.6 43.96 92.6 41.56C92.6 39.26 91.32 37.46 87.18 37.46C86.2 37.46 84 37.5 83.22 37.5V43.7H81.26V45.54ZM87.44 39.76C89.1 39.76 90 40.32 90 41.78C90 43.2 88.86 43.7 87.42 43.7H85.66V39.8C86.32 39.78 86.94 39.76 87.44 39.76Z" fill="#383838"/>
<path d="M1.44 65.472L2.336 66.816L6.016 63.84V84H7.68V61.408H6.528L1.44 65.472ZM20.8775 65.472L21.7735 66.816L25.4535 63.84V84H27.1175V61.408H25.9655L20.8775 65.472ZM42.5118 84H44.1758V78.08H47.4718V76.416H44.1758V69.6H42.5118V76.416H34.3518L43.8238 61.6H41.9038L32.1118 76.96V78.08H42.5118V84ZM64.3705 69.632C64.3705 65.056 62.0025 61.312 57.0105 61.312C53.6185 61.312 50.0985 64.16 50.0985 68.352C50.0985 72.128 52.7545 75.2 56.7545 75.2C59.6025 75.2 61.5865 73.76 62.4505 71.776C61.8745 78.016 58.0985 82.016 52.8185 82.976L53.4265 84.288C59.6345 83.424 64.3705 78.016 64.3705 69.632ZM62.6105 69.632C62.1305 71.52 60.2745 73.632 57.1705 73.632C53.6825 73.632 51.8585 71.008 51.8585 68.224C51.8585 65.344 54.3225 62.976 57.0745 62.976C60.9465 62.976 62.6105 66.24 62.6105 69.632Z" fill="black"/>
<path d="M68.336 83.062H69.904V84.784H68.336V85.386H69.904V87.5H70.674V85.386H73.208V84.784H70.674V83.062H72.298C74.748 83.062 75.784 81.9 75.784 80.374C75.784 78.918 75.028 77.672 72.298 77.672C71.738 77.672 70.45 77.7 69.904 77.7V82.46H68.336V83.062ZM72.368 78.4C74.216 78.4 74.972 79.142 74.972 80.43C74.972 81.732 74.048 82.46 72.27 82.46H70.674V78.428C71.136 78.414 71.934 78.4 72.368 78.4Z" fill="black"/>
<path d="M68.91 67.6C68.91 70.512 69.848 72.612 72.032 72.612C74.216 72.612 75.098 70.512 75.098 67.6C75.098 64.702 74.188 62.588 72.004 62.588C69.82 62.588 68.91 64.702 68.91 67.6ZM69.68 67.6C69.68 64.982 70.324 63.274 72.004 63.274C73.698 63.274 74.328 64.968 74.328 67.6C74.328 70.232 73.726 71.926 72.032 71.926C70.366 71.926 69.68 70.218 69.68 67.6ZM76.9217 67.6C76.9217 70.512 77.8597 72.612 80.0437 72.612C82.2277 72.612 83.1097 70.512 83.1097 67.6C83.1097 64.702 82.1997 62.588 80.0157 62.588C77.8317 62.588 76.9217 64.702 76.9217 67.6ZM77.6917 67.6C77.6917 64.982 78.3357 63.274 80.0157 63.274C81.7097 63.274 82.3397 64.968 82.3397 67.6C82.3397 70.232 81.7377 71.926 80.0437 71.926C78.3777 71.926 77.6917 70.218 77.6917 67.6Z" fill="black"/>
<line y1="73.5" x2="86.266" y2="73.5" stroke="black"/>
</svg>
