<svg width="160" height="95" viewBox="0 0 160 95" fill="none" xmlns="http://www.w3.org/2000/svg">
<path d="M1.056 21.736L3.984 26.296L8.112 23.176V49H13.632V15.304H9.648L1.056 21.736ZM34.7363 49H40.2563V41.224H44.5763V35.704H40.2563V27.4H34.7363V35.704H26.5283L38.6723 15.4H32.3363L19.3763 37.144V41.224H34.7363V49ZM80.4488 27.688C80.4488 20.2 76.0328 14.872 68.5448 14.872C63.1688 14.872 57.4088 19 57.4088 26.056C57.4088 32.008 61.8728 36.472 67.5368 36.472C70.3688 36.472 72.5288 35.368 73.9208 33.448C72.5768 39.688 68.3047 43.768 61.3928 45.16L63.2168 49.528C72.8168 48.376 80.4488 40.6 80.4488 27.688ZM74.5928 27.64C73.7288 29.464 71.9048 31.288 68.8808 31.288C65.3288 31.288 63.2648 28.6 63.2648 25.672C63.2648 22.984 65.4248 20.392 68.5448 20.392C72.5768 20.392 74.5928 23.8 74.5928 27.64ZM96.5618 28.984C93.9218 28.984 92.1458 26.92 92.1458 24.664C92.1458 22.168 94.0178 20.392 96.8978 20.392C99.7778 20.392 101.794 21.928 101.794 24.664C101.794 26.92 100.018 28.984 97.4738 28.984H96.5618ZM97.4738 34.504C100.402 34.504 102.706 36.136 102.754 39.256C102.802 41.944 100.93 44.008 96.9458 44.008C93.3458 44.008 91.2338 41.896 91.2338 39.256C91.2338 36.28 93.8258 34.504 96.6578 34.504H97.4738ZM96.9938 49.528C103.522 49.528 108.61 46.024 108.61 39.832C108.61 35.464 105.826 32.44 102.514 31.768V31.624C105.778 30.232 107.698 26.968 107.698 23.704C107.698 18.424 102.898 14.872 96.9458 14.872C91.0418 14.872 86.2898 18.424 86.2898 23.704C86.2898 27.64 88.4978 30.568 91.0898 31.672V31.816C87.8258 32.92 85.3298 35.992 85.3298 40.312C85.3298 46.024 90.4658 49.528 96.9938 49.528ZM135.855 27.688C135.855 20.2 131.439 14.872 123.951 14.872C118.575 14.872 112.815 19 112.815 26.056C112.815 32.008 117.279 36.472 122.943 36.472C125.775 36.472 127.935 35.368 129.327 33.448C127.983 39.688 123.711 43.768 116.799 45.16L118.623 49.528C128.223 48.376 135.855 40.6 135.855 27.688ZM129.999 27.64C129.135 29.464 127.311 31.288 124.287 31.288C120.735 31.288 118.671 28.6 118.671 25.672C118.671 22.984 120.831 20.392 123.951 20.392C127.983 20.392 129.999 23.8 129.999 27.64Z" fill="#383838"/>
<path d="M148.2 21.62C148.2 18.5 146.36 16.28 143.24 16.28C141 16.28 138.6 18 138.6 20.94C138.6 23.42 140.46 25.28 142.82 25.28C144 25.28 144.9 24.82 145.48 24.02C144.92 26.62 143.14 28.32 140.26 28.9L141.02 30.72C145.02 30.24 148.2 27 148.2 21.62ZM145.76 21.6C145.4 22.36 144.64 23.12 143.38 23.12C141.9 23.12 141.04 22 141.04 20.78C141.04 19.66 141.94 18.58 143.24 18.58C144.92 18.58 145.76 20 145.76 21.6ZM159.294 21.62C159.294 18.5 157.454 16.28 154.334 16.28C152.094 16.28 149.694 18 149.694 20.94C149.694 23.42 151.554 25.28 153.914 25.28C155.094 25.28 155.994 24.82 156.574 24.02C156.014 26.62 154.234 28.32 151.354 28.9L152.114 30.72C156.114 30.24 159.294 27 159.294 21.62ZM156.854 21.6C156.494 22.36 155.734 23.12 154.474 23.12C152.994 23.12 152.134 22 152.134 20.78C152.134 19.66 153.034 18.58 154.334 18.58C156.014 18.58 156.854 20 156.854 21.6Z" fill="#383838"/>
<path d="M138.26 45.54H140.22V47.2H138.26V49.04H140.22V51.5H142.66V49.04H145.94V47.2H142.66V45.54H144.5C147.82 45.54 149.6 43.96 149.6 41.56C149.6 39.26 148.32 37.46 144.18 37.46C143.2 37.46 141 37.5 140.22 37.5V43.7H138.26V45.54ZM144.44 39.76C146.1 39.76 147 40.32 147 41.78C147 43.2 145.86 43.7 144.42 43.7H142.66V39.8C143.32 39.78 143.94 39.76 144.44 39.76Z" fill="#383838"/>
<path d="M1.632 84H14.976V82.432H3.808C5.664 80.736 13.984 73.088 13.984 66.848C13.984 64.224 12.16 61.344 8.032 61.344C5.216 61.344 2.368 63.136 1.888 66.528L3.328 67.072C3.776 64.224 5.984 63.008 7.936 63.008C10.816 63.008 12.224 65.024 12.224 67.168C12.224 72.288 5.28 79.04 1.632 82.624V84ZM32.7455 69.632C32.7455 65.056 30.3775 61.312 25.3855 61.312C21.9935 61.312 18.4735 64.16 18.4735 68.352C18.4735 72.128 21.1295 75.2 25.1295 75.2C27.9775 75.2 29.9615 73.76 30.8255 71.776C30.2495 78.016 26.4735 82.016 21.1935 82.976L21.8015 84.288C28.0095 83.424 32.7455 78.016 32.7455 69.632ZM30.9855 69.632C30.5055 71.52 28.6495 73.632 25.5455 73.632C22.0575 73.632 20.2335 71.008 20.2335 68.224C20.2335 65.344 22.6975 62.976 25.4495 62.976C29.3215 62.976 30.9855 66.24 30.9855 69.632ZM57.808 69.632C57.808 65.056 55.44 61.312 50.448 61.312C47.056 61.312 43.536 64.16 43.536 68.352C43.536 72.128 46.192 75.2 50.192 75.2C53.04 75.2 55.024 73.76 55.888 71.776C55.312 78.016 51.536 82.016 46.256 82.976L46.864 84.288C53.072 83.424 57.808 78.016 57.808 69.632ZM56.048 69.632C55.568 71.52 53.712 73.632 50.608 73.632C47.12 73.632 45.296 71.008 45.296 68.224C45.296 65.344 47.76 62.976 50.512 62.976C54.384 62.976 56.048 66.24 56.048 69.632ZM75.3393 69.632C75.3393 65.056 72.9713 61.312 67.9792 61.312C64.5873 61.312 61.0673 64.16 61.0673 68.352C61.0673 72.128 63.7233 75.2 67.7233 75.2C70.5713 75.2 72.5553 73.76 73.4193 71.776C72.8433 78.016 69.0673 82.016 63.7873 82.976L64.3953 84.288C70.6033 83.424 75.3393 78.016 75.3393 69.632ZM73.5793 69.632C73.0993 71.52 71.2433 73.632 68.1393 73.632C64.6513 73.632 62.8273 71.008 62.8273 68.224C62.8273 65.344 65.2913 62.976 68.0433 62.976C71.9153 62.976 73.5793 66.24 73.5793 69.632ZM79.1425 72.8C79.1425 79.456 81.2865 84.256 86.2785 84.256C91.2705 84.256 93.2865 79.456 93.2865 72.8C93.2865 66.176 91.2065 61.344 86.2145 61.344C81.2225 61.344 79.1425 66.176 79.1425 72.8ZM80.9025 72.8C80.9025 66.816 82.3745 62.912 86.2145 62.912C90.0865 62.912 91.5265 66.784 91.5265 72.8C91.5265 78.816 90.1505 82.688 86.2785 82.688C82.4705 82.688 80.9025 78.784 80.9025 72.8Z" fill="black"/>
<path d="M97.336 83.062H98.904V84.784H97.336V85.386H98.904V87.5H99.674V85.386H102.208V84.784H99.674V83.062H101.298C103.748 83.062 104.784 81.9 104.784 80.374C104.784 78.918 104.028 77.672 101.298 77.672C100.738 77.672 99.45 77.7 98.904 77.7V82.46H97.336V83.062ZM101.368 78.4C103.216 78.4 103.972 79.142 103.972 80.43C103.972 81.732 103.048 82.46 101.27 82.46H99.674V78.428C100.136 78.414 100.934 78.4 101.368 78.4Z" fill="black"/>
<path d="M97.91 67.6C97.91 70.512 98.848 72.612 101.032 72.612C103.216 72.612 104.098 70.512 104.098 67.6C104.098 64.702 103.188 62.588 101.004 62.588C98.82 62.588 97.91 64.702 97.91 67.6ZM98.68 67.6C98.68 64.982 99.324 63.274 101.004 63.274C102.698 63.274 103.328 64.968 103.328 67.6C103.328 70.232 102.726 71.926 101.032 71.926C99.366 71.926 98.68 70.218 98.68 67.6ZM105.922 67.6C105.922 70.512 106.86 72.612 109.044 72.612C111.228 72.612 112.11 70.512 112.11 67.6C112.11 64.702 111.2 62.588 109.016 62.588C106.832 62.588 105.922 64.702 105.922 67.6ZM106.692 67.6C106.692 64.982 107.336 63.274 109.016 63.274C110.71 63.274 111.34 64.968 111.34 67.6C111.34 70.232 110.738 71.926 109.044 71.926C107.378 71.926 106.692 70.218 106.692 67.6Z" fill="black"/>
<line y1="73.5" x2="114.375" y2="73.5" stroke="black"/>
</svg>
