<svg width="141" height="95" viewBox="0 0 141 95" fill="none" xmlns="http://www.w3.org/2000/svg">
<path d="M1.776 49H22.896V43.864H8.928C11.568 41.704 21.6 33.208 21.6 23.8C21.6 19.336 18.48 15.016 12.096 15.016C6.768 15.016 2.928 18.088 2.016 22.984L6.624 25.048C7.344 22.216 9.072 20.536 11.472 20.536C14.256 20.536 15.744 22.216 15.744 24.904C15.744 31.432 7.248 39.208 1.776 44.584V49ZM41.2519 49H46.7719V41.224H51.0919V35.704H46.7719V27.4H41.2519V35.704H33.0439L45.1879 15.4H38.8519L25.8919 37.144V41.224H41.2519V49ZM76.7925 27.688C76.7925 20.2 72.3765 14.872 64.8885 14.872C59.5125 14.872 53.7525 19 53.7525 26.056C53.7525 32.008 58.2165 36.472 63.8805 36.472C66.7125 36.472 68.8725 35.368 70.2645 33.448C68.9205 39.688 64.6485 43.768 57.7365 45.16L59.5605 49.528C69.1605 48.376 76.7925 40.6 76.7925 27.688ZM70.9365 27.64C70.0725 29.464 68.2485 31.288 65.2245 31.288C61.6725 31.288 59.6085 28.6 59.6085 25.672C59.6085 22.984 61.7685 20.392 64.8885 20.392C68.9205 20.392 70.9365 23.8 70.9365 27.64Z" fill="#383838"/>
<path d="M89.2 21.62C89.2 18.5 87.36 16.28 84.24 16.28C82 16.28 79.6 18 79.6 20.94C79.6 23.42 81.46 25.28 83.82 25.28C85 25.28 85.9 24.82 86.48 24.02C85.92 26.62 84.14 28.32 81.26 28.9L82.02 30.72C86.02 30.24 89.2 27 89.2 21.62ZM86.76 21.6C86.4 22.36 85.64 23.12 84.38 23.12C82.9 23.12 82.04 22 82.04 20.78C82.04 19.66 82.94 18.58 84.24 18.58C85.92 18.58 86.76 20 86.76 21.6ZM100.294 21.62C100.294 18.5 98.4538 16.28 95.3338 16.28C93.0938 16.28 90.6938 18 90.6938 20.94C90.6938 23.42 92.5538 25.28 94.9138 25.28C96.0938 25.28 96.9938 24.82 97.5738 24.02C97.0138 26.62 95.2337 28.32 92.3538 28.9L93.1138 30.72C97.1138 30.24 100.294 27 100.294 21.62ZM97.8538 21.6C97.4938 22.36 96.7338 23.12 95.4738 23.12C93.9938 23.12 93.1338 22 93.1338 20.78C93.1338 19.66 94.0338 18.58 95.3338 18.58C97.0138 18.58 97.8538 20 97.8538 21.6Z" fill="#383838"/>
<path d="M79.26 45.54H81.22V47.2H79.26V49.04H81.22V51.5H83.66V49.04H86.94V47.2H83.66V45.54H85.5C88.82 45.54 90.6 43.96 90.6 41.56C90.6 39.26 89.32 37.46 85.18 37.46C84.2 37.46 82 37.5 81.22 37.5V43.7H79.26V45.54ZM85.44 39.76C87.1 39.76 88 40.32 88 41.78C88 43.2 86.86 43.7 85.42 43.7H83.66V39.8C84.32 39.78 84.94 39.76 85.44 39.76Z" fill="#383838"/>
<path d="M3.616 72.352C4.448 72.032 5.76 71.776 7.008 71.776C10.624 71.776 12.992 74.08 12.992 77.12C12.992 80.32 10.752 82.624 7.84 82.624C5.888 82.624 3.616 81.632 2.432 79.552L1.44 80.736C2.816 83.232 5.408 84.288 7.808 84.288C11.52 84.288 14.752 81.568 14.752 77.056C14.752 72.928 11.776 70.272 7.68 70.272C6.848 70.272 6.016 70.4 5.472 70.56L6.432 63.264H14.72V61.6H4.992L3.616 72.352ZM32.3705 69.632C32.3705 65.056 30.0025 61.312 25.0105 61.312C21.6185 61.312 18.0985 64.16 18.0985 68.352C18.0985 72.128 20.7545 75.2 24.7545 75.2C27.6025 75.2 29.5865 73.76 30.4505 71.776C29.8745 78.016 26.0985 82.016 20.8185 82.976L21.4265 84.288C27.6345 83.424 32.3705 78.016 32.3705 69.632ZM30.6105 69.632C30.1305 71.52 28.2745 73.632 25.1705 73.632C21.6825 73.632 19.8585 71.008 19.8585 68.224C19.8585 65.344 22.3225 62.976 25.0745 62.976C28.9465 62.976 30.6105 66.24 30.6105 69.632ZM49.9018 69.632C49.9018 65.056 47.5338 61.312 42.5417 61.312C39.1498 61.312 35.6298 64.16 35.6298 68.352C35.6298 72.128 38.2858 75.2 42.2858 75.2C45.1338 75.2 47.1178 73.76 47.9818 71.776C47.4058 78.016 43.6298 82.016 38.3498 82.976L38.9578 84.288C45.1658 83.424 49.9018 78.016 49.9018 69.632ZM48.1418 69.632C47.6618 71.52 45.8058 73.632 42.7018 73.632C39.2138 73.632 37.3898 71.008 37.3898 68.224C37.3898 65.344 39.8538 62.976 42.6058 62.976C46.4778 62.976 48.1418 66.24 48.1418 69.632Z" fill="black"/>
<path d="M53.336 83.062H54.904V84.784H53.336V85.386H54.904V87.5H55.674V85.386H58.208V84.784H55.674V83.062H57.298C59.748 83.062 60.784 81.9 60.784 80.374C60.784 78.918 60.028 77.672 57.298 77.672C56.738 77.672 55.45 77.7 54.904 77.7V82.46H53.336V83.062ZM57.368 78.4C59.216 78.4 59.972 79.142 59.972 80.43C59.972 81.732 59.048 82.46 57.27 82.46H55.674V78.428C56.136 78.414 56.934 78.4 57.368 78.4Z" fill="black"/>
<path d="M53.91 67.6C53.91 70.512 54.848 72.612 57.032 72.612C59.216 72.612 60.098 70.512 60.098 67.6C60.098 64.702 59.188 62.588 57.004 62.588C54.82 62.588 53.91 64.702 53.91 67.6ZM54.68 67.6C54.68 64.982 55.324 63.274 57.004 63.274C58.698 63.274 59.328 64.968 59.328 67.6C59.328 70.232 58.726 71.926 57.032 71.926C55.366 71.926 54.68 70.218 54.68 67.6ZM61.9217 67.6C61.9217 70.512 62.8597 72.612 65.0437 72.612C67.2277 72.612 68.1097 70.512 68.1097 67.6C68.1097 64.702 67.1997 62.588 65.0157 62.588C62.8317 62.588 61.9217 64.702 61.9217 67.6ZM62.6917 67.6C62.6917 64.982 63.3357 63.274 65.0157 63.274C66.7097 63.274 67.3397 64.968 67.3397 67.6C67.3397 70.232 66.7377 71.926 65.0437 71.926C63.3777 71.926 62.6917 70.218 62.6917 67.6Z" fill="black"/>
<line y1="73.5" x2="67.8496" y2="73.5" stroke="black"/>
</svg>
