<svg width="81" height="62" viewBox="0 0 81 62" fill="none" xmlns="http://www.w3.org/2000/svg">
<path d="M4.67068 0C2.09662 0 0 2.0498 0 4.57577V47.9933C0 50.5193 2.03433 53.0867 4.52536 53.7078L35.9746 61.5341C38.4657 62.1553 42.5343 62.1553 45.0253 61.5341L76.4746 53.7078C78.9657 53.0867 81 50.54 81 47.9933V4.57577C81 2.0498 78.9034 0 76.3293 0H4.67068Z" fill="#FFDC15"/>
<path d="M5.29357 34.96H13.3576V31.536H5.29357V34.96ZM18.4188 29.536C19.2168 29.194 21.0788 28.852 22.7888 28.852C26.3608 28.852 28.4508 30.904 28.4508 33.564C28.4508 36.186 26.6268 38.048 24.0808 38.048C22.0668 38.048 19.8248 36.984 18.6848 35.312L16.1768 38.618C17.8108 41.126 21.1168 42.418 23.9668 42.418C29.0208 42.418 33.1248 39.112 33.1248 33.374C33.1248 28.13 29.4768 24.9 24.7648 24.9C24.2328 24.9 23.6628 24.976 23.2448 25.052L24.0048 19.77H32.7448V15.4H20.1668L18.4188 29.536ZM45.9184 26.154C43.8284 26.154 42.4224 24.52 42.4224 22.734C42.4224 20.758 43.9044 19.352 46.1844 19.352C48.4644 19.352 50.0604 20.568 50.0604 22.734C50.0604 24.52 48.6544 26.154 46.6404 26.154H45.9184ZM46.6404 30.524C48.9584 30.524 50.7824 31.816 50.8204 34.286C50.8584 36.414 49.3764 38.048 46.2224 38.048C43.3724 38.048 41.7004 36.376 41.7004 34.286C41.7004 31.93 43.7524 30.524 45.9944 30.524H46.6404ZM46.2604 42.418C51.4284 42.418 55.4564 39.644 55.4564 34.742C55.4564 31.284 53.2524 28.89 50.6304 28.358V28.244C53.2144 27.142 54.7344 24.558 54.7344 21.974C54.7344 17.794 50.9344 14.982 46.2224 14.982C41.5484 14.982 37.7864 17.794 37.7864 21.974C37.7864 25.09 39.5344 27.408 41.5864 28.282V28.396C39.0024 29.27 37.0264 31.702 37.0264 35.122C37.0264 39.644 41.0924 42.418 46.2604 42.418ZM61.3855 41.23L62.8375 42.242L73.9255 27.436L72.4955 26.358L61.3855 41.23ZM58.4595 30.318C58.4595 32.672 60.2855 34.256 62.7935 34.256C65.3015 34.256 67.1275 32.672 67.1275 30.318C67.1275 27.942 65.3015 26.402 62.7935 26.402C60.2855 26.402 58.4595 27.942 58.4595 30.318ZM60.8355 30.318C60.8355 29.174 61.6935 28.448 62.7935 28.448C63.9155 28.448 64.7735 29.174 64.7735 30.318C64.7735 31.484 63.9375 32.21 62.7935 32.21C61.7155 32.21 60.8355 31.484 60.8355 30.318ZM68.1835 38.282C68.1835 40.636 70.0095 42.22 72.5175 42.22C75.0255 42.22 76.8515 40.636 76.8515 38.282C76.8515 35.906 75.0255 34.366 72.5175 34.366C70.0095 34.366 68.1835 35.906 68.1835 38.282ZM70.5595 38.282C70.5595 37.138 71.4175 36.412 72.5175 36.412C73.6395 36.412 74.4975 37.138 74.4975 38.282C74.4975 39.448 73.6615 40.174 72.5175 40.174C71.4395 40.174 70.5595 39.448 70.5595 38.282Z" fill="black"/>
</svg>
