<svg width="81" height="62" viewBox="0 0 81 62" fill="none" xmlns="http://www.w3.org/2000/svg">
<path d="M4.67068 0C2.09662 0 0 2.0498 0 4.57577V47.9933C0 50.5193 2.03433 53.0867 4.52536 53.7078L35.9746 61.5341C38.4657 62.1553 42.5343 62.1553 45.0253 61.5341L76.4746 53.7078C78.9657 53.0867 81 50.54 81 47.9933V4.57577C81 2.0498 78.9034 0 76.3293 0H4.67068Z" fill="#FFDC15"/>
<path d="M6.14709 34.96H14.2111V31.536H6.14709V34.96ZM19.2723 29.536C20.0703 29.194 21.9323 28.852 23.6423 28.852C27.2143 28.852 29.3043 30.904 29.3043 33.564C29.3043 36.186 27.4803 38.048 24.9343 38.048C22.9203 38.048 20.6783 36.984 19.5383 35.312L17.0303 38.618C18.6643 41.126 21.9703 42.418 24.8203 42.418C29.8743 42.418 33.9783 39.112 33.9783 33.374C33.9783 28.13 30.3303 24.9 25.6183 24.9C25.0863 24.9 24.5163 24.976 24.0983 25.052L24.8583 19.77H33.5983V15.4H21.0203L19.2723 29.536ZM55.0939 25.128C55.0939 19.2 51.5979 14.982 45.6699 14.982C41.4139 14.982 36.8539 18.25 36.8539 23.836C36.8539 28.548 40.3879 32.082 44.8719 32.082C47.1139 32.082 48.8239 31.208 49.9259 29.688C48.8619 34.628 45.4799 37.858 40.0079 38.96L41.4519 42.418C49.0519 41.506 55.0939 35.35 55.0939 25.128ZM50.4579 25.09C49.7739 26.534 48.3299 27.978 45.9359 27.978C43.1239 27.978 41.4899 25.85 41.4899 23.532C41.4899 21.404 43.1999 19.352 45.6699 19.352C48.8619 19.352 50.4579 22.05 50.4579 25.09ZM60.532 41.23L61.984 42.242L73.072 27.436L71.642 26.358L60.532 41.23ZM57.606 30.318C57.606 32.672 59.432 34.256 61.94 34.256C64.448 34.256 66.274 32.672 66.274 30.318C66.274 27.942 64.448 26.402 61.94 26.402C59.432 26.402 57.606 27.942 57.606 30.318ZM59.982 30.318C59.982 29.174 60.84 28.448 61.94 28.448C63.062 28.448 63.92 29.174 63.92 30.318C63.92 31.484 63.084 32.21 61.94 32.21C60.862 32.21 59.982 31.484 59.982 30.318ZM67.33 38.282C67.33 40.636 69.156 42.22 71.664 42.22C74.172 42.22 75.998 40.636 75.998 38.282C75.998 35.906 74.172 34.366 71.664 34.366C69.156 34.366 67.33 35.906 67.33 38.282ZM69.706 38.282C69.706 37.138 70.564 36.412 71.664 36.412C72.786 36.412 73.644 37.138 73.644 38.282C73.644 39.448 72.808 40.174 71.664 40.174C70.586 40.174 69.706 39.448 69.706 38.282Z" fill="black"/>
</svg>
