<svg width="81" height="62" viewBox="0 0 81 62" fill="none" xmlns="http://www.w3.org/2000/svg">
<path d="M4.67068 0C2.09662 0 0 2.0498 0 4.57577V47.9933C0 50.5193 2.03433 53.0867 4.52536 53.7078L35.9746 61.5341C38.4657 62.1553 42.5343 62.1553 45.0253 61.5341L76.4746 53.7078C78.9657 53.0867 81 50.54 81 47.9933V4.57577C81 2.0498 78.9034 0 76.3293 0H4.67068Z" fill="#FFDC15"/>
<path d="M6.72228 34.96H14.7863V31.536H6.72228V34.96ZM19.8475 29.536C20.6455 29.194 22.5075 28.852 24.2175 28.852C27.7895 28.852 29.8795 30.904 29.8795 33.564C29.8795 36.186 28.0555 38.048 25.5095 38.048C23.4955 38.048 21.2535 36.984 20.1135 35.312L17.6055 38.618C19.2395 41.126 22.5455 42.418 25.3955 42.418C30.4495 42.418 34.5535 39.112 34.5535 33.374C34.5535 28.13 30.9055 24.9 26.1935 24.9C25.6615 24.9 25.0915 24.976 24.6735 25.052L25.4335 19.77H34.1735V15.4H21.5955L19.8475 29.536ZM37.6951 42H54.4151V37.934H43.3571C45.4471 36.224 53.3891 29.498 53.3891 22.05C53.3891 18.516 50.9191 15.096 45.8651 15.096C41.6471 15.096 38.6071 17.528 37.8851 21.404L41.5331 23.038C42.1031 20.796 43.4711 19.466 45.3711 19.466C47.5751 19.466 48.7531 20.796 48.7531 22.924C48.7531 28.092 42.0271 34.248 37.6951 38.504V42ZM59.9568 41.23L61.4088 42.242L72.4968 27.436L71.0668 26.358L59.9568 41.23ZM57.0308 30.318C57.0308 32.672 58.8568 34.256 61.3648 34.256C63.8728 34.256 65.6988 32.672 65.6988 30.318C65.6988 27.942 63.8728 26.402 61.3648 26.402C58.8568 26.402 57.0308 27.942 57.0308 30.318ZM59.4068 30.318C59.4068 29.174 60.2648 28.448 61.3648 28.448C62.4868 28.448 63.3448 29.174 63.3448 30.318C63.3448 31.484 62.5088 32.21 61.3648 32.21C60.2868 32.21 59.4068 31.484 59.4068 30.318ZM66.7548 38.282C66.7548 40.636 68.5808 42.22 71.0888 42.22C73.5968 42.22 75.4228 40.636 75.4228 38.282C75.4228 35.906 73.5968 34.366 71.0888 34.366C68.5808 34.366 66.7548 35.906 66.7548 38.282ZM69.1308 38.282C69.1308 37.138 69.9888 36.412 71.0888 36.412C72.2108 36.412 73.0688 37.138 73.0688 38.282C73.0688 39.448 72.2328 40.174 71.0888 40.174C70.0108 40.174 69.1308 39.448 69.1308 38.282Z" fill="black"/>
</svg>
