<svg width="81" height="62" viewBox="0 0 81 62" fill="none" xmlns="http://www.w3.org/2000/svg">
<path d="M4.67068 0C2.09662 0 0 2.0498 0 4.57577V47.9933C0 50.5193 2.03433 53.0867 4.52536 53.7078L35.9746 61.5341C38.4657 62.1553 42.5343 62.1553 45.0253 61.5341L76.4746 53.7078C78.9657 53.0867 81 50.54 81 47.9933V4.57577C81 2.0498 78.9034 0 76.3293 0H4.67068Z" fill="#FFDC15"/>
<path d="M5.16369 34.96H13.2277V31.536H5.16369V34.96ZM27.9409 42H32.3109V35.844H35.7309V31.474H32.3109V24.9H27.9409V31.474H21.4429L31.0569 15.4H26.0409L15.7809 32.614V35.844H27.9409V42ZM56.0773 25.128C56.0773 19.2 52.5813 14.982 46.6533 14.982C42.3973 14.982 37.8373 18.25 37.8373 23.836C37.8373 28.548 41.3713 32.082 45.8553 32.082C48.0973 32.082 49.8073 31.208 50.9093 29.688C49.8453 34.628 46.4633 37.858 40.9913 38.96L42.4353 42.418C50.0353 41.506 56.0773 35.35 56.0773 25.128ZM51.4413 25.09C50.7573 26.534 49.3133 27.978 46.9193 27.978C44.1073 27.978 42.4733 25.85 42.4733 23.532C42.4733 21.404 44.1833 19.352 46.6533 19.352C49.8453 19.352 51.4413 22.05 51.4413 25.09ZM61.5154 41.23L62.9674 42.242L74.0554 27.436L72.6254 26.358L61.5154 41.23ZM58.5894 30.318C58.5894 32.672 60.4154 34.256 62.9234 34.256C65.4314 34.256 67.2574 32.672 67.2574 30.318C67.2574 27.942 65.4314 26.402 62.9234 26.402C60.4154 26.402 58.5894 27.942 58.5894 30.318ZM60.9654 30.318C60.9654 29.174 61.8234 28.448 62.9234 28.448C64.0454 28.448 64.9034 29.174 64.9034 30.318C64.9034 31.484 64.0674 32.21 62.9234 32.21C61.8454 32.21 60.9654 31.484 60.9654 30.318ZM68.3134 38.282C68.3134 40.636 70.1394 42.22 72.6474 42.22C75.1554 42.22 76.9814 40.636 76.9814 38.282C76.9814 35.906 75.1554 34.366 72.6474 34.366C70.1394 34.366 68.3134 35.906 68.3134 38.282ZM70.6894 38.282C70.6894 37.138 71.5474 36.412 72.6474 36.412C73.7694 36.412 74.6274 37.138 74.6274 38.282C74.6274 39.448 73.7914 40.174 72.6474 40.174C71.5694 40.174 70.6894 39.448 70.6894 38.282Z" fill="black"/>
</svg>
