<svg width="76" height="52" viewBox="0 0 76 52" fill="none" xmlns="http://www.w3.org/2000/svg">
<rect width="76" height="52" rx="6" fill="#E30613"/>
<path d="M37.3257 32.3509C41.441 32.3509 44.6311 29.8307 44.6311 25.7155C44.6311 23.0677 43.1317 20.8665 40.3563 20.3879V20.2922C42.6213 19.3033 43.7698 17.5168 43.7698 14.9966C43.7698 11.4875 41.1858 9.31822 37.3576 9.31822C34.2951 9.31822 31.9663 10.5305 30.7541 12.7955L32.7957 15.3795C33.9123 13.7525 35.2202 12.9869 37.0067 12.9869C38.9208 12.9869 39.8459 14.1034 39.8459 15.6985C39.8459 17.6125 38.2189 18.761 36.4006 18.761H34.965V22.4296H36.5601C39.1441 22.4296 40.7072 23.5462 40.7072 25.5879C40.7072 27.2786 39.495 28.6823 37.1024 28.6823C35.1564 28.6823 33.4338 27.5657 32.3172 25.9069L30.2436 28.5866C31.424 30.8516 33.9123 32.3509 37.3257 32.3509Z" fill="white"/>
<path d="M9.40348 45H10.7546V37.4H9.40348V40.5244H5.18126V37.4H3.83015V45H5.18126V41.7911H9.40348V45ZM13.6035 39.0044C14.2115 38.6836 14.7689 38.4471 15.6978 38.4471C17.2009 38.4471 17.4204 39.4267 17.4204 40.8453C16.9138 40.4738 16.12 40.3556 15.5289 40.3556C13.8906 40.3556 12.6578 41.2169 12.6578 42.7707C12.6578 44.24 13.6035 45.1182 14.9884 45.1182C16.2382 45.1182 16.9644 44.5947 17.4204 44.0204V45H18.704V40.3387C18.704 38.3627 17.944 37.2311 15.7822 37.2311C14.8364 37.2311 13.9244 37.5013 13.2489 37.9236L13.6035 39.0044ZM15.4613 43.9022C14.5831 43.9022 14.0933 43.4293 14.0933 42.7031C14.0933 41.8249 14.904 41.4533 15.7146 41.4533C16.3733 41.4533 16.9475 41.6222 17.4204 41.96V42.9227C17.032 43.3787 16.4578 43.9022 15.4613 43.9022ZM27.6207 37.4H25.8473L22.6384 41.1156L26.0669 45H27.9415L24.2935 41.0311L27.6207 37.4ZM20.9664 45H22.3175V37.4H20.9664V45ZM34.5302 45H35.8813V37.4H30.5951L30.46 39.7644C30.2742 43.2773 29.1933 43.8347 28.6191 43.784L28.7204 45.1013C30.2911 45.1013 31.4395 44.3582 31.7773 40.0347L31.8617 38.7511H34.5302V45ZM44.3127 43.1084C43.8229 43.5644 42.9616 43.9022 41.982 43.9022C40.4958 43.9022 39.4487 43.0578 39.3305 41.6222H45.174C45.2247 41.3858 45.2585 41.0818 45.2585 40.7102C45.2585 38.616 43.6878 37.2311 41.7287 37.2311C39.2291 37.2311 37.8105 38.9876 37.8105 41.2C37.8105 43.5982 39.4149 45.1689 41.8807 45.1689C42.894 45.1689 43.9918 44.848 44.7349 44.1724L44.3127 43.1084ZM41.6611 38.4978C42.9785 38.4978 43.7891 39.2747 43.8567 40.5244H39.246C39.398 39.3591 40.2762 38.4978 41.6611 38.4978ZM48.4425 45L52.8337 39.3422V45H54.1848V37.4H52.8337L48.4425 43.0578V37.4H47.0914V45H48.4425ZM48.1723 33.5156C48.1723 34.8498 49.0674 35.88 50.7394 35.88C52.2594 35.88 53.239 34.8498 53.239 33.5156H51.9723C51.9048 34.4276 51.4825 34.8498 50.7394 34.8498C49.9288 34.8498 49.5065 34.4276 49.439 33.5156H48.1723ZM63.2951 37.4H61.5218L58.3129 41.1156L61.7414 45H63.616L59.968 41.0311L63.2951 37.4ZM56.6409 45H57.992V37.4H56.6409V45ZM66.4035 45L70.7946 39.3422V45H72.1457V37.4H70.7946L66.4035 43.0578V37.4H65.0524V45H66.4035Z" fill="white"/>
</svg>
