<svg width="76" height="52" viewBox="0 0 76 52" fill="none" xmlns="http://www.w3.org/2000/svg">
<rect width="76" height="52" rx="6" fill="#E30613"/>
<path d="M30.5256 24.0885C30.5256 28.5866 33.5244 32.3509 38.5009 32.3509C42.0739 32.3509 45.7106 29.7031 45.7106 25.0136C45.7106 20.9303 42.8714 18.1868 39.458 18.1868C37.2249 18.1868 35.7893 18.9843 34.8642 20.2603C36.0127 15.9537 39.3623 13.1783 42.999 12.0936L41.4997 9.31822C36.6188 10.5305 30.5256 15.8899 30.5256 24.0885ZM34.4176 24.1204C34.9918 22.9081 36.2041 21.6002 38.2138 21.6002C40.5745 21.6002 41.8187 23.2272 41.8187 25.2688C41.8187 27.0553 40.5745 28.6823 38.5328 28.6823C35.8531 28.6823 34.4176 26.6725 34.4176 24.1204Z" fill="white"/>
<path d="M14.6153 45H15.9664V37.4H14.6153V40.5244H10.3931V37.4H9.04195V45H10.3931V41.7911H14.6153V45ZM18.8153 39.0044C19.4233 38.6836 19.9807 38.4471 20.9096 38.4471C22.4127 38.4471 22.6322 39.4267 22.6322 40.8453C22.1256 40.4738 21.3318 40.3556 20.7407 40.3556C19.1025 40.3556 17.8696 41.2169 17.8696 42.7707C17.8696 44.24 18.8153 45.1182 20.2002 45.1182C21.45 45.1182 22.1762 44.5947 22.6322 44.0204V45H23.9158V40.3387C23.9158 38.3627 23.1558 37.2311 20.994 37.2311C20.0482 37.2311 19.1362 37.5013 18.4607 37.9236L18.8153 39.0044ZM20.6731 43.9022C19.7949 43.9022 19.3051 43.4293 19.3051 42.7031C19.3051 41.8249 20.1158 41.4533 20.9265 41.4533C21.5851 41.4533 22.1593 41.6222 22.6322 41.96V42.9227C22.2438 43.3787 21.6696 43.9022 20.6731 43.9022ZM32.8325 37.4H31.0591L27.8502 41.1156L31.2787 45H33.1533L29.5053 41.0311L32.8325 37.4ZM26.1782 45H27.5293V37.4H26.1782V45ZM39.742 45H41.0931V37.4H35.8069L35.6718 39.7644C35.486 43.2773 34.4051 43.8347 33.8309 43.784L33.9322 45.1013C35.5029 45.1013 36.6513 44.3582 36.9891 40.0347L37.0736 38.7511H39.742V45ZM49.5245 43.1084C49.0347 43.5644 48.1734 43.9022 47.1938 43.9022C45.7076 43.9022 44.6605 43.0578 44.5423 41.6222H50.3858C50.4365 41.3858 50.4703 41.0818 50.4703 40.7102C50.4703 38.616 48.8996 37.2311 46.9405 37.2311C44.4409 37.2311 43.0223 38.9876 43.0223 41.2C43.0223 43.5982 44.6267 45.1689 47.0925 45.1689C48.1058 45.1689 49.2036 44.848 49.9467 44.1724L49.5245 43.1084ZM46.8729 38.4978C48.1903 38.4978 49.0009 39.2747 49.0685 40.5244H44.4578C44.6098 39.3591 45.488 38.4978 46.8729 38.4978ZM58.1998 43.1084C57.7101 43.5644 56.8487 43.9022 55.8692 43.9022C54.3829 43.9022 53.3358 43.0578 53.2176 41.6222H59.0612C59.1118 41.3858 59.1456 41.0818 59.1456 40.7102C59.1456 38.616 57.5749 37.2311 55.6158 37.2311C53.1163 37.2311 51.6976 38.9876 51.6976 41.2C51.6976 43.5982 53.3021 45.1689 55.7678 45.1689C56.7812 45.1689 57.8789 44.848 58.6221 44.1724L58.1998 43.1084ZM55.5483 38.4978C56.8656 38.4978 57.6763 39.2747 57.7438 40.5244H53.1332C53.2852 39.3591 54.1634 38.4978 55.5483 38.4978ZM67.6328 37.4H65.8595L62.6506 41.1156L66.079 45H67.9537L64.3057 41.0311L67.6328 37.4ZM60.9786 45H62.3297V37.4H60.9786V45Z" fill="white"/>
</svg>
