<svg width="141" height="95" viewBox="0 0 141 95" fill="none" xmlns="http://www.w3.org/2000/svg">
<path d="M1.056 21.736L3.984 26.296L8.112 23.176V49H13.632V15.304H9.648L1.056 21.736ZM44.9081 49H50.4281V41.224H54.7481V35.704H50.4281V27.4H44.9081V35.704H36.7001L48.8441 15.4H42.5081L29.5481 37.144V41.224H44.9081V49ZM80.4488 27.688C80.4488 20.2 76.0328 14.872 68.5448 14.872C63.1688 14.872 57.4088 19 57.4088 26.056C57.4088 32.008 61.8728 36.472 67.5368 36.472C70.3688 36.472 72.5288 35.368 73.9208 33.448C72.5768 39.688 68.3047 43.768 61.3928 45.16L63.2168 49.528C72.8168 48.376 80.4488 40.6 80.4488 27.688ZM74.5928 27.64C73.7288 29.464 71.9048 31.288 68.8808 31.288C65.3288 31.288 63.2648 28.6 63.2648 25.672C63.2648 22.984 65.4248 20.392 68.5448 20.392C72.5768 20.392 74.5928 23.8 74.5928 27.64ZM107.074 27.688C107.074 20.2 102.658 14.872 95.1698 14.872C89.7938 14.872 84.0338 19 84.0338 26.056C84.0338 32.008 88.4978 36.472 94.1618 36.472C96.9938 36.472 99.1538 35.368 100.546 33.448C99.2018 39.688 94.9297 43.768 88.0178 45.16L89.8418 49.528C99.4418 48.376 107.074 40.6 107.074 27.688ZM101.218 27.64C100.354 29.464 98.5298 31.288 95.5058 31.288C91.9538 31.288 89.8898 28.6 89.8898 25.672C89.8898 22.984 92.0498 20.392 95.1698 20.392C99.2018 20.392 101.218 23.8 101.218 27.64Z" fill="#383838"/>
<path d="M120.2 21.62C120.2 18.5 118.36 16.28 115.24 16.28C113 16.28 110.6 18 110.6 20.94C110.6 23.42 112.46 25.28 114.82 25.28C116 25.28 116.9 24.82 117.48 24.02C116.92 26.62 115.14 28.32 112.26 28.9L113.02 30.72C117.02 30.24 120.2 27 120.2 21.62ZM117.76 21.6C117.4 22.36 116.64 23.12 115.38 23.12C113.9 23.12 113.04 22 113.04 20.78C113.04 19.66 113.94 18.58 115.24 18.58C116.92 18.58 117.76 20 117.76 21.6ZM131.294 21.62C131.294 18.5 129.454 16.28 126.334 16.28C124.094 16.28 121.694 18 121.694 20.94C121.694 23.42 123.554 25.28 125.914 25.28C127.094 25.28 127.994 24.82 128.574 24.02C128.014 26.62 126.234 28.32 123.354 28.9L124.114 30.72C128.114 30.24 131.294 27 131.294 21.62ZM128.854 21.6C128.494 22.36 127.734 23.12 126.474 23.12C124.994 23.12 124.134 22 124.134 20.78C124.134 19.66 125.034 18.58 126.334 18.58C128.014 18.58 128.854 20 128.854 21.6Z" fill="#383838"/>
<path d="M110.26 45.54H112.22V47.2H110.26V49.04H112.22V51.5H114.66V49.04H117.94V47.2H114.66V45.54H116.5C119.82 45.54 121.6 43.96 121.6 41.56C121.6 39.26 120.32 37.46 116.18 37.46C115.2 37.46 113 37.5 112.22 37.5V43.7H110.26V45.54ZM116.44 39.76C118.1 39.76 119 40.32 119 41.78C119 43.2 117.86 43.7 116.42 43.7H114.66V39.8C115.32 39.78 115.94 39.76 116.44 39.76Z" fill="#383838"/>
<path d="M7.968 84.288C11.872 84.288 14.784 81.824 14.784 77.888C14.784 75.296 13.184 72.864 10.368 72.448V72.352C12.672 71.424 13.92 69.28 13.92 66.944C13.92 63.424 11.648 61.312 8 61.312C5.152 61.312 2.912 62.656 2.016 64.992L3.008 66.048C3.872 64.224 5.344 62.976 7.872 62.976C10.464 62.976 12.16 64.448 12.16 67.168C12.16 69.792 10.08 71.712 7.968 71.712H6.24V73.376H8.16C10.944 73.376 13.024 75.168 13.024 77.824C13.024 80.544 11.104 82.624 7.968 82.624C5.824 82.624 3.584 81.664 2.432 79.264L1.44 80.416C2.592 83.104 5.12 84.288 7.968 84.288ZM26.3218 76.064C26.3218 80.448 28.9138 84.288 33.9058 84.288C37.3298 84.288 40.5618 81.376 40.5618 77.184C40.5618 73.12 37.9378 70.272 34.0658 70.272C31.0898 70.272 29.1378 71.936 28.2418 73.92C29.1378 67.424 33.5538 63.584 37.8098 62.56L37.1058 61.312C32.1458 62.4 26.3218 67.84 26.3218 76.064ZM28.0818 76.064C28.5938 74.176 30.4178 71.84 33.5538 71.84C37.0098 71.84 38.8018 74.304 38.8018 77.312C38.8018 80.192 36.6258 82.624 33.8738 82.624C29.9698 82.624 28.0818 79.456 28.0818 76.064ZM57.9955 69.632C57.9955 65.056 55.6275 61.312 50.6355 61.312C47.2435 61.312 43.7235 64.16 43.7235 68.352C43.7235 72.128 46.3795 75.2 50.3795 75.2C53.2275 75.2 55.2115 73.76 56.0755 71.776C55.4995 78.016 51.7235 82.016 46.4435 82.976L47.0515 84.288C53.2595 83.424 57.9955 78.016 57.9955 69.632ZM56.2355 69.632C55.7555 71.52 53.8995 73.632 50.7955 73.632C47.3075 73.632 45.4835 71.008 45.4835 68.224C45.4835 65.344 47.9475 62.976 50.6995 62.976C54.5715 62.976 56.2355 66.24 56.2355 69.632ZM75.5268 69.632C75.5268 65.056 73.1588 61.312 68.1667 61.312C64.7748 61.312 61.2548 64.16 61.2548 68.352C61.2548 72.128 63.9108 75.2 67.9108 75.2C70.7588 75.2 72.7428 73.76 73.6068 71.776C73.0308 78.016 69.2548 82.016 63.9748 82.976L64.5828 84.288C70.7908 83.424 75.5268 78.016 75.5268 69.632ZM73.7668 69.632C73.2868 71.52 71.4308 73.632 68.3268 73.632C64.8388 73.632 63.0148 71.008 63.0148 68.224C63.0148 65.344 65.4788 62.976 68.2308 62.976C72.1028 62.976 73.7668 66.24 73.7668 69.632Z" fill="black"/>
<path d="M79.336 83.062H80.904V84.784H79.336V85.386H80.904V87.5H81.674V85.386H84.208V84.784H81.674V83.062H83.298C85.748 83.062 86.784 81.9 86.784 80.374C86.784 78.918 86.028 77.672 83.298 77.672C82.738 77.672 81.45 77.7 80.904 77.7V82.46H79.336V83.062ZM83.368 78.4C85.216 78.4 85.972 79.142 85.972 80.43C85.972 81.732 85.048 82.46 83.27 82.46H81.674V78.428C82.136 78.414 82.934 78.4 83.368 78.4Z" fill="black"/>
<path d="M79.91 67.6C79.91 70.512 80.848 72.612 83.032 72.612C85.216 72.612 86.098 70.512 86.098 67.6C86.098 64.702 85.188 62.588 83.004 62.588C80.82 62.588 79.91 64.702 79.91 67.6ZM80.68 67.6C80.68 64.982 81.324 63.274 83.004 63.274C84.698 63.274 85.328 64.968 85.328 67.6C85.328 70.232 84.726 71.926 83.032 71.926C81.366 71.926 80.68 70.218 80.68 67.6ZM87.9217 67.6C87.9217 70.512 88.8597 72.612 91.0437 72.612C93.2277 72.612 94.1097 70.512 94.1097 67.6C94.1097 64.702 93.1997 62.588 91.0157 62.588C88.8317 62.588 87.9217 64.702 87.9217 67.6ZM88.6917 67.6C88.6917 64.982 89.3357 63.274 91.0157 63.274C92.7097 63.274 93.3397 64.968 93.3397 67.6C93.3397 70.232 92.7377 71.926 91.0437 71.926C89.3777 71.926 88.6917 70.218 88.6917 67.6Z" fill="black"/>
<line y1="73.5" x2="92.0816" y2="73.5" stroke="black"/>
</svg>
