<svg width="141" height="95" viewBox="0 0 141 95" fill="none" xmlns="http://www.w3.org/2000/svg">
<path d="M24.48 27.688C24.48 20.2 20.064 14.872 12.576 14.872C7.2 14.872 1.44 19 1.44 26.056C1.44 32.008 5.904 36.472 11.568 36.472C14.4 36.472 16.56 35.368 17.952 33.448C16.608 39.688 12.336 43.768 5.424 45.16L7.248 49.528C16.848 48.376 24.48 40.6 24.48 27.688ZM18.624 27.64C17.76 29.464 15.936 31.288 12.912 31.288C9.36 31.288 7.296 28.6 7.296 25.672C7.296 22.984 9.456 20.392 12.576 20.392C16.608 20.392 18.624 23.8 18.624 27.64ZM51.105 27.688C51.105 20.2 46.689 14.872 39.201 14.872C33.825 14.872 28.065 19 28.065 26.056C28.065 32.008 32.529 36.472 38.193 36.472C41.025 36.472 43.185 35.368 44.577 33.448C43.233 39.688 38.961 43.768 32.049 45.16L33.873 49.528C43.473 48.376 51.105 40.6 51.105 27.688ZM45.249 27.64C44.385 29.464 42.561 31.288 39.537 31.288C35.985 31.288 33.921 28.6 33.921 25.672C33.921 22.984 36.081 20.392 39.201 20.392C43.233 20.392 45.249 23.8 45.249 27.64ZM77.73 27.688C77.73 20.2 73.314 14.872 65.826 14.872C60.45 14.872 54.69 19 54.69 26.056C54.69 32.008 59.154 36.472 64.818 36.472C67.65 36.472 69.81 35.368 71.202 33.448C69.858 39.688 65.586 43.768 58.674 45.16L60.498 49.528C70.098 48.376 77.73 40.6 77.73 27.688ZM71.874 27.64C71.01 29.464 69.186 31.288 66.162 31.288C62.61 31.288 60.546 28.6 60.546 25.672C60.546 22.984 62.706 20.392 65.826 20.392C69.858 20.392 71.874 23.8 71.874 27.64Z" fill="#383838"/>
<path d="M90.2 21.62C90.2 18.5 88.36 16.28 85.24 16.28C83 16.28 80.6 18 80.6 20.94C80.6 23.42 82.46 25.28 84.82 25.28C86 25.28 86.9 24.82 87.48 24.02C86.92 26.62 85.14 28.32 82.26 28.9L83.02 30.72C87.02 30.24 90.2 27 90.2 21.62ZM87.76 21.6C87.4 22.36 86.64 23.12 85.38 23.12C83.9 23.12 83.04 22 83.04 20.78C83.04 19.66 83.94 18.58 85.24 18.58C86.92 18.58 87.76 20 87.76 21.6ZM101.294 21.62C101.294 18.5 99.4538 16.28 96.3338 16.28C94.0938 16.28 91.6938 18 91.6938 20.94C91.6938 23.42 93.5538 25.28 95.9138 25.28C97.0938 25.28 97.9938 24.82 98.5738 24.02C98.0138 26.62 96.2337 28.32 93.3538 28.9L94.1138 30.72C98.1138 30.24 101.294 27 101.294 21.62ZM98.8538 21.6C98.4938 22.36 97.7338 23.12 96.4738 23.12C94.9938 23.12 94.1338 22 94.1338 20.78C94.1338 19.66 95.0338 18.58 96.3338 18.58C98.0138 18.58 98.8538 20 98.8538 21.6Z" fill="#383838"/>
<path d="M80.26 45.54H82.22V47.2H80.26V49.04H82.22V51.5H84.66V49.04H87.94V47.2H84.66V45.54H86.5C89.82 45.54 91.6 43.96 91.6 41.56C91.6 39.26 90.32 37.46 86.18 37.46C85.2 37.46 83 37.5 82.22 37.5V43.7H80.26V45.54ZM86.44 39.76C88.1 39.76 89 40.32 89 41.78C89 43.2 87.86 43.7 86.42 43.7H84.66V39.8C85.32 39.78 85.94 39.76 86.44 39.76Z" fill="#383838"/>
<path d="M1.44 65.472L2.336 66.816L6.016 63.84V84H7.68V61.408H6.528L1.44 65.472ZM35.2455 69.632C35.2455 65.056 32.8775 61.312 27.8855 61.312C24.4935 61.312 20.9735 64.16 20.9735 68.352C20.9735 72.128 23.6295 75.2 27.6295 75.2C30.4775 75.2 32.4615 73.76 33.3255 71.776C32.7495 78.016 28.9735 82.016 23.6935 82.976L24.3015 84.288C30.5095 83.424 35.2455 78.016 35.2455 69.632ZM33.4855 69.632C33.0055 71.52 31.1495 73.632 28.0455 73.632C24.5575 73.632 22.7335 71.008 22.7335 68.224C22.7335 65.344 25.1975 62.976 27.9495 62.976C31.8215 62.976 33.4855 66.24 33.4855 69.632ZM52.7768 69.632C52.7768 65.056 50.4088 61.312 45.4167 61.312C42.0248 61.312 38.5048 64.16 38.5048 68.352C38.5048 72.128 41.1608 75.2 45.1608 75.2C48.0088 75.2 49.9928 73.76 50.8568 71.776C50.2808 78.016 46.5048 82.016 41.2248 82.976L41.8328 84.288C48.0408 83.424 52.7768 78.016 52.7768 69.632ZM51.0168 69.632C50.5368 71.52 48.6808 73.632 45.5768 73.632C42.0888 73.632 40.2648 71.008 40.2648 68.224C40.2648 65.344 42.7288 62.976 45.4808 62.976C49.3528 62.976 51.0168 66.24 51.0168 69.632ZM70.308 69.632C70.308 65.056 67.94 61.312 62.948 61.312C59.556 61.312 56.036 64.16 56.036 68.352C56.036 72.128 58.692 75.2 62.692 75.2C65.54 75.2 67.524 73.76 68.388 71.776C67.812 78.016 64.036 82.016 58.756 82.976L59.364 84.288C65.572 83.424 70.308 78.016 70.308 69.632ZM68.548 69.632C68.068 71.52 66.212 73.632 63.108 73.632C59.62 73.632 57.796 71.008 57.796 68.224C57.796 65.344 60.26 62.976 63.012 62.976C66.884 62.976 68.548 66.24 68.548 69.632Z" fill="black"/>
<path d="M74.336 83.062H75.904V84.784H74.336V85.386H75.904V87.5H76.674V85.386H79.208V84.784H76.674V83.062H78.298C80.748 83.062 81.784 81.9 81.784 80.374C81.784 78.918 81.028 77.672 78.298 77.672C77.738 77.672 76.45 77.7 75.904 77.7V82.46H74.336V83.062ZM78.368 78.4C80.216 78.4 80.972 79.142 80.972 80.43C80.972 81.732 80.048 82.46 78.27 82.46H76.674V78.428C77.136 78.414 77.934 78.4 78.368 78.4Z" fill="black"/>
<path d="M74.91 67.6C74.91 70.512 75.848 72.612 78.032 72.612C80.216 72.612 81.098 70.512 81.098 67.6C81.098 64.702 80.188 62.588 78.004 62.588C75.82 62.588 74.91 64.702 74.91 67.6ZM75.68 67.6C75.68 64.982 76.324 63.274 78.004 63.274C79.698 63.274 80.328 64.968 80.328 67.6C80.328 70.232 79.726 71.926 78.032 71.926C76.366 71.926 75.68 70.218 75.68 67.6ZM82.9217 67.6C82.9217 70.512 83.8597 72.612 86.0437 72.612C88.2277 72.612 89.1097 70.512 89.1097 67.6C89.1097 64.702 88.1997 62.588 86.0157 62.588C83.8317 62.588 82.9217 64.702 82.9217 67.6ZM83.6917 67.6C83.6917 64.982 84.3357 63.274 86.0157 63.274C87.7097 63.274 88.3397 64.968 88.3397 67.6C88.3397 70.232 87.7377 71.926 86.0437 71.926C84.3777 71.926 83.6917 70.218 83.6917 67.6Z" fill="black"/>
<line y1="73.5" x2="92.0816" y2="73.5" stroke="black"/>
</svg>
