<svg width="141" height="95" viewBox="0 0 141 95" fill="none" xmlns="http://www.w3.org/2000/svg">
<path d="M1.056 21.736L3.984 26.296L8.112 23.176V49H13.632V15.304H9.648L1.056 21.736ZM42.7961 28.984C40.1561 28.984 38.3801 26.92 38.3801 24.664C38.3801 22.168 40.2521 20.392 43.1321 20.392C46.0121 20.392 48.0281 21.928 48.0281 24.664C48.0281 26.92 46.2521 28.984 43.7081 28.984H42.7961ZM43.7081 34.504C46.6361 34.504 48.9401 36.136 48.9881 39.256C49.0361 41.944 47.1641 44.008 43.1801 44.008C39.5801 44.008 37.4681 41.896 37.4681 39.256C37.4681 36.28 40.0601 34.504 42.8921 34.504H43.7081ZM43.2281 49.528C49.7561 49.528 54.8441 46.024 54.8441 39.832C54.8441 35.464 52.0601 32.44 48.7481 31.768V31.624C52.0121 30.232 53.9321 26.968 53.9321 23.704C53.9321 18.424 49.1321 14.872 43.1801 14.872C37.2761 14.872 32.5241 18.424 32.5241 23.704C32.5241 27.64 34.7321 30.568 37.3241 31.672V31.816C34.0601 32.92 31.5641 35.992 31.5641 40.312C31.5641 46.024 36.7001 49.528 43.2281 49.528ZM82.0894 27.688C82.0894 20.2 77.6734 14.872 70.1854 14.872C64.8094 14.872 59.0494 19 59.0494 26.056C59.0494 32.008 63.5134 36.472 69.1774 36.472C72.0094 36.472 74.1694 35.368 75.5614 33.448C74.2174 39.688 69.9454 43.768 63.0334 45.16L64.8574 49.528C74.4574 48.376 82.0894 40.6 82.0894 27.688ZM76.2334 27.64C75.3694 29.464 73.5454 31.288 70.5214 31.288C66.9694 31.288 64.9054 28.6 64.9054 25.672C64.9054 22.984 67.0654 20.392 70.1854 20.392C74.2174 20.392 76.2334 23.8 76.2334 27.64ZM108.714 27.688C108.714 20.2 104.298 14.872 96.8104 14.872C91.4344 14.872 85.6744 19 85.6744 26.056C85.6744 32.008 90.1384 36.472 95.8024 36.472C98.6344 36.472 100.794 35.368 102.186 33.448C100.842 39.688 96.5704 43.768 89.6584 45.16L91.4824 49.528C101.082 48.376 108.714 40.6 108.714 27.688ZM102.858 27.64C101.994 29.464 100.17 31.288 97.1464 31.288C93.5944 31.288 91.5304 28.6 91.5304 25.672C91.5304 22.984 93.6904 20.392 96.8104 20.392C100.842 20.392 102.858 23.8 102.858 27.64Z" fill="#383838"/>
<path d="M121.2 21.62C121.2 18.5 119.36 16.28 116.24 16.28C114 16.28 111.6 18 111.6 20.94C111.6 23.42 113.46 25.28 115.82 25.28C117 25.28 117.9 24.82 118.48 24.02C117.92 26.62 116.14 28.32 113.26 28.9L114.02 30.72C118.02 30.24 121.2 27 121.2 21.62ZM118.76 21.6C118.4 22.36 117.64 23.12 116.38 23.12C114.9 23.12 114.04 22 114.04 20.78C114.04 19.66 114.94 18.58 116.24 18.58C117.92 18.58 118.76 20 118.76 21.6ZM132.294 21.62C132.294 18.5 130.454 16.28 127.334 16.28C125.094 16.28 122.694 18 122.694 20.94C122.694 23.42 124.554 25.28 126.914 25.28C128.094 25.28 128.994 24.82 129.574 24.02C129.014 26.62 127.234 28.32 124.354 28.9L125.114 30.72C129.114 30.24 132.294 27 132.294 21.62ZM129.854 21.6C129.494 22.36 128.734 23.12 127.474 23.12C125.994 23.12 125.134 22 125.134 20.78C125.134 19.66 126.034 18.58 127.334 18.58C129.014 18.58 129.854 20 129.854 21.6Z" fill="#383838"/>
<path d="M111.26 45.54H113.22V47.2H111.26V49.04H113.22V51.5H115.66V49.04H118.94V47.2H115.66V45.54H117.5C120.82 45.54 122.6 43.96 122.6 41.56C122.6 39.26 121.32 37.46 117.18 37.46C116.2 37.46 114 37.5 113.22 37.5V43.7H111.26V45.54ZM117.44 39.76C119.1 39.76 120 40.32 120 41.78C120 43.2 118.86 43.7 117.42 43.7H115.66V39.8C116.32 39.78 116.94 39.76 117.44 39.76Z" fill="#383838"/>
<path d="M11.168 84H12.832V78.08H16.128V76.416H12.832V69.6H11.168V76.416H3.008L12.48 61.6H10.56L0.768 76.96V78.08H11.168V84ZM25.838 63.264H36.718L28.398 84H30.254L38.766 62.624V61.6H25.838V63.264ZM55.7455 69.632C55.7455 65.056 53.3775 61.312 48.3855 61.312C44.9935 61.312 41.4735 64.16 41.4735 68.352C41.4735 72.128 44.1295 75.2 48.1295 75.2C50.9775 75.2 52.9615 73.76 53.8255 71.776C53.2495 78.016 49.4735 82.016 44.1935 82.976L44.8015 84.288C51.0095 83.424 55.7455 78.016 55.7455 69.632ZM53.9855 69.632C53.5055 71.52 51.6495 73.632 48.5455 73.632C45.0575 73.632 43.2335 71.008 43.2335 68.224C43.2335 65.344 45.6975 62.976 48.4495 62.976C52.3215 62.976 53.9855 66.24 53.9855 69.632ZM73.2768 69.632C73.2768 65.056 70.9088 61.312 65.9167 61.312C62.5248 61.312 59.0048 64.16 59.0048 68.352C59.0048 72.128 61.6608 75.2 65.6608 75.2C68.5088 75.2 70.4928 73.76 71.3568 71.776C70.7808 78.016 67.0048 82.016 61.7248 82.976L62.3328 84.288C68.5408 83.424 73.2768 78.016 73.2768 69.632ZM71.5168 69.632C71.0368 71.52 69.1808 73.632 66.0768 73.632C62.5888 73.632 60.7648 71.008 60.7648 68.224C60.7648 65.344 63.2288 62.976 65.9808 62.976C69.8528 62.976 71.5168 66.24 71.5168 69.632Z" fill="black"/>
<path d="M76.336 83.062H77.904V84.784H76.336V85.386H77.904V87.5H78.674V85.386H81.208V84.784H78.674V83.062H80.298C82.748 83.062 83.784 81.9 83.784 80.374C83.784 78.918 83.028 77.672 80.298 77.672C79.738 77.672 78.45 77.7 77.904 77.7V82.46H76.336V83.062ZM80.368 78.4C82.216 78.4 82.972 79.142 82.972 80.43C82.972 81.732 82.048 82.46 80.27 82.46H78.674V78.428C79.136 78.414 79.934 78.4 80.368 78.4Z" fill="black"/>
<path d="M76.91 67.6C76.91 70.512 77.848 72.612 80.032 72.612C82.216 72.612 83.098 70.512 83.098 67.6C83.098 64.702 82.188 62.588 80.004 62.588C77.82 62.588 76.91 64.702 76.91 67.6ZM77.68 67.6C77.68 64.982 78.324 63.274 80.004 63.274C81.698 63.274 82.328 64.968 82.328 67.6C82.328 70.232 81.726 71.926 80.032 71.926C78.366 71.926 77.68 70.218 77.68 67.6ZM84.9217 67.6C84.9217 70.512 85.8597 72.612 88.0437 72.612C90.2277 72.612 91.1097 70.512 91.1097 67.6C91.1097 64.702 90.1997 62.588 88.0157 62.588C85.8317 62.588 84.9217 64.702 84.9217 67.6ZM85.6917 67.6C85.6917 64.982 86.3357 63.274 88.0157 63.274C89.7097 63.274 90.3397 64.968 90.3397 67.6C90.3397 70.232 89.7377 71.926 88.0437 71.926C86.3777 71.926 85.6917 70.218 85.6917 67.6Z" fill="black"/>
<line y1="73.5" x2="92.0816" y2="73.5" stroke="black"/>
</svg>
