<svg width="141" height="95" viewBox="0 0 141 95" fill="none" xmlns="http://www.w3.org/2000/svg">
<path d="M1.056 21.736L3.984 26.296L8.112 23.176V49H13.632V15.304H9.648L1.056 21.736ZM30.9881 37.096C30.9881 43.864 35.5001 49.528 42.9881 49.528C48.3641 49.528 53.8361 45.544 53.8361 38.488C53.8361 32.344 49.5641 28.216 44.4281 28.216C41.0681 28.216 38.9081 29.416 37.5161 31.336C39.2441 24.856 44.2841 20.68 49.7561 19.048L47.5001 14.872C40.1561 16.696 30.9881 24.76 30.9881 37.096ZM36.8441 37.144C37.7081 35.32 39.5321 33.352 42.5561 33.352C46.1081 33.352 47.9801 35.8 47.9801 38.872C47.9801 41.56 46.1081 44.008 43.0361 44.008C39.0041 44.008 36.8441 40.984 36.8441 37.144ZM80.1206 27.688C80.1206 20.2 75.7046 14.872 68.2166 14.872C62.8406 14.872 57.0806 19 57.0806 26.056C57.0806 32.008 61.5446 36.472 67.2086 36.472C70.0406 36.472 72.2006 35.368 73.5926 33.448C72.2486 39.688 67.9766 43.768 61.0646 45.16L62.8886 49.528C72.4886 48.376 80.1206 40.6 80.1206 27.688ZM74.2646 27.64C73.4006 29.464 71.5766 31.288 68.5526 31.288C65.0006 31.288 62.9366 28.6 62.9366 25.672C62.9366 22.984 65.0966 20.392 68.2166 20.392C72.2486 20.392 74.2646 23.8 74.2646 27.64ZM106.746 27.688C106.746 20.2 102.33 14.872 94.8416 14.872C89.4656 14.872 83.7056 19 83.7056 26.056C83.7056 32.008 88.1696 36.472 93.8336 36.472C96.6656 36.472 98.8256 35.368 100.218 33.448C98.8736 39.688 94.6016 43.768 87.6896 45.16L89.5136 49.528C99.1136 48.376 106.746 40.6 106.746 27.688ZM100.89 27.64C100.026 29.464 98.2016 31.288 95.1776 31.288C91.6256 31.288 89.5616 28.6 89.5616 25.672C89.5616 22.984 91.7216 20.392 94.8416 20.392C98.8736 20.392 100.89 23.8 100.89 27.64Z" fill="#383838"/>
<path d="M119.2 21.62C119.2 18.5 117.36 16.28 114.24 16.28C112 16.28 109.6 18 109.6 20.94C109.6 23.42 111.46 25.28 113.82 25.28C115 25.28 115.9 24.82 116.48 24.02C115.92 26.62 114.14 28.32 111.26 28.9L112.02 30.72C116.02 30.24 119.2 27 119.2 21.62ZM116.76 21.6C116.4 22.36 115.64 23.12 114.38 23.12C112.9 23.12 112.04 22 112.04 20.78C112.04 19.66 112.94 18.58 114.24 18.58C115.92 18.58 116.76 20 116.76 21.6ZM130.294 21.62C130.294 18.5 128.454 16.28 125.334 16.28C123.094 16.28 120.694 18 120.694 20.94C120.694 23.42 122.554 25.28 124.914 25.28C126.094 25.28 126.994 24.82 127.574 24.02C127.014 26.62 125.234 28.32 122.354 28.9L123.114 30.72C127.114 30.24 130.294 27 130.294 21.62ZM127.854 21.6C127.494 22.36 126.734 23.12 125.474 23.12C123.994 23.12 123.134 22 123.134 20.78C123.134 19.66 124.034 18.58 125.334 18.58C127.014 18.58 127.854 20 127.854 21.6Z" fill="#383838"/>
<path d="M109.26 45.54H111.22V47.2H109.26V49.04H111.22V51.5H113.66V49.04H116.94V47.2H113.66V45.54H115.5C118.82 45.54 120.6 43.96 120.6 41.56C120.6 39.26 119.32 37.46 115.18 37.46C114.2 37.46 112 37.5 111.22 37.5V43.7H109.26V45.54ZM115.44 39.76C117.1 39.76 118 40.32 118 41.78C118 43.2 116.86 43.7 115.42 43.7H113.66V39.8C114.32 39.78 114.94 39.76 115.44 39.76Z" fill="#383838"/>
<path d="M11.168 84H12.832V78.08H16.128V76.416H12.832V69.6H11.168V76.416H3.008L12.48 61.6H10.56L0.768 76.96V78.08H11.168V84ZM26.382 84H39.726V82.432H28.558C30.414 80.736 38.734 73.088 38.734 66.848C38.734 64.224 36.91 61.344 32.782 61.344C29.966 61.344 27.118 63.136 26.638 66.528L28.078 67.072C28.526 64.224 30.734 63.008 32.686 63.008C35.566 63.008 36.974 65.024 36.974 67.168C36.974 72.288 30.03 79.04 26.382 82.624V84ZM57.4955 69.632C57.4955 65.056 55.1275 61.312 50.1355 61.312C46.7435 61.312 43.2235 64.16 43.2235 68.352C43.2235 72.128 45.8795 75.2 49.8795 75.2C52.7275 75.2 54.7115 73.76 55.5755 71.776C54.9995 78.016 51.2235 82.016 45.9435 82.976L46.5515 84.288C52.7595 83.424 57.4955 78.016 57.4955 69.632ZM55.7355 69.632C55.2555 71.52 53.3995 73.632 50.2955 73.632C46.8075 73.632 44.9835 71.008 44.9835 68.224C44.9835 65.344 47.4475 62.976 50.1995 62.976C54.0715 62.976 55.7355 66.24 55.7355 69.632ZM75.0268 69.632C75.0268 65.056 72.6588 61.312 67.6667 61.312C64.2748 61.312 60.7548 64.16 60.7548 68.352C60.7548 72.128 63.4108 75.2 67.4108 75.2C70.2588 75.2 72.2428 73.76 73.1068 71.776C72.5308 78.016 68.7548 82.016 63.4748 82.976L64.0828 84.288C70.2908 83.424 75.0268 78.016 75.0268 69.632ZM73.2668 69.632C72.7868 71.52 70.9308 73.632 67.8268 73.632C64.3388 73.632 62.5148 71.008 62.5148 68.224C62.5148 65.344 64.9788 62.976 67.7308 62.976C71.6028 62.976 73.2668 66.24 73.2668 69.632Z" fill="black"/>
<path d="M78.336 83.062H79.904V84.784H78.336V85.386H79.904V87.5H80.674V85.386H83.208V84.784H80.674V83.062H82.298C84.748 83.062 85.784 81.9 85.784 80.374C85.784 78.918 85.028 77.672 82.298 77.672C81.738 77.672 80.45 77.7 79.904 77.7V82.46H78.336V83.062ZM82.368 78.4C84.216 78.4 84.972 79.142 84.972 80.43C84.972 81.732 84.048 82.46 82.27 82.46H80.674V78.428C81.136 78.414 81.934 78.4 82.368 78.4Z" fill="black"/>
<path d="M78.91 67.6C78.91 70.512 79.848 72.612 82.032 72.612C84.216 72.612 85.098 70.512 85.098 67.6C85.098 64.702 84.188 62.588 82.004 62.588C79.82 62.588 78.91 64.702 78.91 67.6ZM79.68 67.6C79.68 64.982 80.324 63.274 82.004 63.274C83.698 63.274 84.328 64.968 84.328 67.6C84.328 70.232 83.726 71.926 82.032 71.926C80.366 71.926 79.68 70.218 79.68 67.6ZM86.9217 67.6C86.9217 70.512 87.8597 72.612 90.0437 72.612C92.2277 72.612 93.1097 70.512 93.1097 67.6C93.1097 64.702 92.1997 62.588 90.0157 62.588C87.8317 62.588 86.9217 64.702 86.9217 67.6ZM87.6917 67.6C87.6917 64.982 88.3357 63.274 90.0157 63.274C91.7097 63.274 92.3397 64.968 92.3397 67.6C92.3397 70.232 91.7377 71.926 90.0437 71.926C88.3777 71.926 87.6917 70.218 87.6917 67.6Z" fill="black"/>
<line y1="73.5" x2="92.0816" y2="73.5" stroke="black"/>
</svg>
