<svg width="141" height="95" viewBox="0 0 141 95" fill="none" xmlns="http://www.w3.org/2000/svg">
<path d="M1.056 21.736L3.984 26.296L8.112 23.176V49H13.632V15.304H9.648L1.056 21.736ZM30.6041 49H51.7241V43.864H37.7561C40.3961 41.704 50.4281 33.208 50.4281 23.8C50.4281 19.336 47.3081 15.016 40.9241 15.016C35.5961 15.016 31.7561 18.088 30.8441 22.984L35.4521 25.048C36.1721 22.216 37.9001 20.536 40.3001 20.536C43.0841 20.536 44.5721 22.216 44.5721 24.904C44.5721 31.432 36.0761 39.208 30.6041 44.584V49ZM78.48 27.688C78.48 20.2 74.064 14.872 66.576 14.872C61.2 14.872 55.44 19 55.44 26.056C55.44 32.008 59.904 36.472 65.568 36.472C68.4 36.472 70.56 35.368 71.952 33.448C70.608 39.688 66.336 43.768 59.424 45.16L61.248 49.528C70.848 48.376 78.48 40.6 78.48 27.688ZM72.624 27.64C71.76 29.464 69.936 31.288 66.912 31.288C63.36 31.288 61.296 28.6 61.296 25.672C61.296 22.984 63.456 20.392 66.576 20.392C70.608 20.392 72.624 23.8 72.624 27.64ZM105.105 27.688C105.105 20.2 100.689 14.872 93.201 14.872C87.825 14.872 82.065 19 82.065 26.056C82.065 32.008 86.529 36.472 92.193 36.472C95.025 36.472 97.185 35.368 98.577 33.448C97.233 39.688 92.961 43.768 86.049 45.16L87.873 49.528C97.473 48.376 105.105 40.6 105.105 27.688ZM99.249 27.64C98.385 29.464 96.561 31.288 93.537 31.288C89.985 31.288 87.921 28.6 87.921 25.672C87.921 22.984 90.081 20.392 93.201 20.392C97.233 20.392 99.249 23.8 99.249 27.64Z" fill="#383838"/>
<path d="M118.2 21.62C118.2 18.5 116.36 16.28 113.24 16.28C111 16.28 108.6 18 108.6 20.94C108.6 23.42 110.46 25.28 112.82 25.28C114 25.28 114.9 24.82 115.48 24.02C114.92 26.62 113.14 28.32 110.26 28.9L111.02 30.72C115.02 30.24 118.2 27 118.2 21.62ZM115.76 21.6C115.4 22.36 114.64 23.12 113.38 23.12C111.9 23.12 111.04 22 111.04 20.78C111.04 19.66 111.94 18.58 113.24 18.58C114.92 18.58 115.76 20 115.76 21.6ZM129.294 21.62C129.294 18.5 127.454 16.28 124.334 16.28C122.094 16.28 119.694 18 119.694 20.94C119.694 23.42 121.554 25.28 123.914 25.28C125.094 25.28 125.994 24.82 126.574 24.02C126.014 26.62 124.234 28.32 121.354 28.9L122.114 30.72C126.114 30.24 129.294 27 129.294 21.62ZM126.854 21.6C126.494 22.36 125.734 23.12 124.474 23.12C122.994 23.12 122.134 22 122.134 20.78C122.134 19.66 123.034 18.58 124.334 18.58C126.014 18.58 126.854 20 126.854 21.6Z" fill="#383838"/>
<path d="M108.26 45.54H110.22V47.2H108.26V49.04H110.22V51.5H112.66V49.04H115.94V47.2H112.66V45.54H114.5C117.82 45.54 119.6 43.96 119.6 41.56C119.6 39.26 118.32 37.46 114.18 37.46C113.2 37.46 111 37.5 110.22 37.5V43.7H108.26V45.54ZM114.44 39.76C116.1 39.76 117 40.32 117 41.78C117 43.2 115.86 43.7 114.42 43.7H112.66V39.8C113.32 39.78 113.94 39.76 114.44 39.76Z" fill="#383838"/>
<path d="M7.968 84.288C11.872 84.288 14.784 81.824 14.784 77.888C14.784 75.296 13.184 72.864 10.368 72.448V72.352C12.672 71.424 13.92 69.28 13.92 66.944C13.92 63.424 11.648 61.312 8 61.312C5.152 61.312 2.912 62.656 2.016 64.992L3.008 66.048C3.872 64.224 5.344 62.976 7.872 62.976C10.464 62.976 12.16 64.448 12.16 67.168C12.16 69.792 10.08 71.712 7.968 71.712H6.24V73.376H8.16C10.944 73.376 13.024 75.168 13.024 77.824C13.024 80.544 11.104 82.624 7.968 82.624C5.824 82.624 3.584 81.664 2.432 79.264L1.44 80.416C2.592 83.104 5.12 84.288 7.968 84.288ZM26.2258 84H39.5698V82.432H28.4018C30.2578 80.736 38.5778 73.088 38.5778 66.848C38.5778 64.224 36.7538 61.344 32.6258 61.344C29.8098 61.344 26.9618 63.136 26.4818 66.528L27.9218 67.072C28.3698 64.224 30.5778 63.008 32.5298 63.008C35.4098 63.008 36.8178 65.024 36.8178 67.168C36.8178 72.288 29.8738 79.04 26.2258 82.624V84ZM57.3393 69.632C57.3393 65.056 54.9713 61.312 49.9792 61.312C46.5873 61.312 43.0673 64.16 43.0673 68.352C43.0673 72.128 45.7233 75.2 49.7233 75.2C52.5713 75.2 54.5553 73.76 55.4193 71.776C54.8433 78.016 51.0673 82.016 45.7873 82.976L46.3953 84.288C52.6033 83.424 57.3393 78.016 57.3393 69.632ZM55.5793 69.632C55.0993 71.52 53.2433 73.632 50.1393 73.632C46.6513 73.632 44.8273 71.008 44.8273 68.224C44.8273 65.344 47.2913 62.976 50.0433 62.976C53.9153 62.976 55.5793 66.24 55.5793 69.632ZM74.8705 69.632C74.8705 65.056 72.5025 61.312 67.5105 61.312C64.1185 61.312 60.5985 64.16 60.5985 68.352C60.5985 72.128 63.2545 75.2 67.2545 75.2C70.1025 75.2 72.0865 73.76 72.9505 71.776C72.3745 78.016 68.5985 82.016 63.3185 82.976L63.9265 84.288C70.1345 83.424 74.8705 78.016 74.8705 69.632ZM73.1105 69.632C72.6305 71.52 70.7745 73.632 67.6705 73.632C64.1825 73.632 62.3585 71.008 62.3585 68.224C62.3585 65.344 64.8225 62.976 67.5745 62.976C71.4465 62.976 73.1105 66.24 73.1105 69.632Z" fill="black"/>
<path d="M78.336 83.062H79.904V84.784H78.336V85.386H79.904V87.5H80.674V85.386H83.208V84.784H80.674V83.062H82.298C84.748 83.062 85.784 81.9 85.784 80.374C85.784 78.918 85.028 77.672 82.298 77.672C81.738 77.672 80.45 77.7 79.904 77.7V82.46H78.336V83.062ZM82.368 78.4C84.216 78.4 84.972 79.142 84.972 80.43C84.972 81.732 84.048 82.46 82.27 82.46H80.674V78.428C81.136 78.414 81.934 78.4 82.368 78.4Z" fill="black"/>
<path d="M78.91 67.6C78.91 70.512 79.848 72.612 82.032 72.612C84.216 72.612 85.098 70.512 85.098 67.6C85.098 64.702 84.188 62.588 82.004 62.588C79.82 62.588 78.91 64.702 78.91 67.6ZM79.68 67.6C79.68 64.982 80.324 63.274 82.004 63.274C83.698 63.274 84.328 64.968 84.328 67.6C84.328 70.232 83.726 71.926 82.032 71.926C80.366 71.926 79.68 70.218 79.68 67.6ZM86.9217 67.6C86.9217 70.512 87.8597 72.612 90.0437 72.612C92.2277 72.612 93.1097 70.512 93.1097 67.6C93.1097 64.702 92.1997 62.588 90.0157 62.588C87.8317 62.588 86.9217 64.702 86.9217 67.6ZM87.6917 67.6C87.6917 64.982 88.3357 63.274 90.0157 63.274C91.7097 63.274 92.3397 64.968 92.3397 67.6C92.3397 70.232 91.7377 71.926 90.0437 71.926C88.3777 71.926 87.6917 70.218 87.6917 67.6Z" fill="black"/>
<line y1="73.5" x2="92.0816" y2="73.5" stroke="black"/>
</svg>
