<svg width="141" height="95" viewBox="0 0 141 95" fill="none" xmlns="http://www.w3.org/2000/svg">
<path d="M1.056 21.736L3.984 26.296L8.112 23.176V49H13.632V15.304H9.648L1.056 21.736ZM29.8841 21.736L32.8121 26.296L36.9401 23.176V49H42.4601V15.304H38.4761L29.8841 21.736ZM71.9644 27.688C71.9644 20.2 67.5484 14.872 60.0604 14.872C54.6844 14.872 48.9244 19 48.9244 26.056C48.9244 32.008 53.3884 36.472 59.0524 36.472C61.8844 36.472 64.0444 35.368 65.4364 33.448C64.0924 39.688 59.8204 43.768 52.9084 45.16L54.7324 49.528C64.3324 48.376 71.9644 40.6 71.9644 27.688ZM66.1084 27.64C65.2444 29.464 63.4204 31.288 60.3964 31.288C56.8444 31.288 54.7804 28.6 54.7804 25.672C54.7804 22.984 56.9404 20.392 60.0604 20.392C64.0924 20.392 66.1084 23.8 66.1084 27.64ZM98.5894 27.688C98.5894 20.2 94.1734 14.872 86.6854 14.872C81.3094 14.872 75.5494 19 75.5494 26.056C75.5494 32.008 80.0134 36.472 85.6774 36.472C88.5094 36.472 90.6694 35.368 92.0614 33.448C90.7174 39.688 86.4454 43.768 79.5334 45.16L81.3574 49.528C90.9574 48.376 98.5894 40.6 98.5894 27.688ZM92.7334 27.64C91.8694 29.464 90.0454 31.288 87.0214 31.288C83.4694 31.288 81.4054 28.6 81.4054 25.672C81.4054 22.984 83.5654 20.392 86.6854 20.392C90.7174 20.392 92.7334 23.8 92.7334 27.64Z" fill="#383838"/>
<path d="M111.2 21.62C111.2 18.5 109.36 16.28 106.24 16.28C104 16.28 101.6 18 101.6 20.94C101.6 23.42 103.46 25.28 105.82 25.28C107 25.28 107.9 24.82 108.48 24.02C107.92 26.62 106.14 28.32 103.26 28.9L104.02 30.72C108.02 30.24 111.2 27 111.2 21.62ZM108.76 21.6C108.4 22.36 107.64 23.12 106.38 23.12C104.9 23.12 104.04 22 104.04 20.78C104.04 19.66 104.94 18.58 106.24 18.58C107.92 18.58 108.76 20 108.76 21.6ZM122.294 21.62C122.294 18.5 120.454 16.28 117.334 16.28C115.094 16.28 112.694 18 112.694 20.94C112.694 23.42 114.554 25.28 116.914 25.28C118.094 25.28 118.994 24.82 119.574 24.02C119.014 26.62 117.234 28.32 114.354 28.9L115.114 30.72C119.114 30.24 122.294 27 122.294 21.62ZM119.854 21.6C119.494 22.36 118.734 23.12 117.474 23.12C115.994 23.12 115.134 22 115.134 20.78C115.134 19.66 116.034 18.58 117.334 18.58C119.014 18.58 119.854 20 119.854 21.6Z" fill="#383838"/>
<path d="M101.26 45.54H103.22V47.2H101.26V49.04H103.22V51.5H105.66V49.04H108.94V47.2H105.66V45.54H107.5C110.82 45.54 112.6 43.96 112.6 41.56C112.6 39.26 111.32 37.46 107.18 37.46C106.2 37.46 104 37.5 103.22 37.5V43.7H101.26V45.54ZM107.44 39.76C109.1 39.76 110 40.32 110 41.78C110 43.2 108.86 43.7 107.42 43.7H105.66V39.8C106.32 39.78 106.94 39.76 107.44 39.76Z" fill="#383838"/>
<path d="M1.632 84H14.976V82.432H3.808C5.664 80.736 13.984 73.088 13.984 66.848C13.984 64.224 12.16 61.344 8.032 61.344C5.216 61.344 2.368 63.136 1.888 66.528L3.328 67.072C3.776 64.224 5.984 63.008 7.936 63.008C10.816 63.008 12.224 65.024 12.224 67.168C12.224 72.288 5.28 79.04 1.632 82.624V84ZM32.4368 84.288C36.3408 84.288 39.2528 81.824 39.2528 77.888C39.2528 75.296 37.6528 72.864 34.8368 72.448V72.352C37.1408 71.424 38.3888 69.28 38.3888 66.944C38.3888 63.424 36.1168 61.312 32.4688 61.312C29.6208 61.312 27.3808 62.656 26.4848 64.992L27.4768 66.048C28.3408 64.224 29.8128 62.976 32.3408 62.976C34.9328 62.976 36.6288 64.448 36.6288 67.168C36.6288 69.792 34.5488 71.712 32.4368 71.712H30.7088V73.376H32.6288C35.4128 73.376 37.4928 75.168 37.4928 77.824C37.4928 80.544 35.5728 82.624 32.4368 82.624C30.2928 82.624 28.0528 81.664 26.9008 79.264L25.9088 80.416C27.0608 83.104 29.5888 84.288 32.4368 84.288ZM57.3393 69.632C57.3393 65.056 54.9713 61.312 49.9792 61.312C46.5873 61.312 43.0673 64.16 43.0673 68.352C43.0673 72.128 45.7233 75.2 49.7233 75.2C52.5713 75.2 54.5553 73.76 55.4193 71.776C54.8433 78.016 51.0673 82.016 45.7873 82.976L46.3953 84.288C52.6033 83.424 57.3393 78.016 57.3393 69.632ZM55.5793 69.632C55.0993 71.52 53.2433 73.632 50.1393 73.632C46.6513 73.632 44.8273 71.008 44.8273 68.224C44.8273 65.344 47.2913 62.976 50.0433 62.976C53.9153 62.976 55.5793 66.24 55.5793 69.632ZM74.8705 69.632C74.8705 65.056 72.5025 61.312 67.5105 61.312C64.1185 61.312 60.5985 64.16 60.5985 68.352C60.5985 72.128 63.2545 75.2 67.2545 75.2C70.1025 75.2 72.0865 73.76 72.9505 71.776C72.3745 78.016 68.5985 82.016 63.3185 82.976L63.9265 84.288C70.1345 83.424 74.8705 78.016 74.8705 69.632ZM73.1105 69.632C72.6305 71.52 70.7745 73.632 67.6705 73.632C64.1825 73.632 62.3585 71.008 62.3585 68.224C62.3585 65.344 64.8225 62.976 67.5745 62.976C71.4465 62.976 73.1105 66.24 73.1105 69.632Z" fill="black"/>
<path d="M78.336 83.062H79.904V84.784H78.336V85.386H79.904V87.5H80.674V85.386H83.208V84.784H80.674V83.062H82.298C84.748 83.062 85.784 81.9 85.784 80.374C85.784 78.918 85.028 77.672 82.298 77.672C81.738 77.672 80.45 77.7 79.904 77.7V82.46H78.336V83.062ZM82.368 78.4C84.216 78.4 84.972 79.142 84.972 80.43C84.972 81.732 84.048 82.46 82.27 82.46H80.674V78.428C81.136 78.414 81.934 78.4 82.368 78.4Z" fill="black"/>
<path d="M78.91 67.6C78.91 70.512 79.848 72.612 82.032 72.612C84.216 72.612 85.098 70.512 85.098 67.6C85.098 64.702 84.188 62.588 82.004 62.588C79.82 62.588 78.91 64.702 78.91 67.6ZM79.68 67.6C79.68 64.982 80.324 63.274 82.004 63.274C83.698 63.274 84.328 64.968 84.328 67.6C84.328 70.232 83.726 71.926 82.032 71.926C80.366 71.926 79.68 70.218 79.68 67.6ZM86.9217 67.6C86.9217 70.512 87.8597 72.612 90.0437 72.612C92.2277 72.612 93.1097 70.512 93.1097 67.6C93.1097 64.702 92.1997 62.588 90.0157 62.588C87.8317 62.588 86.9217 64.702 86.9217 67.6ZM87.6917 67.6C87.6917 64.982 88.3357 63.274 90.0157 63.274C91.7097 63.274 92.3397 64.968 92.3397 67.6C92.3397 70.232 91.7377 71.926 90.0437 71.926C88.3777 71.926 87.6917 70.218 87.6917 67.6Z" fill="black"/>
<line y1="73.5" x2="92.0816" y2="73.5" stroke="black"/>
</svg>
