<svg width="141" height="95" viewBox="0 0 141 95" fill="none" xmlns="http://www.w3.org/2000/svg">
<path d="M1.056 21.736L3.984 26.296L8.112 23.176V49H13.632V15.304H9.648L1.056 21.736ZM40.5401 49.528C46.7321 49.528 51.5321 45.736 51.5321 39.544C51.5321 35.56 49.2761 32.248 45.1001 31.528V31.384C48.5081 29.896 50.2361 27.208 50.2361 23.416C50.2361 18.136 46.3481 14.872 40.5881 14.872C35.9801 14.872 32.4761 16.696 30.6521 20.104L33.7241 23.992C35.4041 21.544 37.3721 20.392 40.0601 20.392C42.9401 20.392 44.3321 22.072 44.3321 24.472C44.3321 27.352 41.8841 29.08 39.1481 29.08H36.9881V34.6H39.3881C43.2761 34.6 45.6281 36.28 45.6281 39.352C45.6281 41.896 43.8041 44.008 40.2041 44.008C37.2761 44.008 34.6841 42.328 33.0041 39.832L29.8841 43.864C31.6601 47.272 35.4041 49.528 40.5401 49.528ZM78.7613 27.688C78.7613 20.2 74.3453 14.872 66.8573 14.872C61.4813 14.872 55.7213 19 55.7213 26.056C55.7213 32.008 60.1853 36.472 65.8493 36.472C68.6813 36.472 70.8413 35.368 72.2333 33.448C70.8893 39.688 66.6172 43.768 59.7053 45.16L61.5293 49.528C71.1293 48.376 78.7613 40.6 78.7613 27.688ZM72.9053 27.64C72.0413 29.464 70.2173 31.288 67.1933 31.288C63.6413 31.288 61.5773 28.6 61.5773 25.672C61.5773 22.984 63.7373 20.392 66.8573 20.392C70.8893 20.392 72.9053 23.8 72.9053 27.64ZM105.386 27.688C105.386 20.2 100.97 14.872 93.4823 14.872C88.1063 14.872 82.3463 19 82.3463 26.056C82.3463 32.008 86.8103 36.472 92.4743 36.472C95.3063 36.472 97.4663 35.368 98.8583 33.448C97.5143 39.688 93.2422 43.768 86.3303 45.16L88.1543 49.528C97.7543 48.376 105.386 40.6 105.386 27.688ZM99.5303 27.64C98.6663 29.464 96.8423 31.288 93.8183 31.288C90.2663 31.288 88.2023 28.6 88.2023 25.672C88.2023 22.984 90.3623 20.392 93.4823 20.392C97.5143 20.392 99.5303 23.8 99.5303 27.64Z" fill="#383838"/>
<path d="M118.2 21.62C118.2 18.5 116.36 16.28 113.24 16.28C111 16.28 108.6 18 108.6 20.94C108.6 23.42 110.46 25.28 112.82 25.28C114 25.28 114.9 24.82 115.48 24.02C114.92 26.62 113.14 28.32 110.26 28.9L111.02 30.72C115.02 30.24 118.2 27 118.2 21.62ZM115.76 21.6C115.4 22.36 114.64 23.12 113.38 23.12C111.9 23.12 111.04 22 111.04 20.78C111.04 19.66 111.94 18.58 113.24 18.58C114.92 18.58 115.76 20 115.76 21.6ZM129.294 21.62C129.294 18.5 127.454 16.28 124.334 16.28C122.094 16.28 119.694 18 119.694 20.94C119.694 23.42 121.554 25.28 123.914 25.28C125.094 25.28 125.994 24.82 126.574 24.02C126.014 26.62 124.234 28.32 121.354 28.9L122.114 30.72C126.114 30.24 129.294 27 129.294 21.62ZM126.854 21.6C126.494 22.36 125.734 23.12 124.474 23.12C122.994 23.12 122.134 22 122.134 20.78C122.134 19.66 123.034 18.58 124.334 18.58C126.014 18.58 126.854 20 126.854 21.6Z" fill="#383838"/>
<path d="M108.26 45.54H110.22V47.2H108.26V49.04H110.22V51.5H112.66V49.04H115.94V47.2H112.66V45.54H114.5C117.82 45.54 119.6 43.96 119.6 41.56C119.6 39.26 118.32 37.46 114.18 37.46C113.2 37.46 111 37.5 110.22 37.5V43.7H108.26V45.54ZM114.44 39.76C116.1 39.76 117 40.32 117 41.78C117 43.2 115.86 43.7 114.42 43.7H112.66V39.8C113.32 39.78 113.94 39.76 114.44 39.76Z" fill="#383838"/>
<path d="M7.968 84.288C11.872 84.288 14.784 81.824 14.784 77.888C14.784 75.296 13.184 72.864 10.368 72.448V72.352C12.672 71.424 13.92 69.28 13.92 66.944C13.92 63.424 11.648 61.312 8 61.312C5.152 61.312 2.912 62.656 2.016 64.992L3.008 66.048C3.872 64.224 5.344 62.976 7.872 62.976C10.464 62.976 12.16 64.448 12.16 67.168C12.16 69.792 10.08 71.712 7.968 71.712H6.24V73.376H8.16C10.944 73.376 13.024 75.168 13.024 77.824C13.024 80.544 11.104 82.624 7.968 82.624C5.824 82.624 3.584 81.664 2.432 79.264L1.44 80.416C2.592 83.104 5.12 84.288 7.968 84.288ZM35.7618 84H37.4258V78.08H40.7218V76.416H37.4258V69.6H35.7618V76.416H27.6018L37.0738 61.6H35.1538L25.3618 76.96V78.08H35.7618V84ZM57.6205 69.632C57.6205 65.056 55.2525 61.312 50.2605 61.312C46.8685 61.312 43.3485 64.16 43.3485 68.352C43.3485 72.128 46.0045 75.2 50.0045 75.2C52.8525 75.2 54.8365 73.76 55.7005 71.776C55.1245 78.016 51.3485 82.016 46.0685 82.976L46.6765 84.288C52.8845 83.424 57.6205 78.016 57.6205 69.632ZM55.8605 69.632C55.3805 71.52 53.5245 73.632 50.4205 73.632C46.9325 73.632 45.1085 71.008 45.1085 68.224C45.1085 65.344 47.5725 62.976 50.3245 62.976C54.1965 62.976 55.8605 66.24 55.8605 69.632ZM75.1518 69.632C75.1518 65.056 72.7838 61.312 67.7917 61.312C64.3998 61.312 60.8798 64.16 60.8798 68.352C60.8798 72.128 63.5358 75.2 67.5358 75.2C70.3838 75.2 72.3678 73.76 73.2318 71.776C72.6558 78.016 68.8798 82.016 63.5998 82.976L64.2078 84.288C70.4158 83.424 75.1518 78.016 75.1518 69.632ZM73.3918 69.632C72.9118 71.52 71.0558 73.632 67.9518 73.632C64.4638 73.632 62.6398 71.008 62.6398 68.224C62.6398 65.344 65.1038 62.976 67.8558 62.976C71.7278 62.976 73.3918 66.24 73.3918 69.632Z" fill="black"/>
<path d="M78.336 83.062H79.904V84.784H78.336V85.386H79.904V87.5H80.674V85.386H83.208V84.784H80.674V83.062H82.298C84.748 83.062 85.784 81.9 85.784 80.374C85.784 78.918 85.028 77.672 82.298 77.672C81.738 77.672 80.45 77.7 79.904 77.7V82.46H78.336V83.062ZM82.368 78.4C84.216 78.4 84.972 79.142 84.972 80.43C84.972 81.732 84.048 82.46 82.27 82.46H80.674V78.428C81.136 78.414 81.934 78.4 82.368 78.4Z" fill="black"/>
<path d="M78.91 67.6C78.91 70.512 79.848 72.612 82.032 72.612C84.216 72.612 85.098 70.512 85.098 67.6C85.098 64.702 84.188 62.588 82.004 62.588C79.82 62.588 78.91 64.702 78.91 67.6ZM79.68 67.6C79.68 64.982 80.324 63.274 82.004 63.274C83.698 63.274 84.328 64.968 84.328 67.6C84.328 70.232 83.726 71.926 82.032 71.926C80.366 71.926 79.68 70.218 79.68 67.6ZM86.9217 67.6C86.9217 70.512 87.8597 72.612 90.0437 72.612C92.2277 72.612 93.1097 70.512 93.1097 67.6C93.1097 64.702 92.1997 62.588 90.0157 62.588C87.8317 62.588 86.9217 64.702 86.9217 67.6ZM87.6917 67.6C87.6917 64.982 88.3357 63.274 90.0157 63.274C91.7097 63.274 92.3397 64.968 92.3397 67.6C92.3397 70.232 91.7377 71.926 90.0437 71.926C88.3777 71.926 87.6917 70.218 87.6917 67.6Z" fill="black"/>
<line y1="73.5" x2="92.0816" y2="73.5" stroke="black"/>
</svg>
