<svg width="81" height="62" viewBox="0 0 81 62" fill="none" xmlns="http://www.w3.org/2000/svg">
<path d="M4.67068 0C2.09662 0 0 2.0498 0 4.57577V47.9933C0 50.5193 2.03433 53.0867 4.52536 53.7078L35.9746 61.5341C38.4657 62.1553 42.5343 62.1553 45.0253 61.5341L76.4746 53.7078C78.9657 53.0867 81 50.54 81 47.9933V4.57577C81 2.0498 78.9034 0 76.3293 0H4.67068Z" fill="#FFDC15"/>
<path d="M6.16564 34.96H14.2296V31.536H6.16564V34.96ZM19.2909 29.536C20.0889 29.194 21.9509 28.852 23.6609 28.852C27.2329 28.852 29.3229 30.904 29.3229 33.564C29.3229 36.186 27.4989 38.048 24.9529 38.048C22.9389 38.048 20.6969 36.984 19.5569 35.312L17.0489 38.618C18.6829 41.126 21.9889 42.418 24.8389 42.418C29.8929 42.418 33.9969 39.112 33.9969 33.374C33.9969 28.13 30.3489 24.9 25.6369 24.9C25.1049 24.9 24.5349 24.976 24.1169 25.052L24.8769 19.77H33.6169V15.4H21.0389L19.2909 29.536ZM37.3284 28.7C37.3284 36.832 40.2164 42.304 46.3344 42.304C52.4144 42.304 55.1504 36.832 55.1504 28.7C55.1504 20.568 52.3384 15.096 46.2584 15.096C40.1404 15.096 37.3284 20.568 37.3284 28.7ZM42.0024 28.7C42.0024 22.278 43.2564 19.2 46.2584 19.2C49.2984 19.2 50.5144 22.126 50.5144 28.7C50.5144 35.274 49.3744 38.238 46.3344 38.238C43.4844 38.238 42.0024 35.198 42.0024 28.7ZM60.5134 41.23L61.9654 42.242L73.0534 27.436L71.6234 26.358L60.5134 41.23ZM57.5874 30.318C57.5874 32.672 59.4134 34.256 61.9214 34.256C64.4294 34.256 66.2554 32.672 66.2554 30.318C66.2554 27.942 64.4294 26.402 61.9214 26.402C59.4134 26.402 57.5874 27.942 57.5874 30.318ZM59.9634 30.318C59.9634 29.174 60.8214 28.448 61.9214 28.448C63.0434 28.448 63.9014 29.174 63.9014 30.318C63.9014 31.484 63.0654 32.21 61.9214 32.21C60.8434 32.21 59.9634 31.484 59.9634 30.318ZM67.3114 38.282C67.3114 40.636 69.1374 42.22 71.6454 42.22C74.1534 42.22 75.9794 40.636 75.9794 38.282C75.9794 35.906 74.1534 34.366 71.6454 34.366C69.1374 34.366 67.3114 35.906 67.3114 38.282ZM69.6874 38.282C69.6874 37.138 70.5454 36.412 71.6454 36.412C72.7674 36.412 73.6254 37.138 73.6254 38.282C73.6254 39.448 72.7894 40.174 71.6454 40.174C70.5674 40.174 69.6874 39.448 69.6874 38.282Z" fill="black"/>
</svg>
