<svg width="81" height="62" viewBox="0 0 81 62" fill="none" xmlns="http://www.w3.org/2000/svg">
<path d="M4.67068 0C2.09662 0 0 2.0498 0 4.57577V47.9933C0 50.5193 2.03433 53.0867 4.52536 53.7078L35.9746 61.5341C38.4657 62.1553 42.5343 62.1553 45.0253 61.5341L76.4746 53.7078C78.9657 53.0867 81 50.54 81 47.9933V4.57577C81 2.0498 78.9034 0 76.3293 0H4.67068Z" fill="#FFDC15"/>
<path d="M5.31213 34.96H13.3761V31.536H5.31213V34.96ZM17.0694 32.576C17.0694 37.934 20.6414 42.418 26.5694 42.418C30.8254 42.418 35.1574 39.264 35.1574 33.678C35.1574 28.814 31.7754 25.546 27.7094 25.546C25.0494 25.546 23.3394 26.496 22.2374 28.016C23.6054 22.886 27.5954 19.58 31.9274 18.288L30.1414 14.982C24.3274 16.426 17.0694 22.81 17.0694 32.576ZM21.7054 32.614C22.3894 31.17 23.8334 29.612 26.2274 29.612C29.0394 29.612 30.5214 31.55 30.5214 33.982C30.5214 36.11 29.0394 38.048 26.6074 38.048C23.4154 38.048 21.7054 35.654 21.7054 32.614ZM38.1819 28.7C38.1819 36.832 41.0699 42.304 47.1879 42.304C53.2679 42.304 56.0039 36.832 56.0039 28.7C56.0039 20.568 53.1919 15.096 47.1119 15.096C40.9939 15.096 38.1819 20.568 38.1819 28.7ZM42.8559 28.7C42.8559 22.278 44.1099 19.2 47.1119 19.2C50.1519 19.2 51.3679 22.126 51.3679 28.7C51.3679 35.274 50.2279 38.238 47.1879 38.238C44.3379 38.238 42.8559 35.198 42.8559 28.7ZM61.367 41.23L62.819 42.242L73.907 27.436L72.477 26.358L61.367 41.23ZM58.441 30.318C58.441 32.672 60.267 34.256 62.775 34.256C65.283 34.256 67.109 32.672 67.109 30.318C67.109 27.942 65.283 26.402 62.775 26.402C60.267 26.402 58.441 27.942 58.441 30.318ZM60.817 30.318C60.817 29.174 61.675 28.448 62.775 28.448C63.897 28.448 64.755 29.174 64.755 30.318C64.755 31.484 63.919 32.21 62.775 32.21C61.697 32.21 60.817 31.484 60.817 30.318ZM68.165 38.282C68.165 40.636 69.991 42.22 72.499 42.22C75.007 42.22 76.833 40.636 76.833 38.282C76.833 35.906 75.007 34.366 72.499 34.366C69.991 34.366 68.165 35.906 68.165 38.282ZM70.541 38.282C70.541 37.138 71.399 36.412 72.499 36.412C73.621 36.412 74.479 37.138 74.479 38.282C74.479 39.448 73.643 40.174 72.499 40.174C71.421 40.174 70.541 39.448 70.541 38.282Z" fill="black"/>
</svg>
